<?xml version="1.0" standalone="no"?>
<!DOCTYPE svg PUBLIC "-//W3C//DTD SVG 1.1//EN" "http://www.w3.org/Graphics/SVG/1.1/DTD/svg11.dtd" >
<svg>
<metadata>
Created by FontForge 20110222 at Sun Feb 16 10:27:14 2014
 By Orthosie Webhosting
Copyright (c) 2011 by Ramiz Guseynov. All rights reserved.
</metadata>
<defs>
<font id="DecimaNovaProBold" horiz-adv-x="1187" >
  <font-face 
    font-family="DecimaNovaProBold"
    font-weight="700"
    font-stretch="normal"
    units-per-em="2048"
    panose-1="2 0 5 6 0 0 0 2 0 4"
    ascent="1536"
    descent="-512"
    x-height="1024"
    cap-height="1434"
    bbox="-100 -389 1966.5 1843"
    underline-thickness="102"
    underline-position="-102"
    unicode-range="U+000D-E000"
  />
<missing-glyph horiz-adv-x="748" 
d="M68 0v1365h544v-1365h-544zM136 68h408v1229h-408v-1229z" />
    <glyph glyph-name=".notdef" horiz-adv-x="748" 
d="M68 0v1365h544v-1365h-544zM136 68h408v1229h-408v-1229z" />
    <glyph glyph-name="glyph1" horiz-adv-x="2048" 
 />
    <glyph glyph-name="glyph1" horiz-adv-x="2048" 
 />
    <glyph glyph-name="uni000D" unicode="&#xd;" horiz-adv-x="2048" 
 />
    <glyph glyph-name="space" unicode=" " horiz-adv-x="450" 
 />
    <glyph glyph-name="exclam" unicode="!" horiz-adv-x="618" 
d="M184 1434h250l-24 -1049h-201zM195 0v231h231v-231h-231z" />
    <glyph glyph-name="quotedbl" unicode="&#x22;" horiz-adv-x="808" 
d="M123 952v482h211l-31 -482h-180zM477 952v482h209l-31 -482h-178z" />
    <glyph glyph-name="numbersign" unicode="#" 
d="M10 379v219h228l34 240h-198v217h229l55 379h191l-55 -379h303l53 379h190l-53 -379h191v-217h-224l-32 -240h194v-219h-227l-55 -379h-191l55 379h-301l-55 -379h-190l55 379h-197zM428 598h301l35 240h-301z" />
    <glyph glyph-name="dollar" unicode="$" 
d="M123 1032q0 162 92 258t248 127v115h231v-111q76 -5 145 -18.5t99 -24.5l31 -10l-11 -213q-210 45 -370 45q-230 0 -230 -162q0 -49 24 -84.5t65 -56.5t94 -37.5t112 -31.5t117.5 -33t111.5 -48.5t94 -71.5t65 -107t24 -152q0 -350 -371 -402v-112h-231v108
q-76 4 -156 17.5t-122 24.5l-42 11l9 218q221 -50 395 -50q160 0 221 38.5t61 131.5q0 57 -30.5 97.5t-80 61.5t-113 41.5t-129.5 36.5t-129.5 46.5t-113 70.5t-80 111t-30.5 166z" />
    <glyph glyph-name="percent" unicode="%" horiz-adv-x="1914" 
d="M164 981v170q0 134 92.5 218.5t228.5 84.5t230 -84.5t94 -218.5v-170q0 -135 -93.5 -219t-230.5 -84q-136 0 -228.5 85t-92.5 218zM377 956q0 -48 29.5 -73t78.5 -25t79 25t30 71v224q0 45 -31 70.5t-80 25.5q-47 0 -76.5 -25.5t-29.5 -70.5v-222zM530 0l656 1434h192
l-649 -1434h-199zM1106 281v170q0 134 92.5 218.5t228.5 84.5t230 -84.5t94 -218.5v-170q0 -135 -93.5 -219.5t-230.5 -84.5q-136 0 -228.5 85.5t-92.5 218.5zM1319 256q0 -48 29.5 -73t78.5 -25t79 25t30 71v223q0 45 -31 70.5t-80 25.5q-47 0 -76.5 -25.5t-29.5 -70.5
v-221z" />
    <glyph glyph-name="ampersand" unicode="&#x26;" horiz-adv-x="1261" 
d="M133 479q0 323 254 420l-174 311v224h821v-213h-571l323 -590l103 -215v295h219v-232q0 -160 -78 -297l98 -182h-251l-19 35q-113 -55 -244 -55q-60 0 -114.5 9.5t-110.5 30.5t-101 59.5t-80.5 91.5t-55 132t-19.5 176zM379 483q0 -66 10 -112.5t35.5 -86t74.5 -59.5
t122 -20q67 0 131 22l-260 475q-55 -15 -84 -65.5t-29 -153.5z" />
    <glyph glyph-name="quotesingle" unicode="'" horiz-adv-x="456" 
d="M123 952v482h211l-31 -482h-180z" />
    <glyph glyph-name="parenleft" unicode="(" horiz-adv-x="714" 
d="M174 0v1067q0 161 131.5 274t317.5 113v-229q-93 0 -154 -45t-61 -113v-1069q0 -68 61 -115t154 -47v-225q-186 0 -317.5 114t-131.5 275z" />
    <glyph glyph-name="parenright" unicode=")" horiz-adv-x="714" 
d="M92 -164q93 0 154 47t61 115v1069q0 68 -61 113t-154 45v229q186 0 317.5 -113t131.5 -274v-1067q0 -161 -131.5 -275t-317.5 -114v225z" />
    <glyph glyph-name="asterisk" unicode="*" horiz-adv-x="978" 
d="M102 1094l68 200l219 -69v231h209v-227l217 69l62 -204l-211 -68l133 -182l-174 -123l-131 178l-132 -186l-169 131l131 176z" />
    <glyph glyph-name="plus" unicode="+" 
d="M129 485v224h352v344h226v-344h352v-224h-352v-344h-226v344h-352z" />
    <glyph glyph-name="comma" unicode="," horiz-adv-x="563" 
d="M143 -143q107 0 107 143h-84v233h233v-180q0 -75 -15.5 -132.5t-40 -92t-59 -56.5t-68.5 -30t-73 -8v123z" />
    <glyph glyph-name="hyphen" unicode="-" horiz-adv-x="833" 
d="M143 483v219h547v-219h-547z" />
    <glyph glyph-name="period" unicode="." horiz-adv-x="559" 
d="M164 0v231h231v-231h-231z" />
    <glyph glyph-name="slash" unicode="/" horiz-adv-x="735" 
d="M41 0l422 1434h231l-424 -1434h-229z" />
    <glyph glyph-name="zero" unicode="0" 
d="M96 442q-6 275 0 547q6 197 146.5 331t351.5 134q216 0 353.5 -131.5t142.5 -333.5q6 -273 0 -547q-6 -197 -146 -331t-350 -134q-214 0 -353 133.5t-145 331.5zM332 442q2 -102 72.5 -168.5t189.5 -66.5q115 0 184.5 66.5t71.5 168.5q6 274 0 547q-2 102 -71 169
t-185 67t-188 -67t-74 -169q-6 -275 0 -547z" />
    <glyph glyph-name="one" unicode="1" 
d="M139 0v227h398v959l-353 -148v228l371 168h221v-1207h340v-227h-977z" />
    <glyph glyph-name="two" unicode="2" 
d="M127 0v258l543 498q83 75 114 133.5t31 146.5q0 99 -69 147t-183 48q-77 0 -172 -12.5t-151 -25.5l-56 -13l-10 217q23 6 62 15.5t147 25.5t201 16q107 0 192 -24t149 -74t98 -132.5t34 -193.5q0 -98 -25 -174t-65 -128t-109 -114l-430 -387h631v-227h-932z" />
    <glyph glyph-name="three" unicode="3" 
d="M131 37l12 221q20 -6 56.5 -15.5t142 -25.5t203.5 -16q270 0 270 274q0 33 -6 60.5t-15 47t-25.5 35t-31 25.5t-37.5 17t-39 10.5t-43 5.5t-41 2h-40h-121v194l280 336h-555v226h863v-205l-289 -340q67 -13 123.5 -39t108 -73t81 -125t29.5 -181q0 -114 -33.5 -203.5
t-85 -142.5t-121 -88t-134 -47.5t-130.5 -12.5q-117 0 -222.5 15t-152.5 30z" />
    <glyph glyph-name="four" unicode="4" 
d="M66 287v198l505 949h265l-494 -920h395v356h240v-356h143v-227h-143v-287h-240v287h-671z" />
    <glyph glyph-name="five" unicode="5" 
d="M123 772l51 662h827v-228h-612l-20 -309q118 29 225 29q229 0 350 -112.5t121 -344.5q0 -107 -29.5 -194t-91 -155t-166.5 -105.5t-246 -37.5q-112 0 -213 15t-145 30l-45 15l12 221q238 -57 385 -57q165 0 231 63t66 203q0 118 -57.5 176.5t-202.5 58.5q-69 0 -155 -22
t-138 -44l-51 -22z" />
    <glyph glyph-name="six" unicode="6" 
d="M98 459q-6 251 0 510q2 100 36 187t95.5 154t157.5 105.5t215 38.5q88 0 185 -12t149 -24l53 -13l-10 -219q-205 45 -369 45q-136 0 -200.5 -74t-69.5 -190l-2 -103q16 7 44 17.5t105.5 27.5t145.5 17q220 0 339.5 -117t119.5 -344q0 -229 -135.5 -357t-362.5 -128
q-153 0 -266 65.5t-170 172.5t-60 241zM338 643q0 -129 2 -182q2 -110 65.5 -185t186.5 -75q258 0 258 264q0 124 -62 180.5t-188 56.5q-50 0 -115.5 -15t-106.5 -29z" />
    <glyph glyph-name="seven" unicode="7" 
d="M147 1208v226h916v-226l-576 -1208h-247l581 1208h-674z" />
    <glyph glyph-name="eight" unicode="8" 
d="M84 395q0 121 43 202t131 144q-143 119 -143 316q0 176 131 286.5t350 110.5q213 0 344 -112.5t131 -284.5q0 -200 -143 -316q88 -63 131 -144t43 -202q0 -108 -40.5 -189.5t-111.5 -130t-160 -72t-194 -23.5q-86 0 -160.5 14.5t-140 46.5t-112 79.5t-73 117.5t-26.5 157
zM324 406q0 -70 40 -117t99 -66.5t133 -19.5q53 0 100 11.5t85 34.5t60.5 63.5t22.5 93.5q0 103 -81 161t-187 58q-108 0 -190 -58t-82 -161zM354 1053q0 -94 65 -148.5t177 -54.5q106 0 172 55t66 148q0 78 -67 129t-171 51q-111 0 -176.5 -50.5t-65.5 -129.5z" />
    <glyph glyph-name="nine" unicode="9" 
d="M94 969q0 229 135.5 357t362.5 128q153 0 266 -65.5t169.5 -172.5t59.5 -241q6 -251 0 -510q-2 -79 -23 -151t-63 -133t-100.5 -105.5t-140 -70t-176.5 -25.5q-88 0 -185 12t-149 24l-53 13l10 219q204 -45 368 -45q136 0 201 74t70 190l2 102q-16 -7 -44 -17t-105.5 -27
t-145.5 -17q-220 0 -339.5 117t-119.5 344zM336 969q0 -124 62.5 -181t187.5 -57q50 0 115.5 15t106.5 30l40 15q0 129 -2 182q-2 110 -65.5 185t-186.5 75q-258 0 -258 -264z" />
    <glyph glyph-name="colon" unicode=":" horiz-adv-x="559" 
d="M164 0v231h231v-231h-231zM164 793v231h231v-231h-231z" />
    <glyph glyph-name="semicolon" unicode=";" horiz-adv-x="563" 
d="M143 -143q107 0 107 143h-84v233h233v-180q0 -75 -15.5 -132.5t-40 -92t-59 -56.5t-68.5 -30t-73 -8v123zM166 793v231h231v-231h-231z" />
    <glyph glyph-name="less" unicode="&#x3c;" 
d="M119 504v186l948 451v-250l-670 -295l670 -295v-248z" />
    <glyph glyph-name="equal" unicode="=" 
d="M127 268v217h932v-217h-932zM127 709v217h932v-217h-932z" />
    <glyph glyph-name="greater" unicode="&#x3e;" 
d="M119 53v250l669 295l-669 295v248l948 -451v-186z" />
    <glyph glyph-name="question" unicode="?" horiz-adv-x="1110" 
d="M102 1397q23 7 63.5 16.5t153.5 26t211 16.5q103 0 188.5 -24t151 -72t102 -127t36.5 -182q0 -101 -26 -171.5t-67 -107.5t-90.5 -62.5t-99.5 -48.5t-91 -54t-67 -90t-26 -146h-224q0 97 15 172t41 121t59 79.5t70 53t73.5 35.5t69.5 32.5t59 39t41 61t15 92.5
q0 89 -67.5 131.5t-180.5 42.5q-92 0 -190 -12.5t-150 -25.5l-53 -13zM313 0v231h232v-231h-232z" />
    <glyph glyph-name="at" unicode="@" horiz-adv-x="1769" 
d="M139 209q-9 334 0 668q4 117 60.5 222.5t152.5 184t235.5 124.5t299.5 46q163 0 302.5 -46t235 -124.5t150.5 -183.5t57 -223q5 -301 0 -525q-2 -69 -22.5 -124.5t-51.5 -90.5t-71.5 -58t-79.5 -32.5t-78 -9.5q-48 0 -89.5 9.5t-66.5 23t-43 27t-25 23.5l-7 9
q-15 -10 -42 -25t-98.5 -40t-130.5 -25q-147 0 -228.5 82t-86.5 211q-6 180 0 360q5 131 95 215t255 84q84 0 179.5 -15.5t148.5 -31.5l53 -16v-561q0 -134 107 -134q74 0 87 96q4 24 5 77q5 196 0 475q-2 78 -39.5 147.5t-106 123t-174.5 85t-235 31.5q-125 0 -231 -31.5
t-176 -85t-110 -123.5t-42 -147q-9 -338 0 -676q5 -162 156 -274.5t403 -112.5q89 0 185 12t147 24l51 11l37 -187q-203 -47 -420 -47q-163 0 -303 46t-235.5 125t-150.5 184t-59 223zM713 362q7 -139 121 -139q32 0 82.5 17t85.5 34l34 17v491q-104 23 -174 23
q-74 0 -110.5 -40t-38.5 -101q-6 -161 0 -302z" />
    <glyph glyph-name="A" unicode="A" horiz-adv-x="1292" 
d="M41 0l451 1434h307l452 -1434h-254l-114 373h-475l-115 -373h-252zM475 596h340l-168 573z" />
    <glyph glyph-name="B" unicode="B" horiz-adv-x="1243" 
d="M164 0v1434h532q209 0 314.5 -104.5t105.5 -291.5q0 -56 -15.5 -106t-38 -82t-44.5 -55.5t-38 -34.5l-15 -10q7 -3 19 -10t42.5 -34t53.5 -60.5t42 -92t19 -125.5q0 -210 -116.5 -319t-369.5 -109h-491zM401 227h263q134 0 184.5 47.5t50.5 153.5q0 203 -205 203h-293
v-404zM401 856h293q85 0 136 46t51 132q0 79 -41.5 125.5t-120.5 46.5h-318v-350z" />
    <glyph glyph-name="C" unicode="C" horiz-adv-x="1150" 
d="M137 461q-3 128 -3 256t3 256q3 132 69 241t188 174.5t276 65.5q78 0 173.5 -13t151.5 -27l56 -13l-11 -219q-249 45 -370 45q-129 0 -207.5 -75t-81.5 -179q-4 -128 -4.5 -256.5t4.5 -255.5q5 -105 81.5 -179.5t207.5 -74.5q51 0 146.5 11.5t165.5 23.5l69 12l8 -219
q-221 -55 -389 -55q-235 0 -381.5 138.5t-151.5 342.5z" />
    <glyph glyph-name="D" unicode="D" horiz-adv-x="1325" 
d="M164 0v1434h502q235 0 381 -130t151 -331q3 -128 3 -256t-3 -256q-5 -202 -150 -331.5t-382 -129.5h-502zM401 227h265q133 0 209 66.5t79 167.5q3 128 3 256.5t-3 255.5q-3 100 -80 166.5t-208 66.5h-265v-979z" />
    <glyph glyph-name="E" unicode="E" horiz-adv-x="1234" 
d="M164 0v1434h948v-228h-711v-350h652v-225h-652v-404h732v-227h-969z" />
    <glyph glyph-name="F" unicode="F" horiz-adv-x="1175" 
d="M164 0v1434h940v-228h-703v-372h643v-228h-643v-606h-237z" />
    <glyph glyph-name="G" unicode="G" horiz-adv-x="1316" 
d="M137 461q-3 128 -3 256t3 256q5 204 155.5 342.5t391.5 138.5q118 0 235 -15t175 -29l57 -15l-12 -221q-262 53 -465 53q-130 0 -209 -75t-82 -179q-5 -129 -5 -257t5 -255q5 -106 82 -181t209 -75q56 0 120.5 6t101.5 12l36 6v320h-258v225h500v-711q-28 -9 -76.5 -23
t-180.5 -37t-243 -23q-119 0 -219.5 38t-169 103.5t-107.5 153t-41 186.5z" />
    <glyph glyph-name="H" unicode="H" horiz-adv-x="1394" 
d="M164 0v1434h239v-578h586v578h242v-1434h-242v629h-586v-629h-239z" />
    <glyph glyph-name="I" unicode="I" horiz-adv-x="567" 
d="M164 0v1434h239v-1434h-239z" />
    <glyph glyph-name="J" unicode="J" horiz-adv-x="679" 
d="M41 8l4 201q91 -8 154 -8q25 0 42 10t26 23.5t13.5 41t5.5 48.5t1 59v1051h239v-1104q0 -96 -23.5 -166t-65.5 -109t-93 -57t-113 -18q-34 0 -81.5 7t-77.5 14z" />
    <glyph glyph-name="K" unicode="K" horiz-adv-x="1300" 
d="M164 0v1434h237v-666l529 666h287l-558 -682l601 -752h-306l-553 719v-719h-237z" />
    <glyph glyph-name="L" unicode="L" horiz-adv-x="1083" 
d="M164 0v1434h239v-1207h639v-227h-878z" />
    <glyph glyph-name="M" unicode="M" horiz-adv-x="1617" 
d="M164 0v1434h274l371 -660l371 660h274v-1434h-240v973l15 143l-64 -153l-247 -412h-218l-245 407l-66 158l14 -149v-967h-239z" />
    <glyph glyph-name="N" unicode="N" horiz-adv-x="1400" 
d="M164 0v1434h268l504 -908l78 -182l-15 195v895h238v-1434h-268l-504 907l-78 183l14 -189v-901h-237z" />
    <glyph glyph-name="O" unicode="O" horiz-adv-x="1376" 
d="M137 461q-3 128 -3 256t3 256q5 201 161 341t390 140q235 0 390.5 -139.5t160.5 -341.5q3 -128 3 -256t-3 -256q-5 -201 -161.5 -341t-389.5 -140q-237 0 -391.5 139.5t-159.5 341.5zM377 459q3 -103 90 -180.5t221 -77.5q132 0 220 77t91 181q3 128 3 257.5t-3 258.5
q-3 103 -91 180.5t-220 77.5t-220 -77.5t-91 -180.5q-3 -130 -3 -259t3 -257z" />
    <glyph glyph-name="P" unicode="P" horiz-adv-x="1218" 
d="M164 0v1434h581q178 0 279 -95.5t109 -244.5q3 -70 3 -141t-3 -142q-8 -149 -109 -244.5t-279 -95.5h-342v-471h-239zM403 696h347q71 0 104 31.5t35 81.5q3 72 3 143.5t-3 141.5q-2 50 -36 81t-103 31h-347v-510z" />
    <glyph glyph-name="Q" unicode="Q" horiz-adv-x="1384" 
d="M137 461q-3 128 -3 256t3 256q5 201 161 341t390 140q235 0 390.5 -139.5t160.5 -341.5q3 -128 3 -256t-3 -256q-1 -50 -15.5 -104.5t-29.5 -83.5l-14 -29l133 -172l-160 -115l-111 133q-5 -4 -15.5 -11.5t-45 -26.5t-72.5 -33.5t-98.5 -26.5t-122.5 -12
q-237 0 -391.5 139.5t-159.5 341.5zM377 459q0 -29 10 -62q140 103 307 103q153 0 297 -92q4 17 8 51q3 129 3 258t-3 258q-3 103 -91 180.5t-220 77.5t-220 -77.5t-91 -180.5q-3 -129 -3 -258t3 -258zM504 250q77 -49 184 -49q111 0 191 55q-87 61 -189 61t-186 -67z" />
    <glyph glyph-name="R" unicode="R" horiz-adv-x="1292" 
d="M164 0v1434h584q177 0 277 -95t108 -245q3 -64 3 -129t-3 -129q-3 -68 -26 -125t-54 -90t-62 -56.5t-52 -32.5l-21 -8l292 -524h-282l-260 494h-265v-494h-239zM403 723h349q135 0 139 111q3 66 3 131t-3 131q-7 110 -139 110h-349v-483z" />
    <glyph glyph-name="S" unicode="S" horiz-adv-x="1234" 
d="M113 1047q0 104 39.5 183.5t109.5 127.5t160.5 72t198.5 24t216.5 -14t162.5 -28l55 -13l-13 -217q-212 45 -421 45q-116 0 -190.5 -43t-74.5 -131q0 -52 27 -89t72.5 -59.5t104.5 -39.5t124.5 -32.5t130.5 -34.5t124 -50t104.5 -73.5t72.5 -111t27 -157.5
q0 -426 -551 -426q-119 0 -234 15t-170 29l-55 15l12 219q240 -55 433 -55q170 0 245.5 45t75.5 141q0 54 -27 93.5t-72.5 63.5t-104.5 41.5t-124 34t-130 35.5t-124 49.5t-104.5 73t-72.5 111t-27 156.5z" />
    <glyph glyph-name="T" unicode="T" horiz-adv-x="1081" 
d="M41 1206v228h999v-228h-381v-1206h-239v1206h-379z" />
    <glyph glyph-name="U" unicode="U" horiz-adv-x="1406" 
d="M154 461v973h239v-957q0 -130 85 -201t227 -71q140 0 224.5 70.5t84.5 201.5v957h239v-973q0 -100 -41.5 -189t-114 -153t-174.5 -101.5t-218 -37.5q-239 0 -395 138.5t-156 342.5z" />
    <glyph glyph-name="V" unicode="V" horiz-adv-x="1265" 
d="M41 1434h250l342 -1211l342 1211h250l-439 -1434h-307z" />
    <glyph glyph-name="W" unicode="W" horiz-adv-x="1865" 
d="M82 1434h250l192 -1155l264 1155h289l264 -1160l193 1160h250l-264 -1434h-316l-270 1114l-272 -1114h-316z" />
    <glyph glyph-name="X" unicode="X" horiz-adv-x="1337" 
d="M41 0l485 735l-454 699h280l318 -498l317 498h279l-453 -699l483 -735h-280l-346 541l-348 -541h-281z" />
    <glyph glyph-name="Y" unicode="Y" horiz-adv-x="1282" 
d="M31 1434h278l332 -637l332 637h278l-489 -869v-565h-242v565z" />
    <glyph glyph-name="Z" unicode="Z" horiz-adv-x="1257" 
d="M102 0v233l748 973h-731v228h1028v-234l-752 -973h760v-227h-1053z" />
    <glyph glyph-name="bracketleft" unicode="[" horiz-adv-x="714" 
d="M174 -369v1803h449v-230h-215v-1347h215v-226h-449z" />
    <glyph glyph-name="backslash" unicode="\" horiz-adv-x="735" 
d="M41 1434h231l422 -1434h-229z" />
    <glyph glyph-name="bracketright" unicode="]" horiz-adv-x="716" 
d="M92 -143h217v1347h-217v230h451v-1803h-451v226z" />
    <glyph glyph-name="asciicircum" unicode="^" horiz-adv-x="1079" 
d="M102 657l349 777h178l348 -777h-234l-202 484l-205 -484h-234z" />
    <glyph glyph-name="underscore" unicode="_" horiz-adv-x="1181" 
d="M0 -154h1182v-174h-1182v174z" />
    <glyph glyph-name="grave" unicode="`" horiz-adv-x="546" 
d="M0 1434h293l254 -297h-232z" />
    <glyph glyph-name="a" unicode="a" horiz-adv-x="1032" 
d="M102 315q0 70 19.5 131t58 108.5t101.5 75t143 27.5h252v29q0 63 -41 106.5t-123 43.5q-79 0 -162.5 -10t-127.5 -20l-44 -11l-22 204q188 45 368 45q178 0 276.5 -98.5t98.5 -247.5v-698h-203l-10 74q-5 -4 -15 -10t-39.5 -22.5t-59 -29t-70.5 -22.5t-78 -10
q-151 0 -236.5 92t-85.5 243zM326 317q0 -129 104 -129q46 0 107.5 28t100.5 56l38 27v150h-244q-106 0 -106 -132z" />
    <glyph glyph-name="b" unicode="b" horiz-adv-x="1081" 
d="M143 37v1397h226v-459q13 7 36.5 17.5t85 28t111.5 17.5q167 0 257 -94.5t95 -243.5q3 -95 3 -189t-3 -187q-5 -152 -103 -248t-284 -96q-89 0 -195 14t-168 28zM369 207q59 -17 198 -17q75 0 117.5 44t44.5 106q3 86 3 172t-3 172q-2 61 -35.5 103t-95.5 42
q-45 0 -102.5 -17.5t-91.5 -34.5l-35 -17v-553z" />
    <glyph glyph-name="c" unicode="c" horiz-adv-x="901" 
d="M127 322q-3 94 -3 189t3 191q5 147 109 244.5t284 97.5q70 0 146 -7t116 -14l41 -7l-20 -211q-156 29 -285 29q-71 0 -117.5 -43t-48.5 -101q-3 -90 -3 -179t3 -177q2 -58 48 -102t118 -44q69 0 142.5 10t111.5 20l39 9l29 -209q-156 -41 -322 -41q-180 0 -283 98
t-108 247z" />
    <glyph glyph-name="d" unicode="d" horiz-adv-x="1085" 
d="M127 317q-3 93 -3 187t3 188q5 151 105 248.5t286 97.5q39 0 89 -9t80 -19l30 -9v433h225v-1434h-205l-8 72q-14 -10 -39 -25.5t-94.5 -41t-130.5 -25.5q-158 0 -245.5 94t-92.5 243zM352 332q2 -60 36 -101t95 -41q43 0 101.5 22.5t95.5 45.5l37 23v516q-82 32 -199 32
q-77 0 -120.5 -44.5t-45.5 -106.5q-3 -86 -3 -173t3 -173z" />
    <glyph glyph-name="e" unicode="e" horiz-adv-x="1030" 
d="M127 324q-3 86 -3 180t3 196q5 145 113 244.5t282 99.5q171 0 279 -96.5t114 -240.5q2 -41 2 -111.5t-1 -121.5l-1 -50h-567q0 -59 2 -84q5 -62 50.5 -106t119.5 -44q81 0 167 11.5t131 22.5l46 12l29 -199q-17 -6 -48.5 -15.5t-128.5 -25.5t-194 -16q-181 0 -285 97.5
t-110 246.5zM348 621h344q-2 49 -2 63q-2 61 -49 105.5t-115 44.5q-79 0 -126 -43t-50 -107z" />
    <glyph glyph-name="f" unicode="f" horiz-adv-x="753" 
d="M41 813v211h143v131q0 135 79.5 217t219.5 82q37 0 94.5 -5.5t96.5 -10.5l39 -6l-13 -205q-127 18 -213 18q-34 0 -55.5 -24t-21.5 -76v-121h276v-211h-276v-813h-226v813h-143z" />
    <glyph glyph-name="g" unicode="g" horiz-adv-x="995" 
d="M82 -299l57 184q20 -8 54.5 -19.5t125 -30.5t162.5 -19q106 0 160.5 15t54.5 54q0 23 -5.5 33.5t-20.5 18.5l-234 122q-88 46 -88 172v62q-121 25 -186 104.5t-70 190.5q-2 35 -2 69.5t2 69.5q6 135 104 222t273 87q68 0 127 -16l29 41q57 80 151 80q41 0 80.5 -4.5
t58.5 -8.5l19 -4l-23 -186h-100q-28 0 -37 -14l-4 -6q66 -72 72 -191q2 -33 2 -68t-2 -71q-5 -108 -75 -189.5t-189 -107.5v-39q0 -27 20 -37l186 -98q72 -38 105 -90.5t33 -141.5q0 -63 -24.5 -111.5t-65.5 -79t-99 -49.5t-119 -26.5t-133 -7.5q-105 0 -204.5 22.5
t-146.5 44.5zM315 594q2 -47 43.5 -76t110.5 -29q68 0 107.5 29t41.5 76q2 32 2 63.5t-2 63.5q-2 46 -42 76t-107 30q-69 0 -110.5 -30t-43.5 -76q-1 -32 -1 -63.5t1 -63.5z" />
    <glyph glyph-name="h" unicode="h" horiz-adv-x="1091" 
d="M143 0v1434h226v-465q14 8 38.5 19.5t89.5 30.5t119 19q167 0 254.5 -95.5t87.5 -244.5v-698h-225v686q0 61 -31 102t-94 41q-41 0 -100.5 -18.5t-99.5 -36.5l-39 -18v-756h-226z" />
    <glyph glyph-name="i" unicode="i" horiz-adv-x="520" 
d="M143 1200v234h234v-234h-234zM147 0v1024h226v-1024h-226z" />
    <glyph glyph-name="j" unicode="j" horiz-adv-x="524" 
d="M-100 -367l20 199q68 -12 154 -12q34 0 56 25t22 77v1102h225v-1114q0 -134 -80.5 -216.5t-220.5 -82.5q-36 0 -80 5.5t-70 11.5zM147 1200v234h234v-234h-234z" />
    <glyph glyph-name="k" unicode="k" horiz-adv-x="1056" 
d="M143 0v1434h224v-863l370 453h269l-412 -483l442 -541h-274l-395 504v-504h-224z" />
    <glyph glyph-name="l" unicode="l" horiz-adv-x="512" 
d="M143 0v1434h226v-1434h-226z" />
    <glyph glyph-name="m" unicode="m" horiz-adv-x="1544" 
d="M143 0v1024h207l10 -63q14 9 38.5 22.5t90 36t119.5 22.5q37 0 70.5 -9.5t54.5 -23t36.5 -27t22.5 -22.5l7 -10q15 10 42 25.5t100 41t136 25.5q152 0 243 -92.5t91 -251.5v-698h-223v690q0 66 -36 106t-95 40q-28 0 -70.5 -17t-70.5 -34l-29 -17v-768h-223v717
q0 48 -29 83.5t-76 35.5q-32 0 -80 -21.5t-80 -42.5l-32 -22v-750h-224z" />
    <glyph glyph-name="n" unicode="n" horiz-adv-x="1091" 
d="M143 0v1024h207l10 -66q15 10 41 24t93.5 38t121.5 24q112 0 191 -48t115 -124.5t36 -173.5v-698h-225v686q0 62 -31 106t-94 44q-44 0 -103.5 -21.5t-97.5 -42.5l-38 -22v-750h-226z" />
    <glyph glyph-name="o" unicode="o" horiz-adv-x="1071" 
d="M127 324q-3 93 -3 187t3 189q5 147 112.5 245.5t297.5 98.5q188 0 295 -98.5t112 -245.5q3 -95 3 -189t-3 -187q-5 -150 -111.5 -247t-295.5 -97q-190 0 -297.5 97t-112.5 247zM352 336q2 -63 51 -104.5t134 -41.5q83 0 131.5 42.5t50.5 103.5q3 88 3 176t-3 176
q-2 63 -50.5 104.5t-133.5 41.5q-83 0 -132 -41.5t-51 -104.5q-3 -89 -3 -177t3 -175z" />
    <glyph glyph-name="p" unicode="p" horiz-adv-x="1085" 
d="M143 -369v1393h205l8 -57q16 9 43.5 21.5t94 34t112.5 21.5q168 0 257.5 -93.5t94.5 -243.5q3 -93 3 -187t-3 -188q-5 -151 -105 -248.5t-286 -97.5q-39 0 -88.5 9t-79.5 19l-30 9v-392h-226zM369 227q81 -32 198 -32q77 0 120.5 44.5t45.5 106.5q3 86 3 173t-3 173
q-2 60 -36 101t-95 41q-37 0 -95.5 -20.5t-98.5 -41.5l-39 -20v-525z" />
    <glyph glyph-name="q" unicode="q" horiz-adv-x="1081" 
d="M127 324q-3 95 -3 189t3 187q5 152 103 248t284 96q89 0 195 -14t167 -28l62 -15v-1356h-225v418q-14 -7 -37 -17.5t-85 -28t-112 -17.5q-167 0 -257 94.5t-95 243.5zM352 340q2 -61 35.5 -103t95.5 -42q45 0 102.5 17t92.5 34l35 18v553q-60 17 -199 17
q-75 0 -117.5 -44t-44.5 -106q-3 -86 -3 -172t3 -172z" />
    <glyph glyph-name="r" unicode="r" horiz-adv-x="690" 
d="M143 0v1024h207l8 -98q5 5 15.5 12.5t43 28t67 36t85.5 27.5t101 14v-210q-53 0 -103.5 -14t-85 -34t-61 -40t-38.5 -34l-13 -14v-698h-226z" />
    <glyph glyph-name="s" unicode="s" horiz-adv-x="964" 
d="M113 735q0 155 100 232t268 77q71 0 152.5 -10.5t127.5 -21.5l46 -11l-25 -204q-182 37 -301 37q-143 0 -143 -95q0 -33 29 -56t75 -37t102 -27.5t112 -36t102 -55t75 -90.5t29 -136q0 -321 -397 -321q-84 0 -170.5 13t-130.5 27l-45 13l28 203q167 -46 308 -46
q98 0 139 24.5t41 78.5q0 36 -29 59.5t-75 37.5t-101.5 27.5t-111 35t-101.5 53.5t-75 90.5t-29 138.5z" />
    <glyph glyph-name="t" unicode="t" horiz-adv-x="741" 
d="M41 813v211h145v246h226v-246h268v-211h-268v-522q0 -56 17.5 -79.5t57.5 -23.5q37 0 82 4t71 8l26 5l12 -203q-104 -22 -217 -22q-136 0 -205.5 78.5t-69.5 205.5v549h-145z" />
    <glyph glyph-name="u" unicode="u" horiz-adv-x="1091" 
d="M133 326v698h225v-686q0 -62 31 -106t94 -44q44 0 104 22.5t98 45.5l38 23v745h225v-1024h-207l-10 66q-15 -10 -41 -24t-93.5 -38t-121.5 -24q-112 0 -191 48t-115 124.5t-36 173.5z" />
    <glyph glyph-name="v" unicode="v" horiz-adv-x="980" 
d="M31 1024h237l221 -805l224 805h237l-315 -1024h-289z" />
    <glyph glyph-name="w" unicode="w" horiz-adv-x="1435" 
d="M82 1024h237l78 -670l9 -131l22 131l160 670h260l160 -670l22 -131l8 131l80 670h236l-162 -1024h-299l-156 641l-18 137l-21 -137l-155 -641h-299z" />
    <glyph glyph-name="x" unicode="x" horiz-adv-x="1028" 
d="M41 0l350 530l-328 494h259l192 -305l193 305h258l-328 -494l350 -530h-258l-215 336l-215 -336h-258z" />
    <glyph glyph-name="y" unicode="y" horiz-adv-x="1054" 
d="M31 1024h233l252 -748h10l271 748h227l-535 -1393h-227l164 410l-57 20z" />
    <glyph glyph-name="z" unicode="z" horiz-adv-x="915" 
d="M82 0v213l479 602h-459v209h725v-213l-479 -602h486v-209h-752z" />
    <glyph glyph-name="braceleft" unicode="{" horiz-adv-x="722" 
d="M82 424v217q42 0 72 17.5t30 48.5v360q0 161 130.5 274t316.5 113v-225q-91 0 -152 -47.5t-61 -114.5v-362q0 -32 -9.5 -61.5t-23 -48.5t-27 -34t-22.5 -22l-10 -7q4 -2 10 -6.5t22 -20.5t28 -34.5t22 -49t10 -63.5v-360q0 -68 61 -115t152 -47v-225q-186 0 -316.5 114
t-130.5 275v358q0 32 -29 49t-73 17z" />
    <glyph glyph-name="bar" unicode="|" horiz-adv-x="546" 
d="M174 -369v1803h199v-1803h-199z" />
    <glyph glyph-name="braceright" unicode="}" horiz-adv-x="722" 
d="M92 -164q91 0 152 47t61 115v360q0 33 9.5 63.5t23 49.5t27 33.5t23.5 21.5l9 6q-4 2 -10 7t-22 21.5t-28 35t-22 48t-10 61.5v362q0 67 -61 114.5t-152 47.5v225q186 0 316.5 -113t130.5 -274v-360q0 -31 30 -48.5t72 -17.5v-217q-44 0 -73 -17t-29 -49v-358
q0 -161 -130.5 -275t-316.5 -114v225z" />
    <glyph glyph-name="asciitilde" unicode="~" horiz-adv-x="1286" 
d="M123 528q24 38 34.5 54.5t34.5 49.5t39 48.5t41 38t49.5 33t55 18.5t65.5 8q54 0 114 -21.5t104 -48t95 -48t89 -21.5q39 0 71.5 30.5t81.5 108.5l166 -106q-24 -38 -34.5 -54.5t-34.5 -49.5t-39 -48.5t-41 -38t-49.5 -33t-55 -18.5t-65.5 -8q-54 0 -114 21.5t-104 48
t-95 48t-89 21.5q-39 0 -71.5 -30.5t-81.5 -108.5z" />
    <glyph glyph-name="uni00A0" unicode="&#xa0;" horiz-adv-x="450" 
 />
    <glyph glyph-name="cent" unicode="&#xa2;" 
d="M240 344q-6 189 0 381q3 122 77.5 211.5t206.5 118.5v108h211v-100q50 -4 100.5 -10t75.5 -11l25 -4l-21 -211q-155 29 -284 29q-71 0 -117.5 -42.5t-48.5 -100.5q-6 -180 0 -357q2 -58 48 -101.5t118 -43.5q69 0 142.5 9.5t112.5 19.5l38 10l28 -209q-98 -25 -217 -37
v-102h-211v108q-133 27 -207 118t-77 216z" />
    <glyph glyph-name="sterling" unicode="&#xa3;" 
d="M127 629v209h82q-23 103 -23 209q0 111 36.5 191t105 126.5t155.5 68t197 21.5q70 0 155.5 -8t136.5 -16l50 -9l-12 -223q-191 29 -330 29q-256 0 -256 -180q0 -96 33 -209h516v-209h-459q8 -44 8 -109q0 -64 -21.5 -137t-42.5 -115l-22 -41h623v-227h-926v219
q6 4 16 12.5t36 37.5t46 61t36 83.5t16 106.5q0 31 -19 109h-137z" />
    <glyph glyph-name="yen" unicode="&#xa5;" 
d="M37 1434h270l287 -678l287 678h270l-272 -596h141v-209h-234l-53 -115h287v-207h-307v-307h-238v307h-307v207h287l-52 115h-235v209h141z" />
    <glyph glyph-name="dieresis" unicode="&#xa8;" horiz-adv-x="641" 
d="M0 1176v233h233v-233h-233zM406 1176v233h233v-233h-233z" />
    <glyph glyph-name="copyright" unicode="&#xa9;" horiz-adv-x="1720" 
d="M123 717q0 150 58 286.5t157 235.5t235.5 157t286.5 58t286.5 -58t235.5 -157t157 -235.5t58 -286.5t-58 -286.5t-157 -235.5t-235.5 -157t-286.5 -58t-286.5 58t-235.5 157t-157 235.5t-58 286.5zM289 717q0 -116 45.5 -222t121.5 -182.5t182 -122t222 -45.5t222 45.5
t182.5 122t122 182.5t45.5 222t-45.5 222t-122 182t-182.5 121.5t-222 45.5q-155 0 -286.5 -76.5t-208 -208t-76.5 -286.5zM547 567q-6 150 0 301q3 114 84.5 191.5t222.5 77.5q55 0 114.5 -5.5t91.5 -11.5l32 -6l-17 -166q-121 21 -223 21q-56 0 -91.5 -33t-37.5 -78
q-6 -140 0 -280q2 -46 37 -79.5t92 -33.5q54 0 111 7.5t87 15.5l31 8l23 -164q-123 -33 -252 -33q-141 0 -221.5 76t-83.5 192z" />
    <glyph glyph-name="guillemotleft" unicode="&#xab;" horiz-adv-x="1259" 
d="M133 594l258 340h264l-270 -338l272 -340h-266zM592 594l258 340h264l-270 -338l272 -340h-266z" />
    <glyph glyph-name="uni00AD" unicode="&#xad;" horiz-adv-x="833" 
d="M143 483v219h547v-219h-547z" />
    <glyph glyph-name="registered" unicode="&#xae;" horiz-adv-x="1204" 
d="M102 956q0 135 67.5 250t182.5 182.5t250 67.5q136 0 251 -67.5t182 -182.5t67 -250t-67 -250t-182 -182t-251 -67q-135 0 -250 67t-182.5 182t-67.5 250zM213 956q0 -163 113 -276t276 -113t276 113t113 276t-113 276.5t-276 113.5t-276 -113.5t-113 -276.5zM430 692
v529h215q67 0 107 -36t43 -93q3 -46 0 -97q-1 -38 -18 -64t-52 -46l115 -193h-133l-97 174h-71v-174h-109zM539 973h100q33 0 37 39q3 32 0 65q-4 31 -37 31h-100v-135z" />
    <glyph glyph-name="acute" unicode="&#xb4;" horiz-adv-x="544" 
d="M0 1137l254 297h293l-316 -297h-231z" />
    <glyph glyph-name="cedilla" unicode="&#xb8;" horiz-adv-x="391" 
d="M2 -365l12 119q70 -14 140 -14q19 0 32 14t13 39q0 19 -12 32t-29 13h-97l37 162h158l-12 -61q34 -4 56 -11t45 -22.5t34.5 -46t11.5 -76.5q0 -84 -55.5 -128t-147.5 -44q-46 0 -92.5 6t-69.5 12z" />
    <glyph glyph-name="guillemotright" unicode="&#xbb;" horiz-adv-x="1259" 
d="M143 256l273 340l-271 338h265l258 -340l-258 -338h-267zM602 256l272 340l-270 338h264l258 -340l-258 -338h-266z" />
    <glyph glyph-name="circumflex" unicode="&#x2c6;" horiz-adv-x="731" 
d="M0 1137l229 297h273l229 -297h-225l-141 155l-142 -155h-223z" />
    <glyph glyph-name="ring" unicode="&#x2da;" horiz-adv-x="393" 
d="M0 1282q0 78 56 131t139 53q81 0 139.5 -53.5t58.5 -130.5q0 -76 -59 -129t-139 -53q-83 0 -139 52.5t-56 129.5zM127 1282q0 -28 20 -48t48 -20t47.5 20t19.5 48t-19.5 48t-47.5 20t-48 -20t-20 -48z" />
    <glyph glyph-name="tilde" unicode="&#x2dc;" horiz-adv-x="690" 
d="M0 1141q0 108 52.5 191t133.5 83q48 0 93.5 -15t73.5 -33t59 -33t53 -15q23 0 36 28.5t13 61.5h176q0 -108 -51 -190t-131 -82q-49 0 -95 14.5t-74.5 32.5t-58.5 32.5t-51 14.5q-24 0 -39 -26.5t-18 -63.5h-172z" />
    <glyph glyph-name="afii10023" unicode="&#x401;" horiz-adv-x="1234" 
d="M164 0v1434h948v-228h-711v-350h652v-225h-652v-404h732v-227h-969zM315 1585v234h234v-234h-234zM721 1585v234h233v-234h-233z" />
    <glyph glyph-name="afii10051" unicode="&#x402;" horiz-adv-x="1339" 
d="M41 1206v228h940v-228h-385v-338q150 17 238 17q181 0 290.5 -101t118.5 -249q6 -101 0 -203q-5 -71 -31.5 -133t-74 -111t-122 -77.5t-167.5 -28.5q-20 0 -58.5 3.5t-67.5 6.5l-28 4l31 221q90 -14 121 -14q70 0 110 40.5t45 98.5q6 92 0 180q-5 60 -54 101t-124 41
q-40 0 -96.5 -5t-93.5 -11l-37 -5v-643h-242v1206h-313z" />
    <glyph glyph-name="afii10052" unicode="&#x403;" horiz-adv-x="1083" 
d="M164 0v1434h878v-228h-639v-1206h-239zM442 1546l254 297h293l-315 -297h-232z" />
    <glyph glyph-name="afii10053" unicode="&#x404;" horiz-adv-x="1150" 
d="M137 461q-6 256 0 512q3 132 69 241t188 174.5t276 65.5q78 0 173.5 -13t151.5 -27l56 -13l-11 -219q-249 45 -370 45q-129 0 -207.5 -75t-81.5 -179l-2 -127h528v-228h-528q2 -104 2 -157q0 -104 78.5 -179t210.5 -75q51 0 146.5 11.5t165.5 23.5l69 12l8 -219
q-221 -55 -389 -55q-235 0 -381.5 138.5t-151.5 342.5z" />
    <glyph glyph-name="afii10054" unicode="&#x405;" horiz-adv-x="1234" 
d="M113 1047q0 104 39.5 183.5t109.5 127.5t160.5 72t198.5 24t216.5 -14t162.5 -28l55 -13l-13 -217q-212 45 -421 45q-116 0 -190.5 -43t-74.5 -131q0 -52 27 -89t72.5 -59.5t104.5 -39.5t124.5 -32.5t130.5 -34.5t124 -50t104.5 -73.5t72.5 -111t27 -157.5
q0 -426 -551 -426q-119 0 -234 15t-170 29l-55 15l12 219q240 -55 433 -55q170 0 245.5 45t75.5 141q0 54 -27 93.5t-72.5 63.5t-104.5 41.5t-124 34t-130 35.5t-124 49.5t-104.5 73t-72.5 111t-27 156.5z" />
    <glyph glyph-name="afii10055" unicode="&#x406;" horiz-adv-x="567" 
d="M164 0v1434h239v-1434h-239z" />
    <glyph glyph-name="afii10056" unicode="&#x407;" horiz-adv-x="567" 
d="M-35 1585v234h234v-234h-234zM164 0v1434h239v-1434h-239zM371 1585v234h233v-234h-233z" />
    <glyph glyph-name="afii10057" unicode="&#x408;" horiz-adv-x="679" 
d="M41 8l4 201q91 -8 154 -8q25 0 42 10t26 23.5t13.5 41t5.5 48.5t1 59v1051h239v-1104q0 -96 -23.5 -166t-65.5 -109t-93 -57t-113 -18q-34 0 -81.5 7t-77.5 14z" />
    <glyph glyph-name="afii10058" unicode="&#x409;" horiz-adv-x="1966" 
d="M31 0q10 16 27.5 45t61.5 123.5t78 195t61.5 251.5t27.5 300v519h860v-549h354q175 0 271.5 -94.5t107.5 -245.5q6 -107 0 -207q-10 -149 -107 -243.5t-272 -94.5h-594v1206h-385v-303q0 -149 -24 -297t-58.5 -252.5t-68.5 -187.5t-58 -124l-24 -42h-258zM1147 229h344
q71 0 107.5 31t39.5 80q6 104 0 207q-3 49 -38.5 79.5t-108.5 30.5h-344v-428z" />
    <glyph glyph-name="afii10059" unicode="&#x40a;" horiz-adv-x="2050" 
d="M164 0v1434h239v-578h586v578h242v-578h354q175 0 271.5 -94.5t107.5 -245.5q5 -92 0 -178q-10 -149 -107 -243.5t-272 -94.5h-596v629h-586v-629h-239zM1231 229h344q71 0 107.5 31t39.5 80q5 89 0 178q-3 49 -38.5 80t-108.5 31h-344v-400z" />
    <glyph glyph-name="afii10060" unicode="&#x40b;" horiz-adv-x="1335" 
d="M41 1206v228h940v-228h-385v-338q150 17 238 17q188 0 298.5 -101t110.5 -268v-516h-242v496q0 80 -49.5 124t-128.5 44q-40 0 -96.5 -5t-93.5 -11l-37 -5v-643h-242v1206h-313z" />
    <glyph glyph-name="afii10061" unicode="&#x40c;" horiz-adv-x="1300" 
d="M164 0v1434h237v-666l529 666h287l-558 -682l601 -752h-306l-553 719v-719h-237zM526 1546l254 297h293l-315 -297h-232z" />
    <glyph glyph-name="afii10062" unicode="&#x40e;" horiz-adv-x="1280" 
d="M61 1434h277l328 -748l315 748h268l-641 -1434h-268l197 416zM350 1839h180q0 -166 136 -166q42 0 70 13.5t41 39t17.5 51.5t4.5 62h180q0 -132 -83 -214.5t-230 -82.5q-151 0 -233.5 82t-82.5 215z" />
    <glyph glyph-name="afii10145" unicode="&#x40f;" horiz-adv-x="1394" 
d="M164 0v1434h242v-1207h585v1207h240v-1434h-412l-6 -307h-229l-6 307h-414z" />
    <glyph glyph-name="afii10017" unicode="&#x410;" horiz-adv-x="1292" 
d="M41 0l451 1434h307l452 -1434h-254l-114 373h-475l-115 -373h-252zM475 596h340l-168 573z" />
    <glyph glyph-name="afii10018" unicode="&#x411;" horiz-adv-x="1241" 
d="M164 0v1434h874v-232h-635v-317h345q177 0 276.5 -95t110.5 -245q6 -107 0 -207q-9 -148 -109.5 -243t-277.5 -95h-584zM403 229h349q69 0 102.5 30.5t36.5 80.5q6 102 0 207q-7 110 -139 110h-349v-428z" />
    <glyph glyph-name="afii10019" unicode="&#x412;" horiz-adv-x="1243" 
d="M164 0v1434h532q209 0 314.5 -104.5t105.5 -291.5q0 -56 -15.5 -106t-38 -82t-44.5 -55.5t-38 -34.5l-15 -10q7 -3 19 -10t42.5 -34t53.5 -60.5t42 -92t19 -125.5q0 -210 -116.5 -319t-369.5 -109h-491zM401 227h263q134 0 184.5 47.5t50.5 153.5q0 203 -205 203h-293
v-404zM401 856h293q85 0 136 46t51 132q0 79 -41.5 125.5t-120.5 46.5h-318v-350z" />
    <glyph glyph-name="afii10020" unicode="&#x413;" horiz-adv-x="1083" 
d="M164 0v1434h878v-228h-639v-1206h-239z" />
    <glyph glyph-name="afii10021" unicode="&#x414;" horiz-adv-x="1337" 
d="M41 227h117q5 10 14 29.5t32 84.5t40.5 136t32 180t14.5 220v557h860v-1207h125v-534h-229l-13 307h-751l-9 -307h-233v534zM414 227h493v979h-383v-348q0 -108 -11.5 -212.5t-27.5 -177t-32 -129.5t-27 -85z" />
    <glyph glyph-name="afii10022" unicode="&#x415;" horiz-adv-x="1234" 
d="M164 0v1434h948v-228h-711v-350h652v-225h-652v-404h732v-227h-969z" />
    <glyph glyph-name="afii10024" unicode="&#x416;" horiz-adv-x="1796" 
d="M41 0l469 750l-453 684h289l432 -666v666h240v-666l432 666h291l-455 -684l469 -750h-291l-446 729v-729h-240v729l-446 -729h-291z" />
    <glyph glyph-name="afii10025" unicode="&#x417;" horiz-adv-x="1105" 
d="M92 33l8 225q209 -55 367 -55q291 0 291 225q0 229 -254 229h-103v215h103q95 0 158 52t63 149q0 160 -231 160q-68 0 -159.5 -13.5t-149.5 -27.5l-58 -14l-12 217q25 7 66 16.5t146 26t183 16.5q219 0 338 -101.5t119 -273.5q0 -199 -140 -305q84 -45 130.5 -134
t46.5 -214q0 -206 -137.5 -326t-377.5 -120q-101 0 -200 13t-148 27z" />
    <glyph glyph-name="afii10026" unicode="&#x418;" horiz-adv-x="1400" 
d="M164 0v1434h237v-902l-14 -188l78 182l504 908h268v-1434h-238v895l15 195l-78 -183l-504 -907h-268z" />
    <glyph glyph-name="afii10027" unicode="&#x419;" horiz-adv-x="1400" 
d="M164 0v1434h237v-902l-14 -188l78 182l504 908h268v-1434h-238v895l15 195l-78 -183l-504 -907h-268zM389 1839h180q0 -166 136 -166q42 0 70 13.5t41 39t17.5 51.5t4.5 62h180q0 -132 -83 -214.5t-230 -82.5q-151 0 -233.5 82t-82.5 215z" />
    <glyph glyph-name="afii10028" unicode="&#x41a;" horiz-adv-x="1300" 
d="M164 0v1434h237v-666l529 666h287l-558 -682l601 -752h-306l-553 719v-719h-237z" />
    <glyph glyph-name="afii10029" unicode="&#x41b;" horiz-adv-x="1343" 
d="M31 0q10 16 27.5 45t61.5 123.5t78 195t61.5 251.5t27.5 300v519h893v-1434h-240v1206h-418v-303q0 -149 -24 -297t-58.5 -252.5t-68.5 -187.5t-58 -124l-24 -42h-258z" />
    <glyph glyph-name="afii10030" unicode="&#x41c;" horiz-adv-x="1617" 
d="M164 0v1434h274l371 -660l371 660h274v-1434h-240v973l15 143l-64 -153l-247 -412h-218l-245 407l-66 158l14 -149v-967h-239z" />
    <glyph glyph-name="afii10031" unicode="&#x41d;" horiz-adv-x="1394" 
d="M164 0v1434h239v-578h586v578h242v-1434h-242v629h-586v-629h-239z" />
    <glyph glyph-name="afii10032" unicode="&#x41e;" horiz-adv-x="1376" 
d="M137 461q-6 256 0 512q5 201 161 341t390 140q235 0 390.5 -139.5t160.5 -341.5q6 -256 0 -512q-5 -201 -161.5 -341t-389.5 -140q-237 0 -391.5 139.5t-159.5 341.5zM377 459q3 -103 90 -180.5t221 -77.5q132 0 220 77t91 181q6 257 0 516q-3 103 -91 180.5t-220 77.5
t-220 -77.5t-91 -180.5q-6 -259 0 -516z" />
    <glyph glyph-name="afii10033" unicode="&#x41f;" horiz-adv-x="1394" 
d="M164 0v1434h1067v-1434h-242v1206h-586v-1206h-239z" />
    <glyph glyph-name="afii10034" unicode="&#x420;" horiz-adv-x="1218" 
d="M164 0v1434h581q178 0 279 -95.5t109 -244.5q6 -140 0 -283q-8 -149 -109 -244.5t-279 -95.5h-342v-471h-239zM403 696h347q71 0 104 31.5t35 81.5q6 144 0 285q-2 50 -36 81t-103 31h-347v-510z" />
    <glyph glyph-name="afii10035" unicode="&#x421;" horiz-adv-x="1150" 
d="M137 461q-6 256 0 512q3 132 69 241t188 174.5t276 65.5q78 0 173.5 -13t151.5 -27l56 -13l-11 -219q-249 45 -370 45q-129 0 -207.5 -75t-81.5 -179q-9 -257 0 -512q5 -105 81.5 -179.5t207.5 -74.5q51 0 146.5 11.5t165.5 23.5l69 12l8 -219q-221 -55 -389 -55
q-235 0 -381.5 138.5t-151.5 342.5z" />
    <glyph glyph-name="afii10036" unicode="&#x422;" horiz-adv-x="1081" 
d="M41 1206v228h999v-228h-381v-1206h-239v1206h-379z" />
    <glyph glyph-name="afii10037" unicode="&#x423;" horiz-adv-x="1280" 
d="M61 1434h277l328 -748l315 748h268l-641 -1434h-268l197 416z" />
    <glyph glyph-name="afii10038" unicode="&#x424;" horiz-adv-x="1527" 
d="M117 575q-7 149 0 306q5 119 76.5 220.5t191.5 162t260 65.5v123h240v-123q212 -9 364.5 -138.5t161.5 -309.5q7 -157 0 -306q-9 -189 -157.5 -315.5t-368.5 -134.5v-143h-240v143q-221 7 -369 134t-159 316zM358 580q8 -91 89 -155.5t198 -70.5v746q-117 -1 -199 -65
t-88 -158q-11 -152 0 -297zM885 354q116 4 196 69t88 157q11 145 0 297q-6 94 -86 158t-198 65v-746z" />
    <glyph glyph-name="afii10039" unicode="&#x425;" horiz-adv-x="1337" 
d="M41 0l485 735l-454 699h280l318 -498l317 498h279l-453 -699l483 -735h-280l-346 541l-348 -541h-281z" />
    <glyph glyph-name="afii10040" unicode="&#x426;" horiz-adv-x="1437" 
d="M164 0v1434h242v-1207h585v1207h240v-1207h125v-534h-230l-12 307h-950z" />
    <glyph glyph-name="afii10041" unicode="&#x427;" horiz-adv-x="1222" 
d="M82 852v582h242v-588q0 -64 37 -106t108 -42q74 0 161 9t137 19l50 9v699h242v-1434h-242v508q-170 -37 -356 -37q-185 0 -282 102.5t-97 278.5z" />
    <glyph glyph-name="afii10042" unicode="&#x428;" horiz-adv-x="1789" 
d="M164 0v1434h239v-1207h371v1207h242v-1207h370v1207h240v-1434h-1462z" />
    <glyph glyph-name="afii10043" unicode="&#x429;" horiz-adv-x="1832" 
d="M164 0v1434h239v-1207h371v1207h242v-1207h370v1207h240v-1207h125v-534h-229l-13 307h-1345z" />
    <glyph glyph-name="afii10044" unicode="&#x42a;" horiz-adv-x="1372" 
d="M41 1217v217h512v-549h354q175 0 271.5 -94.5t107.5 -245.5q6 -107 0 -207q-10 -149 -107 -243.5t-272 -94.5h-594v1206zM553 229h344q71 0 107.5 31t39.5 80q6 104 0 207q-3 49 -38.5 79.5t-108.5 30.5h-344v-428z" />
    <glyph glyph-name="afii10045" unicode="&#x42b;" horiz-adv-x="1716" 
d="M164 0v1434h239v-549h355q175 0 271.5 -94.5t107.5 -245.5q6 -107 0 -207q-10 -149 -107 -243.5t-272 -94.5h-594zM403 229h345q71 0 107.5 31t39.5 80q6 104 0 207q-3 49 -38.5 79.5t-108.5 30.5h-345v-428zM1313 0v1434h239v-1434h-239z" />
    <glyph glyph-name="afii10046" unicode="&#x42c;" horiz-adv-x="1222" 
d="M164 0v1434h239v-549h355q175 0 271.5 -94.5t107.5 -245.5q6 -107 0 -207q-10 -149 -107 -243.5t-272 -94.5h-594zM403 229h345q71 0 107.5 31t39.5 80q6 104 0 207q-3 49 -38.5 79.5t-108.5 30.5h-345v-428z" />
    <glyph glyph-name="afii10047" unicode="&#x42d;" horiz-adv-x="1150" 
d="M92 35l8 219q266 -47 381 -47q132 0 210.5 75t78.5 179l2 157h-528v228h528q-2 84 -2 127q-3 104 -81.5 179t-207.5 75q-54 0 -146.5 -11.5t-158.5 -22.5l-65 -11l-11 219q205 53 381 53q154 0 276 -65.5t188 -174.5t69 -241q6 -256 0 -512q-5 -204 -151.5 -342.5
t-381.5 -138.5q-75 0 -172 14t-157 28z" />
    <glyph glyph-name="afii10048" unicode="&#x42e;" horiz-adv-x="1814" 
d="M164 0v1434h239v-578h205q0 41 4 119q4 97 44 184t108.5 152t168 103t214.5 38q117 0 216 -38t166.5 -102.5t106.5 -152t41 -186.5q6 -256 0 -512q-5 -203 -152 -341t-378 -138q-236 0 -383 138t-152 341q-4 132 -4 168h-205v-629h-239zM854 459q3 -105 82 -180.5
t211 -75.5q129 0 206.5 75t80.5 181q6 257 0 516q-3 105 -80 180.5t-207 75.5q-129 0 -209.5 -76t-83.5 -180q-6 -259 0 -516z" />
    <glyph glyph-name="afii10049" unicode="&#x42f;" horiz-adv-x="1292" 
d="M82 0l293 524q-4 1 -11.5 4.5t-29 15.5t-41 26.5t-44 41t-42.5 57t-31.5 74.5t-15.5 93q-6 129 0 258q8 150 108 245t277 95h583v-1434h-239v494h-264l-260 -494h-283zM401 834q4 -111 140 -111h348v483h-348q-133 0 -140 -110q-6 -131 0 -262z" />
    <glyph glyph-name="afii10065" unicode="&#x430;" horiz-adv-x="1032" 
d="M102 315q0 70 19.5 131t58 108.5t101.5 75t143 27.5h252v29q0 63 -41 106.5t-123 43.5q-79 0 -162.5 -10t-127.5 -20l-44 -11l-22 204q188 45 368 45q178 0 276.5 -98.5t98.5 -247.5v-698h-203l-10 74q-5 -4 -15 -10t-39.5 -22.5t-59 -29t-70.5 -22.5t-78 -10
q-151 0 -236.5 92t-85.5 243zM326 317q0 -129 104 -129q46 0 107.5 28t100.5 56l38 27v150h-244q-106 0 -106 -132z" />
    <glyph glyph-name="afii10066" unicode="&#x431;" horiz-adv-x="1097" 
d="M123 627q0 142 15.5 254t53.5 209t98.5 163t153 107.5t215.5 52.5q61 5 120 17.5t87 21.5l29 10v-215q-77 -35 -188 -47q-146 -16 -237 -79.5t-126 -200.5q3 4 9.5 10t29 22t47.5 28t64.5 22t80.5 10q163 0 277 -100t119 -242q5 -174 0 -346q-5 -144 -121 -244t-289 -100
q-81 0 -147 20t-111 53.5t-78.5 80.5t-51.5 95.5t-28 104.5q-22 125 -22 293zM346 389q6 -89 56 -142.5t145 -53.5q87 0 142.5 44.5t58.5 120.5q7 165 0 289q-3 68 -57.5 112t-141.5 44t-140.5 -44t-60.5 -126q-12 -124 -2 -244z" />
    <glyph glyph-name="afii10067" unicode="&#x432;" horiz-adv-x="1058" 
d="M143 0v1024h461q156 0 239 -73.5t83 -207.5q0 -39 -9 -74.5t-21.5 -58t-25 -39t-21.5 -23.5l-9 -7q4 -3 11.5 -8t25.5 -24.5t32 -43t25.5 -64t11.5 -86.5q0 -315 -368 -315h-435zM362 205h213q83 0 116.5 25.5t33.5 86.5q0 117 -131 117h-232v-229zM362 629h232
q115 0 115 102q0 84 -101 84h-246v-186z" />
    <glyph glyph-name="afii10068" unicode="&#x433;" horiz-adv-x="851" 
d="M143 0v1024h668v-211h-442v-813h-226z" />
    <glyph glyph-name="afii10069" unicode="&#x434;" horiz-adv-x="1103" 
d="M41 205h90q4 6 10 18t21.5 51.5t27.5 82t21.5 109t9.5 134.5v424h713v-819h88v-418h-211l-12 213h-535l-10 -213h-213v418zM367 205h344v610h-271v-227q0 -67 -7.5 -131t-18 -107.5t-21.5 -77.5t-19 -50z" />
    <glyph glyph-name="afii10070" unicode="&#x435;" horiz-adv-x="1030" 
d="M127 324q-6 172 0 376q5 145 113 244.5t282 99.5q171 0 279 -96.5t114 -240.5q2 -41 2 -111.5t-1 -121.5l-1 -50h-567q0 -59 2 -84q5 -62 50.5 -106t119.5 -44q81 0 167 11.5t131 22.5l46 12l29 -199q-17 -6 -48.5 -15.5t-128.5 -25.5t-194 -16q-181 0 -285 97.5
t-110 246.5zM348 621h344q-2 49 -2 63q-2 61 -49 105.5t-115 44.5q-79 0 -126 -43t-50 -107z" />
    <glyph glyph-name="afii10072" unicode="&#x436;" horiz-adv-x="1458" 
d="M20 0l357 539l-342 485h268l315 -463v463h224v-465l317 465h266l-342 -485l355 -539h-269l-327 510v-510h-224v510l-327 -510h-271z" />
    <glyph glyph-name="afii10073" unicode="&#x437;" horiz-adv-x="907" 
d="M61 33l27 207q15 -6 41.5 -15t101 -24t138.5 -15q110 0 156 30t46 91q0 129 -180 129h-94v201h94q70 0 112 27.5t42 83.5q0 90 -156 90q-64 0 -136.5 -13t-112.5 -26l-40 -13l-20 207q18 6 48.5 14.5t117 22.5t162.5 14q176 0 266 -77t90 -213q0 -41 -9 -77.5t-22 -59
t-26 -39.5t-22 -24l-9 -7q5 -3 13 -8.5t28.5 -27t36 -47t28.5 -68.5t13 -91q0 -162 -104 -243.5t-302 -81.5q-84 0 -166 13t-122 27z" />
    <glyph glyph-name="afii10074" unicode="&#x438;" horiz-adv-x="1148" 
d="M143 0v1024h226v-586l-7 -102l41 98l371 590h232v-1024h-226v582l6 102l-36 -94l-375 -590h-232z" />
    <glyph glyph-name="afii10075" unicode="&#x439;" horiz-adv-x="1148" 
d="M143 0v1024h226v-586l-7 -102l41 98l371 590h232v-1024h-226v582l6 102l-36 -94l-375 -590h-232zM258 1430h180q0 -75 29 -120.5t106 -45.5q42 0 70 13.5t41 39t18 51.5t5 62h180q0 -132 -83.5 -214.5t-230.5 -82.5q-151 0 -233 82t-82 215z" />
    <glyph glyph-name="afii10076" unicode="&#x43a;" horiz-adv-x="1056" 
d="M143 0v1024h224v-453l370 453h269l-412 -483l442 -541h-274l-395 504v-504h-224z" />
    <glyph glyph-name="afii10077" unicode="&#x43b;" horiz-adv-x="1103" 
d="M20 0q8 11 22.5 31.5t50.5 87.5t63.5 138t50 177.5t22.5 210.5v379h732v-1024h-224v815h-291v-180q0 -109 -19 -214.5t-46 -178t-54 -130t-46 -84.5l-19 -28h-242z" />
    <glyph glyph-name="afii10078" unicode="&#x43c;" horiz-adv-x="1318" 
d="M143 0v1024h228l288 -420l289 420h228v-1024h-222v582l7 90l-54 -90l-155 -209h-185l-155 209l-54 90l7 -90v-582h-222z" />
    <glyph glyph-name="afii10079" unicode="&#x43d;" horiz-adv-x="1142" 
d="M143 0v1024h224v-385h409v385h223v-1024h-223v428h-409v-428h-224z" />
    <glyph glyph-name="afii10080" unicode="&#x43e;" horiz-adv-x="1071" 
d="M127 324q-6 186 0 376q5 147 112.5 245.5t297.5 98.5q188 0 295 -98.5t112 -245.5q6 -190 0 -376q-5 -150 -111.5 -247t-295.5 -97q-190 0 -297.5 97t-112.5 247zM352 336q2 -63 51 -104.5t134 -41.5q83 0 131.5 42.5t50.5 103.5q6 176 0 352q-2 63 -50.5 104.5
t-133.5 41.5q-83 0 -132 -41.5t-51 -104.5q-6 -178 0 -352z" />
    <glyph glyph-name="afii10081" unicode="&#x43f;" horiz-adv-x="1142" 
d="M143 0v1024h856v-1024h-223v813h-409v-813h-224z" />
    <glyph glyph-name="afii10082" unicode="&#x440;" horiz-adv-x="1085" 
d="M143 -369v1393h205l8 -57q16 9 43.5 21.5t94 34t112.5 21.5q168 0 257.5 -93.5t94.5 -243.5q6 -186 0 -375q-5 -151 -105 -248.5t-286 -97.5q-39 0 -88.5 9t-79.5 19l-30 9v-392h-226zM369 227q81 -32 198 -32q77 0 120.5 44.5t45.5 106.5q6 173 0 346q-2 60 -36 101
t-95 41q-37 0 -95.5 -20.5t-98.5 -41.5l-39 -20v-525z" />
    <glyph glyph-name="afii10083" unicode="&#x441;" horiz-adv-x="901" 
d="M127 322q-6 188 0 380q5 147 109 244.5t284 97.5q70 0 146 -7t116 -14l41 -7l-20 -211q-156 29 -285 29q-71 0 -117.5 -43t-48.5 -101q-6 -180 0 -356q2 -58 48 -102t118 -44q69 0 142.5 10t111.5 20l39 9l29 -209q-156 -41 -322 -41q-180 0 -283 98t-108 247z" />
    <glyph glyph-name="afii10084" unicode="&#x442;" horiz-adv-x="884" 
d="M31 813v211h823v-211h-301v-813h-223v813h-299z" />
    <glyph glyph-name="afii10085" unicode="&#x443;" horiz-adv-x="1054" 
d="M31 1024h233l252 -748h10l271 748h227l-535 -1393h-227l164 410l-57 20z" />
    <glyph glyph-name="afii10086" unicode="&#x444;" horiz-adv-x="1503" 
d="M127 344q-6 167 0 336q5 147 111.5 245.5t287.5 98.5l115 -6v416h221v-416q78 6 115 6q181 0 287.5 -98.5t111.5 -245.5q6 -168 0 -336q-5 -150 -110 -247t-287 -97l-117 6v-375h-221v375q-76 -6 -117 -6q-182 0 -287 97t-110 247zM350 354q2 -57 51.5 -100t122.5 -43
l117 6v590q-82 6 -117 6q-73 0 -122.5 -42.5t-51.5 -100.5q-5 -158 0 -316zM862 217q76 -6 117 -6q73 0 122 42.5t52 100.5q8 157 0 316q-3 57 -53 100t-121 43l-117 -6v-590z" />
    <glyph glyph-name="afii10087" unicode="&#x445;" horiz-adv-x="1028" 
d="M41 0l350 530l-328 494h259l192 -305l193 305h258l-328 -494l350 -530h-258l-215 336l-215 -336h-258z" />
    <glyph glyph-name="afii10088" unicode="&#x446;" horiz-adv-x="1148" 
d="M143 0v1024h224v-815h409v815h223v-815h88v-420h-210l-11 211h-723z" />
    <glyph glyph-name="afii10089" unicode="&#x447;" horiz-adv-x="1044" 
d="M102 610v414h226v-410q0 -94 98 -94q49 0 112 8t102 16l38 7v473h223v-1024h-223v348q-143 -35 -266 -35q-145 0 -227.5 80.5t-82.5 216.5z" />
    <glyph glyph-name="afii10090" unicode="&#x448;" horiz-adv-x="1445" 
d="M143 0v1024h224v-815h245v815h222v-815h245v815h224v-1024h-1160z" />
    <glyph glyph-name="afii10091" unicode="&#x449;" horiz-adv-x="1452" 
d="M143 0v1024h224v-815h245v815h222v-815h245v815h224v-815h88v-420h-211l-11 211h-1026z" />
    <glyph glyph-name="afii10092" unicode="&#x44a;" horiz-adv-x="1093" 
d="M20 821v203h424v-377h246q143 0 225 -68t93 -176q8 -78 0 -161q-11 -108 -92.5 -175t-225.5 -67h-467v817zM444 205h242q43 0 69 18t29 43q6 58 0 113q-3 25 -27.5 42t-70.5 17h-242v-233z" />
    <glyph glyph-name="afii10093" unicode="&#x44b;" horiz-adv-x="1435" 
d="M143 0v1024h222v-377h245q143 0 225 -68t93 -176q8 -78 0 -161q-11 -108 -92.5 -175t-225.5 -67h-467zM365 205h241q43 0 69.5 18t29.5 43q6 58 0 113q-3 24 -28 41.5t-71 17.5h-241v-233zM1069 0v1024h223v-1024h-223z" />
    <glyph glyph-name="afii10094" unicode="&#x44c;" horiz-adv-x="1013" 
d="M143 0v1024h222v-377h245q143 0 225 -68t93 -176q8 -78 0 -161q-11 -108 -92.5 -175t-225.5 -67h-467zM365 205h241q43 0 69.5 18t29.5 43q6 58 0 113q-3 24 -28 41.5t-71 17.5h-241v-233z" />
    <glyph glyph-name="afii10095" unicode="&#x44d;" horiz-adv-x="901" 
d="M61 18l29 209q137 -39 293 -39q72 0 118 44t48 102q0 11 1 33t1 34h-375v211h375q0 14 -1 39t-1 39q-2 58 -48.5 101t-117.5 43q-57 0 -128.5 -7t-114.5 -15l-42 -7l-20 211q145 28 303 28q180 0 284 -97.5t109 -244.5q6 -192 0 -380q-5 -149 -108 -247t-283 -98
q-74 0 -154.5 10.5t-124.5 20.5z" />
    <glyph glyph-name="afii10096" unicode="&#x44e;" horiz-adv-x="1466" 
d="M143 0v1024h224v-397h153q2 44 2 69q5 150 112.5 249t297.5 99q100 0 177 -27.5t125 -76.5t74 -110t31 -134q3 -44 3 -184.5t-3 -189.5q-10 -149 -113 -245.5t-294 -96.5q-190 0 -297.5 97.5t-112.5 244.5l-2 96h-153v-418h-224zM742 510q0 -126 3 -170
q5 -65 51.5 -108.5t135.5 -43.5t134 42.5t50 107.5q3 46 3 172.5t-3 173.5q-5 66 -49.5 108t-134.5 42q-88 0 -135 -43.5t-52 -108.5q-3 -46 -3 -172z" />
    <glyph glyph-name="afii10097" unicode="&#x44f;" horiz-adv-x="1083" 
d="M72 0l231 371q-138 66 -156 213q-3 23 -3 100t3 102q13 109 92.5 173.5t223.5 64.5h477v-1024h-221v338h-193l-202 -338h-252zM370 681q0 -48 3 -73q4 -25 26.5 -43t67.5 -18h252v272h-252q-45 0 -67.5 -19t-26.5 -46q-3 -25 -3 -73z" />
    <glyph glyph-name="afii10071" unicode="&#x451;" horiz-adv-x="1030" 
d="M127 324q-6 172 0 376q5 145 113 244.5t282 99.5q171 0 279 -96.5t114 -240.5q2 -41 2 -111.5t-1 -121.5l-1 -50h-567q0 -59 2 -84q5 -62 50.5 -106t119.5 -44q81 0 167 11.5t131 22.5l46 12l29 -199q-17 -6 -48.5 -15.5t-128.5 -25.5t-194 -16q-181 0 -285 97.5
t-110 246.5zM199 1176v233h233v-233h-233zM348 621h344q-2 49 -2 63q-2 61 -49 105.5t-115 44.5q-79 0 -126 -43t-50 -107zM604 1176v233h234v-233h-234z" />
    <glyph glyph-name="afii10099" unicode="&#x452;" horiz-adv-x="1091" 
d="M41 1149v180h102v105h226v-105h219v-180h-219v-197q14 8 38.5 19.5t89.5 31t119 19.5q167 0 254.5 -95.5t87.5 -244.5v-772q0 -134 -80.5 -216.5t-220.5 -82.5q-36 0 -80 5.5t-70 11.5l-26 5l21 199q67 -12 153 -12q34 0 56 25t22 77v748q0 61 -31 102t-94 41
q-41 0 -100.5 -18.5t-99.5 -36.5l-39 -19v-739h-226v1149h-102z" />
    <glyph glyph-name="afii10100" unicode="&#x453;" horiz-adv-x="851" 
d="M143 0v1024h668v-211h-442v-813h-226zM330 1137l254 297h293l-316 -297h-231z" />
    <glyph glyph-name="afii10101" unicode="&#x454;" horiz-adv-x="901" 
d="M127 322q-6 188 0 380q5 147 109 244.5t284 97.5q70 0 146 -7t116 -14l41 -7l-20 -211q-156 29 -285 29q-71 0 -117.5 -43t-48.5 -101q0 -14 -1 -39t-1 -39h375v-211h-375q0 -12 1 -34t1 -33q2 -58 48 -102t118 -44q69 0 142.5 10t111.5 20l39 9l29 -209
q-156 -41 -322 -41q-180 0 -283 98t-108 247z" />
    <glyph glyph-name="afii10102" unicode="&#x455;" horiz-adv-x="964" 
d="M113 735q0 155 100 232t268 77q71 0 152.5 -10.5t127.5 -21.5l46 -11l-25 -204q-182 37 -301 37q-143 0 -143 -95q0 -33 29 -56t75 -37t102 -27.5t112 -36t102 -55t75 -90.5t29 -136q0 -321 -397 -321q-84 0 -170.5 13t-130.5 27l-45 13l28 203q167 -46 308 -46
q98 0 139 24.5t41 78.5q0 36 -29 59.5t-75 37.5t-101.5 27.5t-111 35t-101.5 53.5t-75 90.5t-29 138.5z" />
    <glyph glyph-name="afii10103" unicode="&#x456;" horiz-adv-x="520" 
d="M143 1200v234h234v-234h-234zM147 0v1024h226v-1024h-226z" />
    <glyph glyph-name="afii10104" unicode="&#x457;" horiz-adv-x="520" 
d="M-59 1200v234h233v-234h-233zM147 0v1024h226v-1024h-226zM346 1200v234h234v-234h-234z" />
    <glyph glyph-name="afii10105" unicode="&#x458;" horiz-adv-x="524" 
d="M-100 -367l20 199q68 -12 154 -12q34 0 56 25t22 77v1102h225v-1114q0 -134 -80.5 -216.5t-220.5 -82.5q-36 0 -80 5.5t-70 11.5zM147 1200v234h234v-234h-234z" />
    <glyph glyph-name="afii10106" unicode="&#x459;" horiz-adv-x="1597" 
d="M20 0q8 11 22.5 31.5t50.5 87.5t63.5 138t50 177.5t22.5 210.5v379h719v-377h246q143 0 224.5 -68t92.5 -176q8 -78 0 -161q-11 -108 -92.5 -175t-224.5 -67h-469v815h-279v-180q0 -109 -19 -214.5t-46 -178t-54 -130t-46 -84.5l-19 -28h-242zM948 205h242q43 0 69 18
t29 43q6 58 0 113q-3 25 -27.5 42t-70.5 17h-242v-233z" />
    <glyph glyph-name="afii10107" unicode="&#x45a;" horiz-adv-x="1648" 
d="M143 0v1024h224v-385h409v385h223v-385h246q143 0 225 -68t93 -176q8 -74 0 -153q-11 -108 -92.5 -175t-225.5 -67h-469v428h-409v-428h-224zM999 205h242q43 0 69 18t29 43q6 54 0 105q-3 25 -27.5 42t-70.5 17h-242v-225z" />
    <glyph glyph-name="afii10108" unicode="&#x45b;" horiz-adv-x="1091" 
d="M41 1149v180h102v105h226v-105h219v-180h-219v-197q14 8 38.5 19.5t89.5 31t119 19.5q167 0 254.5 -95.5t87.5 -244.5v-682h-225v670q0 61 -31 102t-94 41q-41 0 -100.5 -18.5t-99.5 -36.5l-39 -19v-739h-226v1149h-102z" />
    <glyph glyph-name="afii10109" unicode="&#x45c;" horiz-adv-x="1056" 
d="M143 0v1024h224v-453l370 453h269l-412 -483l442 -541h-274l-395 504v-504h-224zM422 1137l254 297h293l-316 -297h-231z" />
    <glyph glyph-name="afii10110" unicode="&#x45e;" horiz-adv-x="1054" 
d="M31 1024h233l252 -748h10l271 748h227l-535 -1393h-227l164 410l-57 20zM213 1430h180q0 -75 29 -120.5t106 -45.5q42 0 70 13.5t41 39t18 51.5t5 62h180q0 -132 -83.5 -214.5t-230.5 -82.5q-151 0 -233 82t-82 215z" />
    <glyph glyph-name="afii10193" unicode="&#x45f;" horiz-adv-x="1140" 
d="M143 0v1024h224v-815h407v815h223v-1024h-313l-6 -211h-213l-6 211h-316z" />
    <glyph glyph-name="afii10146" unicode="&#x462;" horiz-adv-x="1372" 
d="M41 1217v217h922v-228h-410v-321h354q175 0 271.5 -94.5t107.5 -245.5q6 -107 0 -207q-10 -149 -107 -243.5t-272 -94.5h-594v1206zM553 229h344q71 0 107.5 31t39.5 80q6 104 0 207q-3 49 -38.5 79.5t-108.5 30.5h-344v-428z" />
    <glyph glyph-name="afii10194" unicode="&#x463;" horiz-adv-x="1013" 
d="M41 1026v180h102v228h222v-228h223v-180h-223v-379h245q143 0 225 -68t93 -176q8 -78 0 -161q-11 -108 -92.5 -175t-225.5 -67h-467v1026h-102zM365 205h241q43 0 69.5 18t29.5 43q6 58 0 113q-3 24 -28 41.5t-71 17.5h-241v-233z" />
    <glyph glyph-name="afii10147" unicode="&#x472;" horiz-adv-x="1376" 
d="M137 461q-6 256 0 512q5 201 161 341t390 140q235 0 390.5 -139.5t160.5 -341.5q6 -256 0 -512q-5 -201 -161.5 -341t-389.5 -140q-237 0 -391.5 139.5t-159.5 341.5zM373 827q8 7 23 17.5t55 28.5t75 18q54 0 102 -18.5t77 -41t68 -41t77 -18.5q24 0 48 11t41.5 26
t32 30.5t22.5 26.5l7 11q-2 71 -2 98q-3 103 -91 180.5t-220 77.5t-220 -77.5t-91 -180.5zM375 567q0 -79 2 -108q3 -103 90 -180.5t221 -77.5q132 0 220 77t91 181l2 159q-8 -7 -22.5 -17.5t-54 -28t-74.5 -17.5q-54 0 -102 18.5t-77 41t-68 41t-77 18.5t-76 -27t-56 -53z
" />
    <glyph glyph-name="afii10195" unicode="&#x473;" horiz-adv-x="1071" 
d="M127 324q-6 186 0 376q5 147 112.5 245.5t297.5 98.5q188 0 295 -98.5t112 -245.5q6 -190 0 -376q-5 -150 -111.5 -247t-295.5 -97q-190 0 -297.5 97t-112.5 247zM350 387q0 -37 2 -51q8 -64 55 -105t130 -41t130 41.5t52 104.5l2 67q-31 -22 -88 -22q-34 0 -95 32.5
t-94 32.5q-29 0 -52.5 -15t-32.5 -29zM350 621q31 22 88 22q34 0 95 -32.5t94 -32.5q29 0 52.5 15t32.5 29l9 15q0 37 -2 51q-5 64 -52.5 105t-131.5 41q-83 0 -130.5 -41.5t-52.5 -104.5z" />
    <glyph glyph-name="afii10148" unicode="&#x474;" horiz-adv-x="1265" 
d="M41 1434h250l346 -1164l207 889q33 143 105 218t210 75q39 0 79.5 -7t61.5 -15l21 -7l-14 -219q-84 21 -150 21q-30 0 -47 -23t-31 -76l-295 -1126h-305z" />
    <glyph glyph-name="afii10196" unicode="&#x475;" horiz-adv-x="970" 
d="M31 1024h235l223 -786l140 589q25 104 85.5 159.5t174.5 55.5q32 0 65 -6t50 -12l18 -6l-21 -197q-63 21 -100 21q-22 0 -33.5 -11.5t-19.5 -39.5l-217 -791h-287z" />
    <glyph glyph-name="afii10050" unicode="&#x490;" horiz-adv-x="1083" 
d="M164 0v1434h647l10 309h221v-537h-639v-1206h-239z" />
    <glyph glyph-name="afii10098" unicode="&#x491;" horiz-adv-x="851" 
d="M143 0v1024h443l8 213h217v-424h-442v-813h-226z" />
    <glyph glyph-name="afii10846" unicode="&#x4d9;" horiz-adv-x="1030" 
d="M113 428.5q0 70.5 1 121.5l1 50h567q0 59 -2 84q-5 62 -50.5 106t-119.5 44q-81 0 -167 -11.5t-131 -22.5l-46 -12l-29 199q17 6 48.5 15.5t128.5 25.5t194 16q181 0 285 -97.5t110 -246.5q6 -172 0 -376q-5 -145 -113 -244.5t-282 -99.5q-171 0 -279 96.5t-114 240.5
q-2 41 -2 111.5zM338 403q2 -49 2 -63q2 -61 49 -105.5t115 -44.5q79 0 126 43t50 107l2 63h-344z" />
    <glyph glyph-name="uni2000" unicode="&#x2000;" horiz-adv-x="921" 
 />
    <glyph glyph-name="uni2001" unicode="&#x2001;" horiz-adv-x="1843" 
 />
    <glyph glyph-name="uni2002" unicode="&#x2002;" horiz-adv-x="921" 
 />
    <glyph glyph-name="uni2003" unicode="&#x2003;" horiz-adv-x="1843" 
 />
    <glyph glyph-name="uni2004" unicode="&#x2004;" horiz-adv-x="614" 
 />
    <glyph glyph-name="uni2005" unicode="&#x2005;" horiz-adv-x="460" 
 />
    <glyph glyph-name="uni2006" unicode="&#x2006;" horiz-adv-x="307" 
 />
    <glyph glyph-name="uni2007" unicode="&#x2007;" horiz-adv-x="307" 
 />
    <glyph glyph-name="uni2008" unicode="&#x2008;" horiz-adv-x="230" 
 />
    <glyph glyph-name="uni2009" unicode="&#x2009;" horiz-adv-x="368" 
 />
    <glyph glyph-name="uni200A" unicode="&#x200a;" horiz-adv-x="102" 
 />
    <glyph glyph-name="uni2010" unicode="&#x2010;" horiz-adv-x="833" 
d="M143 483v219h547v-219h-547z" />
    <glyph glyph-name="uni2011" unicode="&#x2011;" horiz-adv-x="833" 
d="M143 483v219h547v-219h-547z" />
    <glyph glyph-name="figuredash" unicode="&#x2012;" horiz-adv-x="833" 
d="M143 483v219h547v-219h-547z" />
    <glyph glyph-name="endash" unicode="&#x2013;" horiz-adv-x="841" 
d="M0 483v219h842v-219h-842z" />
    <glyph glyph-name="emdash" unicode="&#x2014;" horiz-adv-x="1683" 
d="M0 483v219h1683v-219h-1683z" />
    <glyph glyph-name="quoteleft" unicode="&#x2018;" horiz-adv-x="419" 
d="M61 956v181q0 75 15.5 132.5t40 92t59 56.5t68.5 30t73 8v-123q-106 0 -106 -143h84v-234h-234z" />
    <glyph glyph-name="quoteright" unicode="&#x2019;" horiz-adv-x="421" 
d="M104 934v123q107 0 107 143h-84v234h233v-181q0 -75 -15.5 -132.5t-40 -92t-59 -56.5t-68.5 -30t-73 -8z" />
    <glyph glyph-name="quotesinglbase" unicode="&#x201a;" horiz-adv-x="481" 
d="M92 -143q107 0 107 143h-84v233h233v-180q0 -75 -15.5 -132.5t-40 -92t-59 -56.5t-68.5 -30t-73 -8v123z" />
    <glyph glyph-name="quotedblleft" unicode="&#x201c;" horiz-adv-x="790" 
d="M61 956v181q0 75 15.5 132.5t40 92t59 56.5t68.5 30t73 8v-123q-106 0 -106 -143h84v-234h-234zM432 956v181q0 75 15.5 132.5t40 92t59 56.5t68.5 30t73 8v-123q-106 0 -106 -143h84v-234h-234z" />
    <glyph glyph-name="quotedblright" unicode="&#x201d;" horiz-adv-x="792" 
d="M104 934v123q107 0 107 143h-84v234h233v-181q0 -75 -15.5 -132.5t-40 -92t-59 -56.5t-68.5 -30t-73 -8zM475 934v123q107 0 107 143h-84v234h233v-181q0 -75 -15.5 -132.5t-40 -92t-59 -56.5t-68.5 -30t-73 -8z" />
    <glyph glyph-name="quotedblbase" unicode="&#x201e;" horiz-adv-x="851" 
d="M92 -143q107 0 107 143h-84v233h233v-180q0 -75 -15.5 -132.5t-40 -92t-59 -56.5t-68.5 -30t-73 -8v123zM463 -143q106 0 106 143h-84v233h234v-180q0 -75 -15.5 -132.5t-40 -92t-59 -56.5t-68.5 -30t-73 -8v123z" />
    <glyph glyph-name="bullet" unicode="&#x2022;" horiz-adv-x="976" 
d="M164 721q0 134 95 228.5t230 94.5q134 0 229 -95t95 -228q0 -135 -95 -229.5t-229 -94.5q-135 0 -230 94.5t-95 229.5z" />
    <glyph glyph-name="ellipsis" unicode="&#x2026;" horiz-adv-x="1677" 
d="M164 0v231h231v-231h-231zM723 0v231h231v-231h-231zM1282 0v231h231v-231h-231z" />
    <glyph glyph-name="uni202F" unicode="&#x202f;" horiz-adv-x="368" 
 />
    <glyph glyph-name="guilsinglleft" unicode="&#x2039;" horiz-adv-x="800" 
d="M133 594l258 340h264l-270 -338l272 -340h-266z" />
    <glyph glyph-name="guilsinglright" unicode="&#x203a;" horiz-adv-x="800" 
d="M143 256l273 340l-271 338h265l258 -340l-258 -338h-267z" />
    <glyph glyph-name="uni205F" unicode="&#x205f;" horiz-adv-x="460" 
 />
    <glyph glyph-name="Euro" unicode="&#x20ac;" 
d="M88 459v196h123v121h-123v197h125q5 203 149.5 342t372.5 139q77 0 166.5 -11t140.5 -23l50 -11l-11 -219q-235 37 -354 37q-125 0 -198 -74.5t-76 -179.5h491v-197h-495v-121h446v-196h-442q5 -106 75.5 -179t198.5 -73q50 0 141 9.5t156 19.5l66 10l8 -219
q-197 -47 -363 -47q-115 0 -213 37.5t-164.5 102.5t-104.5 152.5t-40 186.5h-125z" />
    <glyph glyph-name="trademark" unicode="&#x2122;" horiz-adv-x="1654" 
d="M143 1257v177h529v-177h-174v-561h-183v561h-172zM786 696v738h183l159 -273l160 273h182v-738h-178v328l11 141l-107 -194h-139l-101 190l11 -137v-328h-181z" />
    <glyph glyph-name="uniE000" unicode="&#xe000;" horiz-adv-x="1024" 
d="M0 0v1024h1024v-1024h-1024z" />
    </font>
</defs>
</svg>
