<?xml version="1.0" standalone="no"?>
<!DOCTYPE svg PUBLIC "-//W3C//DTD SVG 1.1//EN" "http://www.w3.org/Graphics/SVG/1.1/DTD/svg11.dtd" >
<svg>
<metadata>
Created by FontForge 20110222 at Sun Feb 16 10:30:52 2014
 By Orthosie Webhosting
Copyright (c) 2004. Inter IKEA Systems B.V. All rights reserved.
</metadata>
<defs>
<font id="IKEAScriptRegular" horiz-adv-x="729" >
  <font-face 
    font-family="IKEAScriptRegular"
    font-weight="400"
    font-style="italic"
    font-stretch="normal"
    units-per-em="2048"
    panose-1="3 13 5 6 3 1 1 1 1 4"
    ascent="1638"
    descent="-410"
    x-height="944"
    cap-height="1358"
    bbox="-373 -555 1823 1860"
    underline-thickness="70"
    underline-position="-131"
    slope="-23.5"
    unicode-range="U+0020-E000"
  />
<missing-glyph horiz-adv-x="2048" 
 />
    <glyph glyph-name=".notdef" horiz-adv-x="2048" 
 />
    <glyph glyph-name="glyph1" horiz-adv-x="0" 
 />
    <glyph glyph-name="glyph2" horiz-adv-x="2048" 
 />
    <glyph glyph-name="space" unicode=" " horiz-adv-x="362" 
 />
    <glyph glyph-name="exclam" unicode="!" horiz-adv-x="582" 
d="M18 45q0 50 109 246l6 2q27 0 83 -45.5t56 -69.5q0 -33 -55 -114.5t-84 -81.5q-19 0 -67 24t-48 39zM244 504q0 38 175.5 408.5t297.5 533.5q96 -109 107 -125q26 -37 24 -57l-2 -17q-201 -201 -502 -889q-100 134 -100 146z" />
    <glyph glyph-name="quotedbl" unicode="&#x22;" horiz-adv-x="584" 
d="M328 1186l319 413l101 -73l-377 -377zM571 1176l320 413l102 -63l-379 -387z" />
    <glyph glyph-name="numbersign" unicode="#" horiz-adv-x="1192" 
d="M43 616l131 -4h117l78 176l-111 -2q-45 0 -72.5 20.5t-48.5 111.5l129 -3h158l154 379l6 4q19 -2 73 -46t54 -62q0 -5 -115 -275l188 3l152 376l6 4q19 -2 73 -46t54 -62q0 -9 -113 -270l115 2q6 0 29.5 -29.5t27.5 -42.5l19 -55q-37 -7 -246 -7l-74 -172l150 2
q17 0 76 -129q-34 -6 -283 -6q-52 -130 -188 -434l-11 -6q-26 4 -71.5 48t-50.5 71l143 321h-180q-53 -130 -189 -434l-10 -6q-26 4 -74 50t-51 69l145 321h-63q-37 0 -62 9.5t-37 42.5zM467 612l184 2l78 174h-186z" />
    <glyph glyph-name="dollar" unicode="$" horiz-adv-x="864" 
d="M37 246q0 59 30 146t54 87q8 0 54 -56.5t52 -70.5q-57 -62 -57 -129q0 -60 61 -80l183 392q-37 4 -120 102.5t-83 138.5q0 188 164 360.5t352 172.5q10 0 37 -27l119 250l47 -82l-107 -223q46 -31 95 -93.5t49 -109.5q0 -100 -54 -184q-14 0 -62.5 33.5t-57.5 60.5
q41 96 41 160q0 58 -37 73l-236 -501h23q30 0 45 -3.5t46 -36.5t68 -92t37 -94q0 -151 -149 -292.5t-299 -141.5q-41 0 -74 17l-143 -308l-45 82l125 271q-53 39 -105.5 98t-52.5 80zM315 143q125 21 215.5 144t114.5 243q-38 3 -67 3q-37 0 -80 -5zM356 727q0 -68 64 -68
l55 3l238 505q-130 -35 -243.5 -173.5t-113.5 -266.5z" />
    <glyph glyph-name="percent" unicode="%" horiz-adv-x="1126" 
d="M14 117q515 465 1121 1181l34 -65q-472 -551 -1112 -1165zM375 1020q0 160 112 312.5t197 152.5q80 0 170 -189q-13 -59 -36 -111t-55 -98t-73.5 -85t-112.5 -85.5t-90 -46.5q-22 0 -67 62t-45 88zM465 979q204 34 323 350l-30 43q-113 0 -198.5 -128t-94.5 -265z
M524 168q0 90 134.5 265t220.5 175q20 0 77.5 -81t57.5 -109q0 -23 -23 -90.5t-60 -117t-100.5 -88t-150.5 -69.5q-156 56 -156 115zM616 131l33 -16q96 12 183.5 125.5t87.5 212.5q0 11 -5 30q-101 -15 -192.5 -130t-106.5 -222z" />
    <glyph glyph-name="ampersand" unicode="&#x26;" horiz-adv-x="1069" 
d="M33 307q0 73 130 188t249 187q-33 89 -33 186q0 198 100.5 329.5t292.5 131.5h14q30 0 121.5 -144.5t91.5 -180.5q0 -77 -165 -214.5t-304 -211.5q32 -103 115 -277q140 103 209 244l113 -131q-90 -153 -250 -256q101 -163 153 -205h-30q-122 71 -178 176
q-209 -117 -353 -117q-34 0 -57 17.5t-77 78.5t-98 122t-44 77zM168 221q0 -63 100 -63q135 0 324 108q-76 114 -127 271q-297 -209 -297 -316zM469 827q0 -50 12 -108q239 153 307 241t68 168q0 20 -2 29q-9 4 -23 4q-147 0 -254.5 -92t-107.5 -242z" />
    <glyph glyph-name="quotesingle" unicode="'" horiz-adv-x="406" 
d="M381 1196q237 287 319 414l111 -76q-155 -193 -377 -379z" />
    <glyph glyph-name="parenleft" unicode="(" horiz-adv-x="631" 
d="M4 -164q0 278 144 719.5t344 748t387 306.5q37 0 247 -113l-28 -12q-99 31 -140 31q-259 0 -542 -588.5t-283 -1091.5q0 -78 113 -164h-39q-203 126 -203 164z" />
    <glyph glyph-name="parenright" unicode=")" horiz-adv-x="651" 
d="M-332 -231l29 12q101 -31 160 -31q166 0 369.5 317.5t319.5 685.5t116 679q0 75 -111 161h37q203 -126 203 -161q0 -251 -100 -591.5t-241.5 -621.5t-275 -422t-258.5 -141q-38 0 -248 113z" />
    <glyph glyph-name="asterisk" unicode="*" horiz-adv-x="1116" 
d="M371 1356q112 -54 239 -101l-2 64q0 153 51 252l91 -68q-31 -89 -37 -194q116 83 221 149l63 -90q-99 -57 -243 -164q126 -42 213 -61l57 -107q-163 46 -307 99q9 -116 47 -240l-80 33q-32 61 -57 184l-160 -127l-68 86l160 125q-42 18 -73.5 33t-56.5 29q-3 1 -58 98z
" />
    <glyph glyph-name="plus" unicode="+" horiz-adv-x="1016" 
d="M137 528l146 -2h184q23 171 57 340q78 -64 78 -84q0 -27 -43 -256h53l69 2l68 1l68 1q23 0 47 -43l29 -51q-14 -2 -64 -2l-243 6h-39q-8 -45 -21 -358q-92 46 -92 78q0 38 23 276l-248 -4q-31 0 -72 96z" />
    <glyph glyph-name="comma" unicode="," horiz-adv-x="291" 
d="M-258 -264q69 95 133.5 213t134.5 303q3 6 10 6q24 0 80 -34.5t56 -57.5q0 -53 -155.5 -277.5t-186.5 -224.5q-15 0 -43.5 28.5t-28.5 43.5z" />
    <glyph glyph-name="hyphen" unicode="-" horiz-adv-x="592" 
d="M84 510q0 9 12 18l97 -4l268 13q15 0 38 -39.5t23 -48.5l-6 -9q-224 -32 -332 -32q-38 0 -50 5.5t-31 39.5t-19 57z" />
    <glyph glyph-name="period" unicode="." horiz-adv-x="291" 
d="M-78 90q0 14 34.5 91.5t40 82t21.5 4.5q38 0 93 -19t55 -38q0 -32 -48 -103t-77 -71q-19 0 -69 21t-50 32z" />
    <glyph glyph-name="slash" unicode="/" horiz-adv-x="428" 
d="M-367 -240q0 4 1 7t3 6l165 219q115 155 224 310q108 153 208 306q101 153 195 304q93 152 179 302l170 299q21 0 38.5 -27t17.5 -54q0 -2 -3 -11q-13 -39 -180 -325q-128 -220 -278 -449.5t-322 -466.5q-332 -461 -368 -483q-16 0 -33 22t-17 41z" />
    <glyph glyph-name="zero" unicode="0" horiz-adv-x="827" 
d="M47 240v30q0 283 229 656.5t429 373.5q25 0 71 -48.5t55 -77.5q12 -42 29 -72q62 -65 62 -76q0 -173 -91.5 -379t-247 -400t-264.5 -194q-43 0 -157.5 76t-114.5 111zM182 242q0 -82 56 -82q88 0 212.5 160.5t233.5 394.5t109 342q0 80 -74 80q-153 0 -345 -347
t-192 -548z" />
    <glyph glyph-name="one" unicode="1" horiz-adv-x="631" 
d="M94 109q0 76 361 782l-2 12q-208 -223 -242 -223q-20 0 -47 44.5t-27 66.5q23 22 84 67q103 78 204.5 176t219.5 277l6 2q13 0 45.5 -39t32.5 -64v-6l10 -26l-204 -435q-103 -220 -171.5 -379t-103 -250.5t-36.5 -93.5t-5 -2q-22 0 -73.5 38.5t-51.5 52.5z" />
    <glyph glyph-name="two" unicode="2" horiz-adv-x="762" 
d="M-74 227q0 9 11 19q301 228 547.5 501t277.5 402q-20 4 -33 4q-68 0 -192 -106q-136 -113 -191 -113q-24 0 -58 52t-34 75q0 27 76.5 88t193 110.5t201.5 49.5q12 0 30.5 -19t44 -56t28.5 -48t3 -29q69 -85 66 -90q0 -7 -54 -98q-34 -57 -77.5 -116.5t-96 -121
t-115 -127.5t-140 -141.5t-157.5 -144t-159 -125.5q148 16 277 16q83 0 135 -4t56.5 -8t10 -17.5t17.5 -62t12 -68.5q0 -7 -6 -10q-125 20 -281 20q-40 0 -84 -3t-93 -10l-97 -15h-8q-21 0 -48.5 42.5t-27.5 62.5q0 5 2 9q-37 74 -37 82z" />
    <glyph glyph-name="three" unicode="3" horiz-adv-x="770" 
d="M-98 209q0 7 12 16q15 0 73 -54.5t58 -72.5l-4 -30q0 -21 70 -21q142 0 284 192t142 351q0 38 -13 65q-15 7 -37 7q-56 0 -153.5 -43t-97.5 -48q-10 6 -36 54.5t-26 58.5l4 6q498 228 578 506q-13 4 -29 4q-144 0 -338 -153q-16 0 -50 52.5t-34 69.5q0 25 148.5 102
t251.5 77q35 0 69 -50q45 -66 60 -75q79 -53 79 -72q0 -27 -102 -166t-297 -248q58 -12 114 -53t56 -90q0 -180 -97.5 -349.5t-205 -247t-223.5 -77.5q-62 0 -159 113.5t-97 175.5z" />
    <glyph glyph-name="four" unicode="4" horiz-adv-x="811" 
d="M68 586q69 68 132.5 135.5t122 133.5t111.5 130.5t100.5 128t90 126t69.5 107t33 48.5q19 -3 60 -50t36 -61q0 -16 -131.5 -205.5t-466.5 -533.5l269 10q64 112 114 250q17 0 64 -43t47 -57l-68 -156l60 4q26 0 41.5 -44.5t15.5 -74.5q0 -14 -6 -14l-162 4l-213 -485
q-27 9 -74 37t-47 47q0 5 170 387h-71l-148 -4q-22 -9 -59 -9q-11 0 -41 65.5t-49 123.5z" />
    <glyph glyph-name="five" unicode="5" horiz-adv-x="788" 
d="M-25 229q0 25 15 25t54.5 -48t55.5 -77q10 -59 41 -59q119 0 216.5 106.5t155.5 277t58 251.5q0 19 -2 24q-5 2 -20 2q-94 0 -295 -106q-39 36 -84 116q80 104 152 244l96 196q36 72 47 91l24 39q67 -17 185 -17q49 0 113 8l133 17q11 0 38 -46.5t27 -60.5l-2 -6
q-77 -34 -150 -41.5t-268 -7.5q-48 -120 -194 -364q126 73 192 73q7 0 15 -4.5t16.5 -14.5t18 -25t24 -42.5t27 -40.5t25 -30t18.5 -31.5t6 -26.5q0 -220 -145 -459t-324 -239q-64 0 -166.5 107t-102.5 169z" />
    <glyph glyph-name="six" unicode="6" horiz-adv-x="844" 
d="M57 236v26q0 193 112.5 457.5t283 475t309.5 210.5q16 0 55 -45q25 -25 84 -64q78 -53 78 -137q0 -94 -57 -178l-7 -2q-13 0 -51.5 34t-49.5 55l-3 5q5 6 21 61t16 76q0 62 -55 62q-82 0 -212 -169.5t-229 -369.5q192 164 277 164q15 0 92.5 -89t77.5 -106
q0 -126 -91.5 -294.5t-212.5 -289t-182 -120.5q-17 0 -63 43q-45 45 -62 45q-28 0 -79.5 59.5t-51.5 90.5zM195 205q0 -72 47 -72q111 0 265.5 243.5t154.5 375.5v10q-54 -3 -133 -43.5t-156 -98t-102 -95t-50.5 -126.5t-25.5 -194z" />
    <glyph glyph-name="seven" unicode="7" horiz-adv-x="711" 
d="M-31 80q0 6 45 68q233 324 774 999l-135 4q-142 0 -250 -25q-42 -51 -75 -139q-3 -6 -9 -6q-26 0 -66 31.5t-40 52.5q0 11 115 235l61 -28q244 22 391 22q13 0 58 -58.5t45 -80.5l-2 -6q0 -5 19 -36q20 -31 20 -36q-489 -589 -762 -1011q-75 -114 -80 -119
q-17 0 -63 58.5t-46 74.5z" />
    <glyph glyph-name="eight" unicode="8" horiz-adv-x="819" 
d="M41 268q0 108 16 165.5t53 104t83.5 81t273.5 159.5q-137 107 -137 158q0 140 119.5 291t271.5 151q20 0 85 -54.5t68 -72.5q4 -18 46 -65q43 -49 43 -80q0 -125 -89 -232.5t-235 -164.5q109 -93 109 -134q0 -131 -73 -268.5t-166.5 -217t-199.5 -79.5
q-41 0 -154.5 108.5t-113.5 149.5zM176 227q0 -88 76 -88q118 0 243.5 174t125.5 299q0 67 -35 76q-176 -62 -293 -186.5t-117 -274.5zM469 866q0 -24 53 -61q144 56 233 150.5t89 197.5q0 96 -72 96q-102 0 -202.5 -116.5t-100.5 -266.5z" />
    <glyph glyph-name="nine" unicode="9" horiz-adv-x="786" 
d="M-37 276q0 41 19 41q8 -6 114 -151q10 -66 24 -83t48 -17q95 0 191 98t247 454q-207 -188 -323 -188q-23 0 -73 66.5t-50 93.5q0 212 215 476.5t334 264.5q22 0 61 -41.5t54.5 -69t15.5 -51.5q91 -117 88 -127l-152 -410q-79 -216 -165.5 -373t-172 -235.5t-170.5 -78.5
q-87 0 -196 120t-109 211zM311 614q0 -20 17 -20q68 0 184 88t168 162q0 -10 12 -17l103 293q4 13 -15 22t-51 9q-111 0 -264.5 -207.5t-153.5 -329.5z" />
    <glyph glyph-name="colon" unicode=":" horiz-adv-x="348" 
d="M-35 90q0 14 30 82t38.5 82t25.5 14q31 0 90.5 -17.5t59.5 -39.5q0 -36 -49 -105t-76 -69q-21 0 -70 20.5t-49 32.5zM268 766q0 10 34.5 90t40 83t19.5 3q29 0 89.5 -18t60.5 -37q0 -33 -46.5 -103.5t-78.5 -70.5q-27 0 -73 19.5t-46 33.5z" />
    <glyph glyph-name="semicolon" unicode=";" horiz-adv-x="348" 
d="M-227 -276q7 6 33 44q67 98 113 183q61 111 104 225q20 67 23.5 71.5t19.5 4.5q23 0 78 -15t55 -34q0 -53 -149 -296t-181 -243q-16 0 -52 21.5t-42 34.5zM268 766q0 10 34.5 90t40 83t19.5 3q29 0 89.5 -18t60.5 -37q0 -33 -46.5 -103.5t-78.5 -70.5q-27 0 -73 19.5
t-46 33.5z" />
    <glyph glyph-name="less" unicode="&#x3c;" horiz-adv-x="502" 
d="M90 555q246 160 404 360l84 -96q-206 -175 -383 -289q57 -180 63 -458l-49 49q-21 181 -72 311q-36 85 -47 123z" />
    <glyph glyph-name="equal" unicode="=" horiz-adv-x="1016" 
d="M78 410l139 -2h90l453 4q20 0 43 -41l31 -56q-52 -4 -240 -4h-444q-23 0 -72 99zM170 635q86 -2 340 -2l340 4q10 0 57 -53q2 -8 17 -41q-53 -4 -250 -4h-432q-38 0 -72 96z" />
    <glyph glyph-name="greater" unicode="&#x3e;" horiz-adv-x="502" 
d="M-88 178q199 169 385 289q-60 191 -64 459l48 -49q20 -181 71 -312l31 -71l16 -52q-242 -156 -403 -360z" />
    <glyph glyph-name="question" unicode="?" horiz-adv-x="774" 
d="M96 29q0 15 13.5 49t52.5 111t49 83q23 0 81 -48t58 -70q0 -31 -54.5 -112t-82.5 -81q-21 0 -69 26t-48 42zM201 504q0 17 49.5 80.5t111 126t157 147t244.5 202t296 218.5q-11 2 -39 2q-156 0 -345.5 -89t-279.5 -204q-61 111 -61 152q0 6 3 13.5t84 67t195.5 111
t221.5 77.5t209 26q33 0 73.5 -103t40.5 -147q0 -17 -8 -23q-166 -104 -249.5 -169t-242.5 -206.5t-197 -183.5t-73 -96q140 34 227 108q31 -61 60 -147q-24 -26 -78 -55.5t-96 -40.5l-174 -43q-129 147 -129 176z" />
    <glyph glyph-name="at" unicode="@" horiz-adv-x="1835" 
d="M182 549q0 249 122 442.5t333 316t481 122.5q302 0 503.5 -150t201.5 -401q0 -186 -83 -340.5t-210 -244t-289 -89.5q-57 0 -136 57t-79 109q0 46 61 166q-224 -258 -329 -258q-36 0 -102 55t-66 90q0 142 194 382.5t342 240.5q31 0 142 -99l16 29q31 -3 86 -80
q-235 -492 -235 -551q0 -74 143 -74q204 0 326 191.5t122 433.5q0 223 -177.5 350t-448.5 127q-349 0 -583 -258.5t-234 -623.5q0 -187 95 -336t259.5 -245.5t366.5 -96.5q113 0 269 55t224 129l57 -74q-72 -70 -226.5 -118t-289.5 -48q-363 0 -609.5 219.5t-246.5 571.5z
M707 412q0 -19 20 -19q64 0 237.5 142.5t209.5 214.5l77 157q-10 35 -59 35q-93 0 -199 -93t-196 -244t-90 -193z" />
    <glyph glyph-name="A" unicode="A" horiz-adv-x="856" 
d="M-45 233q0 69 201 394q-31 31 -35 53l4 8q39 20 82 23q53 86 113 169.5t127 165.5t176.5 200t121.5 118q28 0 111.5 -88t83.5 -117q0 -27 -52 -181q-54 -163 -102 -340q-41 -151 -76 -312q-33 -151 -62 -314q-5 -28 -8 -31q-2 -1 -5 -1q-21 0 -91.5 40.5t-70.5 57.5
q0 62 145 532h-49q-144 0 -264 -10q-150 -280 -225 -502l-8 -6q-27 5 -72 62t-45 79zM369 713q29 4 67 4l207 -10q150 430 150 477q0 16 -13 16q-35 0 -194 -195t-217 -292z" />
    <glyph glyph-name="B" unicode="B" horiz-adv-x="961" 
d="M-27 197q0 7 234 516q22 46 101.5 238t86.5 239q-67 71 -67 84q0 29 126 49t214 20q108 0 144.5 -9.5t112.5 -134t76 -169.5q0 -41 -108.5 -132.5t-183.5 -117.5q68 -28 133 -108.5t65 -147.5q0 -153 -243 -320t-416 -167q-32 0 -47.5 11t-77.5 85l-25 -47l-6 -2
q-18 0 -68.5 46.5t-50.5 66.5zM137 168q20 -4 37 -4q151 0 379.5 152.5t228.5 285.5q0 119 -161 119q-105 0 -209 -39l-25 51q-55 -136 -250 -565zM422 827q136 10 294 98t158 189q0 46 -41.5 74.5t-97.5 28.5q-82 0 -174 -37q-61 -187 -139 -353z" />
    <glyph glyph-name="C" unicode="C" horiz-adv-x="805" 
d="M41 272v21q0 188 115.5 473t266.5 443.5t300 158.5q26 0 74 -30t110.5 -82.5t84.5 -82.5t22 -83q0 -86 -49 -185l-7 -2q-22 0 -78.5 39.5t-56.5 56.5l33 105q14 49 14 67q0 66 -84 66q-179 0 -381 -349.5t-202 -598.5q0 -148 96 -148q44 0 91.5 25.5t146.5 146.5
q48 0 135 -108q-123 -197 -297 -197q-74 0 -204 101t-130 163z" />
    <glyph glyph-name="D" unicode="D" horiz-adv-x="961" 
d="M-39 176l51 108l162 371l240 574q-29 28 -29 43q0 20 97 39.5t151 19.5q116 0 158.5 -22t139.5 -176.5t97 -210.5q0 -173 -119 -408t-293 -366.5t-376 -131.5q-26 0 -113 115l-37 -70q-24 5 -76.5 50.5t-52.5 64.5zM145 180q10 -35 64 -35q238 0 456 299t218 560
q0 101 -36.5 141.5t-133.5 40.5q-69 0 -152 -19q-212 -552 -416 -987z" />
    <glyph glyph-name="E" unicode="E" 
d="M-25 186l110 246l92 215l226 553q-45 63 -45 72l2 6q116 33 424 33q87 0 102.5 -4.5t54 -52t38.5 -62.5l-4 -8l-94 2q-160 0 -322 -29q-8 -33 -147 -360q158 8 307 8q12 0 38.5 -53t26.5 -72l-4 -8l-82 2q-142 0 -342 -25q-169 -366 -200 -471q79 8 174 8q147 0 162 -11
t40.5 -53t36.5 -77l-6 -6l-166 6q-138 0 -215 -16q-37 -9 -49 -9q-22 0 -90 70t-68 96z" />
    <glyph glyph-name="F" unicode="F" horiz-adv-x="696" 
d="M-35 158l445 1052q-24 24 -45 64l6 8q142 33 438 33q45 0 84 -36t39 -79l-2 -10h-27q-138 0 -338 -33l-194 -450q84 8 184 8t120.5 -6t39.5 -43t26 -72l-8 -8q-211 0 -300 -12q-33 -5 -46 -5q-18 0 -49 56l-96 -218q-45 -102 -59 -136t-27.5 -68.5t-25 -69t-24.5 -77.5
t-16 -46q-25 5 -75 63.5t-50 84.5z" />
    <glyph glyph-name="G" unicode="G" horiz-adv-x="936" 
d="M74 322q0 209 101 451t263 411.5t334 169.5q20 0 134.5 -89.5t127.5 -114.5t13 -71q0 -53 -14.5 -104t-35.5 -51q-18 0 -70.5 42t-52.5 56q0 11 15 57q16 53 16 76q0 57 -57 57q-245 0 -421.5 -312.5t-176.5 -610.5q0 -125 57 -125q24 0 108.5 58t155 165.5t88.5 181.5
l-53 2q-39 51 -90 129l4 7h268q12 0 39 -51t27 -66l-113 -260q-52 -121 -80 -193.5t-31.5 -78t-8.5 -5.5q-13 0 -44 24.5t-40 41.5q-27 -27 -105 -69t-110 -42q-25 0 -71.5 39t-98 97.5t-65 85.5t-13.5 92z" />
    <glyph glyph-name="H" unicode="H" horiz-adv-x="848" 
d="M-37 176l217 479q-26 45 -26 64q0 20 65 26q159 334 185.5 406.5t39.5 128.5l9 6q18 -2 68 -45t50 -59q0 -18 -180 -430q71 9 242 12l24 -29q135 292 250 578l8 4q27 -3 77 -51q45 -43 45 -59q0 -2 -1 -3l-57 -127q-229 -513 -305 -703t-121 -360l-8 -6q-29 3 -79 48
t-50 71q0 56 217 518q-34 0 -303 -39q-143 -329 -236 -528l-8 -4q-19 2 -71 42t-52 60z" />
    <glyph glyph-name="I" unicode="I" horiz-adv-x="422" 
d="M-29 166l314 692q92 205 174 436l6 4q22 -2 74.5 -45.5t52.5 -66.5q0 -5 -109 -260l-244 -566q-135 -312 -137 -314.5t-8 -2.5q-24 0 -73.5 49t-49.5 74z" />
    <glyph glyph-name="J" unicode="J" horiz-adv-x="459" 
d="M-338 -160q0 17 12 17q11 0 44 -24t37.5 -28.5t4.5 -21.5q0 -10 17 -10q101 0 272 436l359 913q-46 -18 -82 -18q-16 0 -50 52.5t-34 70.5l6 4q37 0 108 26q71 27 101 27q28 0 123 -149q-77 -173 -207 -521q-190 -513 -238 -631t-113.5 -210t-121.5 -92q-49 0 -143.5 57
t-94.5 102z" />
    <glyph glyph-name="K" unicode="K" horiz-adv-x="793" 
d="M-41 150l512 1193q17 0 75 -39.5t58 -52.5l-182 -422q224 177 399 347q189 192 203 192q17 0 54.5 -46.5t37.5 -66.5q0 -15 -207 -197t-450 -345q68 -12 129 -45t74.5 -61.5t13.5 -127.5q0 -89 -22.5 -193t-59.5 -205.5t-41.5 -106.5t-9.5 -5q-21 0 -81.5 47t-60.5 66
q0 8 39 106q47 129 57.5 169t20.5 98t10 98q0 70 -110 70q-45 0 -88 -15q-63 -143 -151 -365.5t-95 -222.5q-19 0 -72 56t-53 74z" />
    <glyph glyph-name="L" unicode="L" horiz-adv-x="651" 
d="M-55 147q0 12 80 168q258 507 450 992l8 6q24 -4 63.5 -55.5t39.5 -71.5q0 -44 -451 -1006q187 10 265 10q43 0 66 -13.5t53 -63t30 -72.5l-4 -8q-4 -2 -13 -2q-8 0 -46 8q-50 10 -64 10q-165 0 -375 -29q-16 6 -59 58.5t-43 68.5z" />
    <glyph glyph-name="M" unicode="M" horiz-adv-x="1235" 
d="M-8 209q0 96 115 336t239.5 436.5t200 298.5t86.5 102q19 0 80 -80.5t61 -101.5q0 -10 -51 -164q-65 -199 -92 -334t-27 -186q79 164 311 487.5t302 323.5q21 0 49 -59t28 -80q0 -10 -4 -14q0 -5 11 -27q14 -27 14 -35q0 -7 -46 -134l-87 -245q-42 -118 -84 -271
l-82 -307q-40 -153 -42 -155t-5 -2q-25 0 -84.5 37t-59.5 57q0 69 115 427.5t168 475.5h-8q-421 -491 -572 -944q-3 -6 -8 -6q-19 0 -70 30t-51 40q0 183 54.5 501t109.5 449h-16q-51 -76 -99 -161q-39 -67 -96 -180q-27 -53 -52 -106q-24 -53 -46 -108q-22 -54 -42 -109
q-19 -55 -36 -111q-18 -55 -33 -111q-30 -114 -32 -118q-24 0 -71.5 61t-47.5 87z" />
    <glyph glyph-name="N" unicode="N" horiz-adv-x="883" 
d="M-43 172q0 55 160 385t286 546t158 216q21 0 62 -72t41 -98q0 -16 -52 -272q-35 -177 -53 -560q250 560 285.5 637t112.5 224t92 157q12 -2 46.5 -55t34.5 -66q0 -8 -61 -118q-283 -507 -479 -1082q-3 -12 -12 -12q-12 0 -30 13.5t-40 38t-36.5 46.5t-22.5 30t-18 20
q-19 22 -20 27q-1 11 -1 63q0 252 63 669l-16 -9q-15 -9 -146 -270q-86 -172 -144.5 -315.5t-88.5 -259.5l-8 -6q-20 3 -66.5 52t-46.5 71z" />
    <glyph glyph-name="O" unicode="O" horiz-adv-x="979" 
d="M84 381q0 323 208.5 634.5t407.5 311.5q26 0 160.5 -99t134.5 -122v-19q0 -207 -86.5 -486.5t-221 -443t-298.5 -163.5q-36 0 -100 65.5t-64 104.5q0 6 -67 61q-62 53 -68 74t-6 82zM240 313q0 -147 135 -147q174 0 320.5 328.5t146.5 556.5q0 143 -70 143
q-148 0 -340 -299.5t-192 -581.5z" />
    <glyph glyph-name="P" unicode="P" horiz-adv-x="801" 
d="M-37 156l438 1005q-57 76 -57 90q51 45 186 45q166 0 202 -23.5t107.5 -156.5t71.5 -186q0 -107 -71 -202.5t-187 -164.5t-235 -69q-22 0 -99 98q-84 -190 -213 -522l-8 -4q-28 5 -81.5 38t-53.5 52zM336 629q9 -2 33 -2q160 0 294 123.5t134 279.5q0 131 -170 131
q-40 0 -74 -6q-79 -206 -217 -526z" />
    <glyph glyph-name="Q" unicode="Q" horiz-adv-x="967" 
d="M80 246v18q0 199 86 471.5t226.5 442.5t309.5 170q29 0 90.5 -63t61.5 -91l-10 -26q-4 -12 -4 -17q0 -40 129 -98l4 -86q1 -14 1 -29q0 -115 -42 -260q-47 -163 -123 -294.5t-174 -221.5q62 -201 79 -236.5t54 -99.5q39 -66 39 -117l-10 -2q-37 0 -107.5 82.5
t-148.5 290.5q-94 -57 -164 -57q-31 0 -164 98t-133 125zM238 307q0 -151 92 -151q71 0 159 88q-12 61 -14 88q6 6 12 6q36 0 82 -31q78 100 99 132.5t48.5 93.5t54 145.5t42.5 174.5t16 167q0 97 -32 125.5t-88 28.5q-178 0 -324.5 -316.5t-146.5 -550.5z" />
    <glyph glyph-name="R" unicode="R" horiz-adv-x="825" 
d="M-53 135q1 -1 56 114l205 434q130 279 198 503l-72 78q3 24 120.5 40.5t207.5 16.5q103 0 134 -19t72 -82.5t71 -132t30 -112.5q0 -76 -109.5 -165.5t-255.5 -152.5q87 -25 109 -54.5t22 -98.5q0 -185 -127 -492q-35 5 -90 46.5t-55 62.5q0 36 35 102q88 157 88 307
q0 80 -99 80q-54 0 -118 -18l-25 61l-252 -596l-8 -4q-21 0 -79 33.5t-58 48.5zM373 713q170 38 327.5 151.5t157.5 227.5q0 98 -137 98q-71 0 -150 -21z" />
    <glyph glyph-name="S" unicode="S" horiz-adv-x="780" 
d="M-29 287q0 112 76 207l6 2q14 0 77 -50t63 -59q-99 -147 -99 -205q0 -24 37 -24q121 0 274.5 187.5t153.5 289.5q0 29 -121 29q-38 0 -55.5 7t-60 57t-71 98.5t-28.5 72.5q0 65 57.5 161.5t188 181.5t274.5 85h21q36 0 121.5 -108.5t85.5 -147.5q0 -19 -2 -24l-13 -5
q-89 117 -151 117q-147 0 -273.5 -94t-158.5 -229q26 -8 61 -11q109 -10 127 -30t88 -110t70 -118q0 -29 -35.5 -123t-131.5 -209t-198.5 -180t-201.5 -65q-12 0 -29.5 20t-83.5 142q-21 10 -44.5 61t-23.5 74z" />
    <glyph glyph-name="T" unicode="T" horiz-adv-x="690" 
d="M102 127q0 24 473 1047q-231 -44 -260 -44q-21 0 -54.5 53t-33.5 83l4 8q354 63 736 63q9 0 52.5 -48t43.5 -58l-4 -10l-318 -31q-333 -716 -499 -1186l-9 -4q-20 3 -75.5 55.5t-55.5 71.5z" />
    <glyph glyph-name="U" unicode="U" horiz-adv-x="860" 
d="M31 260q0 230 448 1081l8 5q20 -2 70.5 -52t50.5 -71l-6 -9q-7 -7 -117 -227.5t-199 -431.5t-89 -285q55 20 118.5 67.5t143 131.5t149.5 185.5t115 199t178 428.5l6 4q23 -4 68 -46.5t45 -57.5q0 -26 -57 -150q-143 -313 -187.5 -418t-108.5 -299l-100 -301
q-16 0 -68.5 56.5t-52.5 70.5q0 75 82 260q-126 -178 -236 -247.5t-128 -69.5q-28 0 -80.5 74.5t-52.5 101.5z" />
    <glyph glyph-name="V" unicode="V" horiz-adv-x="756" 
d="M80 147q0 172 93 524t206 636l8 4q24 -3 79.5 -53t55.5 -72l-60 -150q-29 -75 -57.5 -162.5t-54.5 -184.5l-47 -182q-22 -84 -31.5 -141.5t-11.5 -95.5q421 694 717 1043l6 2q15 0 61 -36.5t46 -51.5q0 -20 -37 -60q-187 -201 -392 -508.5t-372 -654.5l-8 -4
q-33 6 -117 65.5t-84 81.5z" />
    <glyph glyph-name="W" unicode="W" horiz-adv-x="1335" 
d="M86 190q0 169 95.5 519.5t203.5 625.5l8 4q23 -1 79 -52t56 -75l-67 -171q-33 -85 -60.5 -170.5t-58.5 -194t-48 -183t-22.5 -115t-5.5 -73.5q54 106 217.5 362t291 423t140.5 172q20 0 66 -56l35 -47q16 -10 16 -20l-62 -158q-30 -77 -55.5 -160.5t-50.5 -181.5
t-48 -208.5t-30 -176.5l5 4q96 189 395 621t325 432q23 0 66 -43t43 -66q0 -13 -31 -35q-454 -530 -770 -1177l-8 -4q-33 5 -117 65t-84 82q0 199 158 690q-287 -391 -475 -776l-8 -4q-29 4 -114 65.5t-85 81.5z" />
    <glyph glyph-name="X" unicode="X" horiz-adv-x="766" 
d="M-98 184q0 8 97 128t310 352q-86 371 -86 659q0 6 8 6q26 0 98.5 -48t73.5 -62l27 -426l368 381q58 59 62 59q15 0 65 -46.5t50 -60.5v-8q-297 -282 -512 -520q81 -376 174 -602l-6 -8q-29 4 -81 41.5t-68 62t-55 126t-75 265.5q-172 -199 -334 -426l-6 -2
q-17 0 -63.5 54.5t-46.5 74.5z" />
    <glyph glyph-name="Y" unicode="Y" horiz-adv-x="715" 
d="M20 55q0 19 340 531q-196 76 -196 274q0 185 182 469l6 2q21 0 72 -45t51 -63q-112 -155 -145 -247t-33 -171q0 -105 70 -105q52 0 106 41q212 323 438 607q19 -2 60 -46t41 -67q0 -5 -3 -11l-7 -9q-34 -37 -71 -86q-93 -123 -180 -244q-87 -122 -168 -241
q-82 -119 -157 -236q-76 -118 -145 -233l-138 -228q-17 1 -70 43.5t-53 64.5z" />
    <glyph glyph-name="Z" unicode="Z" horiz-adv-x="817" 
d="M-104 168q0 24 381.5 446t572.5 557q-253 -34 -389 -34q-20 0 -66.5 56t-46.5 77l6 4q211 0 260.5 5t149.5 30q89 24 135 24q19 0 73 -83t54 -105l-2 -8q-117 -97 -245.5 -220.5t-276.5 -290.5l-410 -458q151 22 314 22q160 0 173.5 -11t43 -47.5t55.5 -90.5l-8 -8
q-100 10 -207 10q-229 0 -326 -18q-68 -13 -88 -13q-23 0 -88 66.5t-65 89.5z" />
    <glyph glyph-name="bracketleft" unicode="[" 
d="M-25 186q126 256 428 1014q-40 47 -43 78q128 35 330 35l195 -4q67 -48 94 -117l-4 -8l-123 2q-130 0 -293 -29l-76 -189q-58 -147 -102 -248l-90 -205q-45 -105 -81 -193.5t-54 -143.5q79 8 174 8q90 0 155 -8q56 -46 84 -133l-6 -6l-166 6q-147 0 -264 -25
q-115 63 -158 166z" />
    <glyph glyph-name="backslash" unicode="\" horiz-adv-x="844" 
d="M264 1569h92q26 -647 277 -1886l-6 -7q-46 -1 -86 -10q-183 961 -226 1306t-51 597z" />
    <glyph glyph-name="bracketright" unicode="]" horiz-adv-x="903" 
d="M31 135q0 9 12 19l96 -4l125 6v8l438 999q-105 -10 -165 -10q-35 0 -59.5 31.5t-24.5 70.5q0 10 12 19l96 -4l184 8l7 16l6 4q17 -2 39 -18q14 2 32 2q15 0 36.5 -34t25.5 -54l-455 -1057q29 -37 33 -63l-6 -8l-62 -9q-3 -14 -14 -14q-9 0 -22 10q-150 -20 -250 -20
q-35 0 -59.5 31.5t-24.5 70.5z" />
    <glyph glyph-name="asciicircum" unicode="^" horiz-adv-x="1092" 
d="M154 608q352 343 624 760l121 -96q3 -504 98 -762l-69 10q-82 198 -140 666q-176 -295 -546 -674z" />
    <glyph glyph-name="underscore" unicode="_" horiz-adv-x="1026" 
d="M-2 -166h1030v-70h-1030v70z" />
    <glyph glyph-name="grave" unicode="`" horiz-adv-x="719" 
d="M334 1477q0 32 8 32l127 -53q13 -80 248 -299q-103 3 -243 115t-140 205z" />
    <glyph glyph-name="a" unicode="a" horiz-adv-x="676" 
d="M-68 178q0 115 115.5 294t228.5 179q64 0 195 -88q67 137 127 289q-9 14 -25 14q-39 0 -97 -25q-44 -19 -117 -62q-21 -13 -31 -21l-7 -6q-17 4 -50.5 43t-39.5 63q4 17 112.5 76t188.5 59q25 0 78.5 -53t53.5 -74q0 -25 20 -63q21 -38 21 -62q0 -21 -144 -339t-182 -422
q-20 0 -72.5 45.5t-52.5 60.5q0 9 47 107q-49 -44 -133.5 -96t-126.5 -52q-18 0 -63.5 55.5t-45.5 77.5zM90 203q58 0 169 80.5t140 134.5l47 86q-45 45 -102 45q-143 0 -254 -346z" />
    <glyph glyph-name="b" unicode="b" horiz-adv-x="717" 
d="M-55 195q0 2 55 127l477 1073l8 4q19 0 70 -40.5t51 -58.5q0 -38 -198 -442q110 105 174 105q42 0 101.5 -72.5t59.5 -122.5v-8q0 -160 -168 -454t-315 -294q-52 0 -102.5 45.5t-73.5 100.5q-34 -68 -43 -68q-17 0 -56.5 44.5t-39.5 60.5zM125 201q0 -84 68 -84
q98 0 256.5 286t158.5 414q0 31 -12 31q-42 0 -162.5 -90.5t-214.5 -290.5t-94 -266z" />
    <glyph glyph-name="c" unicode="c" horiz-adv-x="635" 
d="M0 244q0 189 160 462t317 273q18 0 58.5 -39t95.5 -105.5t55 -105.5q0 -29 -32 -95.5t-48 -66.5q-20 0 -61 41t-41 62q67 110 67 133q0 47 -45 47q-109 0 -250 -246t-141 -383q0 -84 45 -84q68 0 189 154q16 0 55 -51.5t39 -71.5q0 -10 -47.5 -61.5t-89 -78t-76.5 -26.5
q-42 0 -146 100.5t-104 141.5z" />
    <glyph glyph-name="d" unicode="d" horiz-adv-x="745" 
d="M-16 244q0 169 198.5 452t362.5 283q69 0 139 -98l151 333q77 170 79 172.5t8 2.5q21 0 61.5 -45.5t40.5 -65.5l-492 -1061q-33 -75 -81 -211q-4 -10 -9 -10q-21 0 -61.5 48t-40.5 69q0 30 25 80q-171 -168 -226 -168q-31 0 -58 46t-62 92t-35 81zM106 205q0 -41 21 -41
q48 0 192 116.5t168 168.5l177 374q-21 39 -58 39q-128 0 -314 -259.5t-186 -397.5z" />
    <glyph glyph-name="e" unicode="e" horiz-adv-x="629" 
d="M-16 227q0 172 175.5 445t327.5 289q220 -181 220 -187q0 -138 -123 -279t-203 -141q-89 0 -178 111q-90 -189 -90 -268q0 -41 32 -41q41 0 95 37.5t79 74.5q51 -28 97 -104q-108 -129 -213 -129q-36 0 -127.5 80.5t-91.5 111.5zM229 508q0 -13 32 -36t52 -23
q71 0 168 132.5t97 202.5q0 43 -52 43q-74 0 -185.5 -152t-111.5 -167z" />
    <glyph glyph-name="f" unicode="f" horiz-adv-x="475" 
d="M-174 -227q0 52 356 909q-34 18 -71 70l2 8q53 25 120 28q159 386 239 503.5t140 117.5q13 -10 30 -25q34 -31 36 -31q33 -10 34 -11q25 -21 41.5 -43t24.5 -44t8 -45q0 -38 -22 -141q-24 8 -64.5 46.5t-40.5 55.5q0 13 12 54q11 41 11 53q0 17 -2 22q-39 -15 -84 -74
t-89 -157l-120 -266q59 6 102 6q45 0 83 -26t38 -62l-6 -4q-88 0 -270 -33q-307 -748 -402 -1020l-6 -4q-19 2 -59.5 48t-40.5 65z" />
    <glyph glyph-name="g" unicode="g" horiz-adv-x="743" 
d="M-72 -152q0 35 13 35q8 0 26.5 -12t57 -48t39 -37.5t4.5 -19.5q6 -30 13.5 -40.5t33.5 -10.5q58 0 113 70t105 208l113 310q-67 -78 -175 -168t-156 -90q-28 0 -89 64t-61 92q0 228 235.5 500t370.5 272q16 0 62.5 -56t46.5 -67l-4 -12v-7q76 -59 86 -72t10 -24
q0 -8 -132 -350.5t-184.5 -462t-114.5 -204.5t-112 -85q-82 0 -191.5 71t-109.5 144zM109 201q102 21 233 133t164 211l18 -6q117 230 117 252q0 43 -45 43q-98 0 -284 -226t-203 -407z" />
    <glyph glyph-name="h" unicode="h" horiz-adv-x="754" 
d="M-104 119l228 456l263 577q46 107 78 214q26 0 121 -125l-242 -524q213 237 336 237q29 0 49.5 -51.5t20.5 -89.5l-7 -25q0 -1 9 -19q20 -39 20 -48q0 -10 -57 -129l-119 -251q-62 -131 -102.5 -235.5t-42.5 -106t-7 -1.5q-24 0 -68 35.5t-44 56.5q0 29 119 281l206 434
h-6q-51 0 -226.5 -140.5t-229.5 -256.5l-114 -245q-57 -122 -59 -124t-8 -2q-14 0 -66 34t-52 48z" />
    <glyph glyph-name="i" unicode="i" horiz-adv-x="410" 
d="M-37 127q0 34 365 809l8 4q20 -4 64 -48q37 -38 37 -54q0 -3 -1 -4l-164 -353q-169 -359 -184 -454l-6 -2q-27 0 -73 39.5t-46 62.5zM414 1139q0 19 26.5 90t34.5 71q14 0 69 -46t50 -56l-37 -78q-16 -33 -23 -45t-12 -18t-8 -6q-10 0 -55 39t-45 49z" />
    <glyph glyph-name="j" unicode="j" horiz-adv-x="326" 
d="M-373 -295q0 19 19 19q22 -23 32 -23q142 0 431 805l100 283q54 152 55.5 154.5t5.5 2.5q20 0 62.5 -39t42.5 -57q0 -12 -136.5 -408.5t-253.5 -599t-214 -202.5q-42 0 -93 19.5t-51 45.5zM346 1171q0 14 55 158q14 0 68.5 -45.5t54.5 -54.5q0 -2 -27 -55.5t-38.5 -73
t-13.5 -19.5q-4 0 -51.5 37.5t-47.5 52.5z" />
    <glyph glyph-name="k" unicode="k" horiz-adv-x="655" 
d="M-68 158q0 21 73 182l205 438l284 592q20 -3 62 -48t42 -62l-279 -584q105 96 225 186t154 90q12 0 43 -46.5t31 -61.5l-2 -10q-166 -47 -395 -248q102 -69 119 -83t29 -48.5t12 -85.5q0 -140 -95 -359l-6 -4q-30 8 -112 91l-7 7q11 15 44.5 150.5t33.5 171.5
q0 94 -53 94q-40 0 -84.5 -33t-72.5 -97l-144 -329q-24 0 -65.5 38.5t-41.5 58.5z" />
    <glyph glyph-name="l" unicode="l" horiz-adv-x="334" 
d="M-61 125q0 9 63 153l374 829q112 247 114 249t6 2q17 0 56.5 -39t39.5 -59l-320 -695q-215 -469 -215 -524q0 -6 -6 -6q-17 0 -64.5 38t-47.5 52z" />
    <glyph glyph-name="m" unicode="m" horiz-adv-x="1130" 
d="M-88 164l250 529q75 163 89.5 203t23.5 57.5t14 17.5q28 0 108 -109l-55 -117q218 216 320 216q15 0 30 -23t34 -74.5t22.5 -70t3.5 -56.5q209 209 313 209q23 0 51.5 -47.5t28.5 -71.5l-8 -24q0 -5 11 -27q17 -32 17 -41q0 -2 -34 -73l-102 -211q-112 -230 -127 -263
q-44 -99 -63 -164q-4 -14 -6.5 -16t-5.5 -2q-21 0 -68.5 37t-47.5 55q0 30 145 330q176 362 176 369q-69 -7 -175.5 -95.5t-200.5 -214.5t-183 -366q-17 -46 -43 -88q-20 0 -72.5 33t-52.5 47q0 37 162 352q162 314 162 336q0 8 -2 14q-83 -2 -239.5 -155.5t-213.5 -276.5
l-131 -288q-10 -23 -18 -29q-20 0 -66.5 39t-46.5 59z" />
    <glyph glyph-name="n" unicode="n" horiz-adv-x="764" 
d="M-100 129q1 0 10 17l193 393q77 159 85 177q29 63 51 120l37 104q22 -3 117 -104l-53 -123q244 237 352 237q23 0 44.5 -39.5t21.5 -70.5l-6 -25q0 -14 18 -43q21 -32 21 -43l-347 -717l-6 -2q-17 0 -71 34.5t-54 49.5q0 18 168 338q173 329 174 365q-39 -2 -89.5 -28
t-120.5 -83t-141 -135.5t-108 -145.5l-169 -360l-9 -4q-18 0 -68 38t-50 50z" />
    <glyph glyph-name="o" unicode="o" horiz-adv-x="715" 
d="M-8 203q0 201 170 502t309 301q62 0 121 -62t59 -125q0 -10 35 -51q37 -43 37 -72q0 -190 -231 -458.5t-328 -268.5q-34 0 -103 95t-69 139zM109 145q0 -39 24 -39q101 0 283 265t182 381q0 45 -23.5 79.5t-58.5 34.5q-116 0 -261.5 -287t-145.5 -434z" />
    <glyph glyph-name="p" unicode="p" horiz-adv-x="741" 
d="M-268 -246q0 15 452 957q49 100 84 221q4 10 11 10q18 0 61 -51.5t43 -71.5l-12 -31q175 166 229 166q33 0 70 -67l51 -70q33 -45 33 -80q0 -178 -197 -453.5t-358 -275.5q-71 0 -144 101l-134 -310q-69 -159 -71 -161.5t-8 -2.5q-20 0 -65 49.5t-45 69.5zM82 160
q13 -35 47 -35q123 0 312.5 261.5t189.5 395.5q0 33 -21 33q-37 0 -181.5 -107.5t-176.5 -176.5z" />
    <glyph glyph-name="q" unicode="q" horiz-adv-x="715" 
d="M-41 186q0 122 174.5 446t327.5 324q50 0 96 -46.5t68 -102.5q59 121 67 121q9 0 52.5 -48.5t43.5 -60.5l-124 -268l-416 -926l-8 -4q-22 0 -67.5 36.5t-45.5 55.5q0 36 180 393q-107 -98 -170 -98q-47 0 -112.5 65.5t-65.5 112.5zM106 168q0 -29 15 -29q32 0 126 62.5
t140.5 126t117 220t70.5 220.5q0 66 -57 66q-106 0 -259 -268t-153 -398z" />
    <glyph glyph-name="r" unicode="r" horiz-adv-x="559" 
d="M-88 129l160 348q163 354 186 467l6 6q21 0 69 -39.5t48 -56.5q0 -19 -49 -127q170 188 221 188q17 0 66.5 -37.5t66.5 -68.5q-41 -81 -74 -153.5t-56 -130t-24.5 -59t-5.5 -1.5q-19 0 -59.5 37t-40.5 55q0 38 78 184q-59 -34 -120.5 -96t-123 -150t-121.5 -214
l-125 -265q-19 3 -60.5 48.5t-41.5 64.5z" />
    <glyph glyph-name="s" unicode="s" horiz-adv-x="559" 
d="M-70 205q0 38 24 104t38 66t65.5 -37t51.5 -51l-40 -85q-18 -38 -18 -46l8 -2q85 0 194 124t109 209q0 21 -24 21q-7 0 -33 -5q-25 -5 -33 -5q-24 0 -89 81t-65 100q0 21 38.5 90.5t133 135.5t191.5 66q36 0 104 -65t68 -99q0 -21 -14 -21q-11 0 -34.5 22.5t-28 26
t-25.5 3.5q-78 0 -182.5 -63t-104.5 -132q0 -18 23 -18l69 8q32 0 89 -78t57 -113q0 -130 -156 -289t-291 -159q-16 0 -43 45t-30 65q-10 12 -29.5 39t-21 35t-1.5 27z" />
    <glyph glyph-name="t" unicode="t" horiz-adv-x="410" 
d="M-51 141q0 34 272 600q-45 69 -45 86t92 23l185 373q15 0 57.5 -45.5t42.5 -59.5l-127 -262q49 6 100 6q12 0 41 -42.5t29 -55.5q0 -5 -6 -8q-71 0 -217 -15l-236 -493q25 16 39 31l47 -109q-187 -156 -194 -170l-6 -2q-14 0 -44 57t-30 86z" />
    <glyph glyph-name="u" unicode="u" horiz-adv-x="752" 
d="M-25 240q0 45 160 379.5t176 334.5q20 0 66.5 -27.5t46.5 -49.5l-97 -182q-50 -96 -93.5 -188t-76.5 -177.5t-48 -151.5q60 2 143 63t171 162.5t135 198.5l144 311l9 5q18 0 67 -35t49 -52l-51 -100q-83 -162 -192.5 -402.5t-120 -274.5t-10.5 -50q0 -10 -7 -10
q-28 0 -122 112l55 117q-211 -217 -305 -217q-25 0 -52.5 51t-27.5 88l4 19q0 7 -10 33q-13 33 -13 43z" />
    <glyph glyph-name="v" unicode="v" horiz-adv-x="623" 
d="M2 117q0 25 54 262.5t182 566.5q62 -24 129 -90q-103 -235 -211 -629l6 -6q61 107 283 420t255 313q9 0 43.5 -41t34.5 -51v-12q-323 -367 -590 -836l-6 -2q-24 0 -102 45t-78 60z" />
    <glyph glyph-name="w" unicode="w" horiz-adv-x="1018" 
d="M-8 115q0 95 77 347.5t167 481.5q62 -24 129 -90q-103 -235 -211 -629l6 -6q34 65 159 252l200 299q75 113 102 135q44 0 118 -90q-99 -229 -192 -598l8 2q67 116 282.5 416.5t231.5 300.5q21 0 54.5 -40t33.5 -65q-363 -434 -592 -837q-37 0 -110.5 40.5t-73.5 53.5
q0 102 86 373q-182 -249 -291 -441q-37 0 -110.5 40.5t-73.5 54.5z" />
    <glyph glyph-name="x" unicode="x" horiz-adv-x="631" 
d="M-129 188q0 14 43 48q72 57 281 256q-41 151 -41 311q0 119 6 143l4 4q21 0 72 -43t51 -63l-8 -105q0 -71 16 -159l369 358q27 -35 75 -113q-61 -67 -415 -399q34 -218 151 -422l-6 -6q-101 53 -140.5 113t-97.5 227l-276 -266q-11 0 -47.5 51.5t-36.5 64.5z" />
    <glyph glyph-name="y" unicode="y" horiz-adv-x="745" 
d="M-63 -154q0 21 8 21q28 0 131 -72q9 -61 37 -61q54 0 98 103l176 405q-185 -189 -270 -189q-13 0 -26 10t-26.5 31t-21.5 42l-49 145q0 83 313 675q15 0 64 -34.5t49 -49.5l-207 -407q-39 -76 -67 -147t-28 -101q0 -9 3 -14q93 3 223.5 127.5t204.5 275.5l99 208
q47 98 49 99.5t8 1.5q17 0 61.5 -35.5t44.5 -55.5q0 -1 -91.5 -189.5t-155.5 -338.5l-232 -565q-15 -32 -49 -58.5t-64 -26.5q-71 0 -176.5 68.5t-105.5 131.5z" />
    <glyph glyph-name="z" unicode="z" horiz-adv-x="664" 
d="M-104 168q0 28 181 197.5t548 453.5q-182 -24 -322 -24q-13 0 -49 49.5t-41 66.5l4 11h82q175 0 273 15q56 9 73 9q20 0 74.5 -72t54.5 -96l-2 -6q-283 -179 -735 -622q246 24 393 24h39q48 -67 74 -119l-6 -8l-113 4q-140 0 -391 -28q-45 -5 -43 -7q-18 1 -56 64.5
t-38 87.5z" />
    <glyph glyph-name="braceleft" unicode="{" horiz-adv-x="758" 
d="M4 -129q0 40 16.5 83.5t85.5 141.5q162 227 213.5 308.5t51.5 113.5q0 47 -52.5 80.5t-125.5 40.5l-39 49q33 -6 79 -6q116 0 192.5 53t116.5 138t109 300q42 132 69 209l37 105q10 29 31.5 48.5t54.5 29.5t77 10q147 0 233 -74l-66 2q-139 0 -179 -50.5t-126 -346.5
q-37 -127 -85.5 -225t-78 -130.5t-92.5 -61t-164 -50.5q158 -83 158 -158q0 -41 -180 -319t-180 -318q0 -58 131 -86l49 -49q-336 16 -336 162z" />
    <glyph glyph-name="bar" unicode="|" horiz-adv-x="563" 
d="M-41 -252q308 689 680 1782l70 -45q-241 -724 -697 -1788z" />
    <glyph glyph-name="braceright" unicode="}" horiz-adv-x="758" 
d="M-276 -229l65 -2q146 0 183 54.5t122 342.5q38 125 86.5 224.5t77.5 131.5t92 60t164 49q-158 83 -158 157q0 40 181 318q180 278 180 321q0 59 -131 86l-47 48q333 -13 333 -160q0 -88 -184 -334q-182 -244 -182 -313q0 -47 52 -80.5t128 -40.5l37 -49q-34 6 -80 6
q-255 0 -332 -240q-45 -144 -111.5 -339t-80.5 -232t-55 -59.5t-107 -22.5q-144 0 -233 74z" />
    <glyph glyph-name="asciitilde" unicode="~" horiz-adv-x="1196" 
d="M125 578q147 184 262 184q78 0 234 -107q155 -106 223 -106q99 0 213 151l78 -135q-139 -141 -248 -141q-106 0 -234 106q-127 107 -215 107q-105 0 -213 -172z" />
    <glyph glyph-name="uni00A0" unicode="&#xa0;" horiz-adv-x="362" 
 />
    <glyph glyph-name="cent" unicode="&#xa2;" horiz-adv-x="694" 
d="M84 -41l135 258q-135 105 -135 135q0 203 157 471.5t324 268.5q9 0 74 -50l139 277l60 -70l-144 -252q8 -11 35 -41q76 -85 76 -125q0 -47 -21.5 -105t-40.5 -58q-20 0 -60 33.5t-40 56.5q43 68 43 139q0 29 -16 45l-357 -700q77 12 174 155q17 0 56 -51t39 -72
q0 -16 -78.5 -93t-138.5 -77q-8 0 -86 66l-150 -293zM229 352q0 -50 19 -78l346 680q-123 -40 -244 -249t-121 -353z" />
    <glyph glyph-name="sterling" unicode="&#xa3;" horiz-adv-x="860" 
d="M16 119q77 34 258 473l-124 -8l-48 82h207l139 375q34 91 72 151.5t76.5 90.5t73.5 30q39 0 91 -87t52 -120q0 -52 -20 -111l-111 90q16 43 16 82v17q-76 -40 -233 -510h158l47 -66l-234 -10q-138 -364 -223 -457q163 17 274 17t137.5 -28t86.5 -122q-167 15 -349 15
q-31 0 -72 -2l-192 -13q-14 0 -43 47q-34 60 -39 64z" />
    <glyph glyph-name="yen" unicode="&#xa5;" horiz-adv-x="1004" 
d="M57 457h342l78 127l-287 -4l-67 79h235q-73 77 -73 195q0 185 182 469l6 2q16 0 69.5 -43t53.5 -57q-112 -174 -145 -265.5t-33 -158.5q0 -107 69 -107q44 0 109 43q214 327 432 602l6 2q14 0 57.5 -42.5t43.5 -59.5q0 -16 -60 -94q-99 -123 -177 -234l-175 -252h250
l47 -69l-348 -4l-86 -129h323l45 -70l-417 -4l-243 -394q-24 -43 -30 -46q-19 3 -71 44.5t-52 55.5q0 15 207 336l-221 -2z" />
    <glyph glyph-name="dieresis" unicode="&#xa8;" horiz-adv-x="338" 
d="M438 1188q0 23 29 102.5t37 79.5q9 0 64 -43t55 -51q-34 -57 -84 -170q-20 5 -60.5 37.5t-40.5 44.5zM647 1133q0 35 49 149l6 4q15 0 63 -41.5t44 -48.5l-72 -145q-12 4 -51 35t-39 47z" />
    <glyph glyph-name="copyright" unicode="&#xa9;" horiz-adv-x="1272" 
d="M377 926q0 209 154 358.5t364 149.5q206 0 327 -130.5t121 -334.5q0 -205 -139 -350.5t-348 -145.5t-344 126.5t-135 326.5zM444 926q0 -183 111.5 -291.5t296.5 -108.5q183 0 303.5 130t120.5 313q0 180 -107 290.5t-286 110.5q-186 0 -312.5 -129.5t-126.5 -314.5z
M592 948q0 132 88 214.5t217 82.5q113 0 203 -102l-49 -45q-63 84 -148 84q-101 0 -169 -61t-68 -154q0 -102 63.5 -163t167.5 -61t162 101l45 -43q-78 -121 -219 -121q-122 0 -207.5 74.5t-85.5 193.5z" />
    <glyph glyph-name="guillemotleft" unicode="&#xab;" horiz-adv-x="793" 
d="M90 555q246 160 404 360l84 -96q-206 -175 -383 -289q57 -180 63 -458l-49 49q-21 181 -72 311q-36 85 -47 123zM395 512q243 160 404 360l84 -96q-200 -169 -385 -289q57 -177 63 -458l-49 49q-21 181 -70 311q-36 85 -47 123z" />
    <glyph glyph-name="uni00AD" unicode="&#xad;" horiz-adv-x="592" 
d="M84 510q0 9 12 18l97 -4l268 13q15 0 38 -39.5t23 -48.5l-6 -9q-224 -32 -332 -32q-38 0 -50 5.5t-31 39.5t-19 57z" />
    <glyph glyph-name="registered" unicode="&#xae;" horiz-adv-x="1231" 
d="M365 930q0 209 154.5 359.5t361.5 150.5q208 0 328 -130t120 -335q0 -206 -139.5 -351t-347.5 -145t-342.5 127t-134.5 324zM432 930q0 -183 111 -290.5t297 -107.5q182 0 302 130t120 313q0 184 -106.5 292.5t-287.5 108.5q-185 0 -310.5 -130.5t-125.5 -315.5zM700 707
v544h201q63 0 104.5 -40.5t41.5 -102.5q0 -126 -121 -147l178 -254h-90l-156 239h-84v-239h-74zM774 1008q10 2 26 1l72 -3q38 0 69.5 30t31.5 66q0 32 -19 57t-47 25h-133v-176z" />
    <glyph glyph-name="acute" unicode="&#xb4;" horiz-adv-x="719" 
d="M582 1204q264 129 417 277q68 -46 68 -78q0 -29 -196 -131.5t-242 -102.5q-19 0 -47 35z" />
    <glyph glyph-name="cedilla" unicode="&#xb8;" horiz-adv-x="621" 
d="M-14 -281q82 -34 123 -34q79 0 79 82q0 27 -15 71q-11 34 -33 81q-8 19 -12 24l-1 1q2 22 62 79t102 79l26 -18q-98 -107 -98 -170q0 -9 49 -98t49 -140q0 -77 -102 -77q-22 0 -46.5 5t-50.5 14.5t-62.5 29t-43.5 30.5z" />
    <glyph glyph-name="guillemotright" unicode="&#xbb;" horiz-adv-x="793" 
d="M-88 178q199 169 385 289q-60 191 -64 459l48 -49q20 -181 71 -312l31 -71l16 -52q-242 -156 -403 -360zM215 135q200 169 385 289q-57 181 -63 459l49 -49q20 -177 69 -312l31 -71l16 -52q-243 -160 -403 -360z" />
    <glyph glyph-name="circumflex" unicode="&#x2c6;" horiz-adv-x="719" 
d="M360 1280l2 6q106 35 203 115l135 113q51 42 58 42q20 0 60 -49.5t40 -68.5l-2 -98q0 -155 47 -273q-52 25 -73.5 47t-37.5 100.5t-22 212.5q-42 -38 -170.5 -133.5t-161.5 -95.5q-11 0 -44.5 34t-33.5 48z" />
    <glyph glyph-name="ring" unicode="&#x2da;" horiz-adv-x="719" 
d="M547 1280q0 94 78 178t170 84h6q90 -71 90 -88q0 -4 9 -19q18 -30 18 -46q0 -88 -76.5 -159t-167.5 -71q-26 0 -76.5 46t-50.5 75zM635 1251q0 -21 2 -30q8 -2 25 -2q65 0 134.5 61.5t69.5 126.5q0 47 -39 47q-78 0 -135 -61t-57 -142z" />
    <glyph glyph-name="tilde" unicode="&#x2dc;" horiz-adv-x="733" 
d="M309 1257q16 64 76.5 105t128.5 41q39 0 154 -109q114 -108 182 -108q83 0 172 123q22 -49 22 -76q0 -57 -61.5 -102.5t-128.5 -45.5q-61 0 -168 101q-109 102 -151 102q-30 0 -55 -16t-60 -88z" />
    <glyph glyph-name="afii10023" unicode="&#x401;" 
d="M-25 186l110 246l92 215l226 553q-45 63 -45 72l2 6q116 33 424 33q87 0 102.5 -4.5t54 -52t38.5 -62.5l-4 -8l-94 2q-160 0 -322 -29q-8 -33 -147 -360q158 8 307 8q12 0 38.5 -53t26.5 -72l-4 -8l-82 2q-142 0 -342 -25q-169 -366 -200 -471q79 8 174 8q147 0 162 -11
t40.5 -53t36.5 -77l-6 -6l-166 6q-138 0 -215 -16q-37 -9 -49 -9q-22 0 -90 70t-68 96zM585 1521q0 23 29 102.5t37 79.5q9 0 64 -43t55 -51q-34 -57 -84 -170q-20 5 -60.5 37.5t-40.5 44.5zM794 1466q0 35 49 149l6 4q15 0 63 -41.5t44 -48.5l-72 -145q-12 4 -51 35t-39 47
z" />
    <glyph glyph-name="afii10051" unicode="&#x402;" horiz-adv-x="987" 
d="M115 119v6q260 494 497 1044q-52 -2 -145 -20q-100 -19 -145 -19q-23 0 -52.5 50t-36.5 86l5 8q201 35 434 51l12 41q25 -6 49 -37q190 12 424 12q15 0 49 -40t47 -66l-4 -10l-471 -41l-215 -467q213 237 336 237q29 0 49.5 -53t20.5 -88q0 -7 -6 -25q28 -56 28 -67
q0 -17 -152.5 -355t-260 -521t-156.5 -183q-79 0 -189 71.5t-110 143.5q0 35 14 35q7 0 58.5 -41.5t57.5 -49t13 -38.5q5 -22 13 -30.5t30 -8.5q62 0 260.5 394t307.5 667h-7q-57 0 -232.5 -147t-231.5 -267l-162 -348l-11 -6q-24 7 -71 37.5t-47 44.5z" />
    <glyph glyph-name="afii10052" unicode="&#x403;" horiz-adv-x="680" 
d="M-29 166l256 549q146 314 238 559q-30 37 -39 72l6 8q58 8 203 8q165 0 251.5 -1.5t99.5 -6.5t32.5 -38t19.5 -61q0 -8 -12 -18q-17 0 -405 18l4 -14q0 -28 -240 -557l-291 -641q-25 6 -71 52t-52 71zM680 1435q264 129 417 277q68 -46 68 -78q0 -29 -196 -131.5
t-242 -102.5q-19 0 -47 35z" />
    <glyph glyph-name="afii10053" unicode="&#x404;" horiz-adv-x="854" 
d="M61 272v21q0 188 105 456.5t259.5 443.5t317.5 175q28 0 83.5 -35t113 -85.5t76 -79t18.5 -78.5q0 -87 -49 -185l-6 -2q-19 0 -77 40t-58 58q0 5 24 72q23 64 23 98q0 66 -84 66q-223 0 -465 -506q30 -2 59 -2q49 0 136 6t133 6q18 0 37.5 -29.5t25.5 -58.5l-8 -8
q-229 -33 -332 -33q-60 0 -82 50q-88 -208 -88 -373q0 -148 96 -148q46 0 97 28t141 144q52 -2 135 -108q-123 -197 -297 -197q-66 0 -200 101t-134 163z" />
    <glyph glyph-name="afii10054" unicode="&#x405;" horiz-adv-x="780" 
d="M-29 287q0 112 76 207l6 2q14 0 77 -50t63 -59q-99 -147 -99 -205q0 -24 37 -24q121 0 274.5 187.5t153.5 289.5q0 29 -121 29q-38 0 -55.5 7t-60 57t-71 98.5t-28.5 72.5q0 65 57.5 161.5t188 181.5t274.5 85h21q36 0 121.5 -108.5t85.5 -147.5q0 -19 -2 -24l-13 -5
q-89 117 -151 117q-147 0 -273.5 -94t-158.5 -229q26 -8 61 -11q109 -10 127 -30t88 -110t70 -118q0 -29 -35.5 -123t-131.5 -209t-198.5 -180t-201.5 -65q-12 0 -29.5 20t-83.5 142q-21 10 -44.5 61t-23.5 74z" />
    <glyph glyph-name="afii10055" unicode="&#x406;" horiz-adv-x="422" 
d="M-29 166l314 692q92 205 174 436l6 4q22 -2 74.5 -45.5t52.5 -66.5q0 -5 -109 -260l-244 -566q-135 -312 -137 -314.5t-8 -2.5q-24 0 -73.5 49t-49.5 74z" />
    <glyph glyph-name="afii10056" unicode="&#x407;" horiz-adv-x="422" 
d="M-29 166l314 692q92 205 174 436l6 4q22 -2 74.5 -45.5t52.5 -66.5q0 -5 -109 -260l-244 -566q-135 -312 -137 -314.5t-8 -2.5q-24 0 -73.5 49t-49.5 74zM429 1504q0 23 29 102.5t37 79.5q9 0 64 -43t55 -51q-34 -57 -84 -170q-20 5 -60.5 37.5t-40.5 44.5zM638 1449
q0 35 49 149l6 4q15 0 63 -41.5t44 -48.5l-72 -145q-12 4 -51 35t-39 47z" />
    <glyph glyph-name="afii10057" unicode="&#x408;" horiz-adv-x="459" 
d="M-338 -160q0 17 12 17q11 0 44 -24t37.5 -28.5t4.5 -21.5q0 -10 17 -10q101 0 272 436l359 913q-46 -18 -82 -18q-16 0 -50 52.5t-34 70.5l6 4q37 0 108 26q71 27 101 27q28 0 123 -149q-77 -173 -207 -521q-190 -513 -238 -631t-113.5 -210t-121.5 -92q-49 0 -143.5 57
t-94.5 102z" />
    <glyph glyph-name="afii10058" unicode="&#x409;" horiz-adv-x="1698" 
d="M-18 276q0 100 13.5 161t64.5 87.5t139 26.5q49 0 90 -45.5t41 -62.5q0 -11 -11 -33t-16 -22q-1 0 -2 1q-14 15 -35 31q-19 2 -36 2q-71 0 -92.5 -31.5t-21.5 -99.5q0 -156 103 -156q35 0 72.5 20.5t92 116.5t144.5 323.5t207 573.5q-29 14 -56.5 57.5t-27.5 69.5l4 15
q200 35 353 35l301 -5q31 0 96 -106l-4 -10l-37 -2q22 -26 22 -45q0 -32 -81 -189l-105 -203q87 37 164 37q129 0 232.5 -109.5t103.5 -199.5q0 -148 -248.5 -312.5t-411.5 -164.5q-38 0 -71 33q-8 6 -54 63l-24 -47l-6 -2q-17 0 -68 47t-51 62q0 24 215 479l258 547
l-174 -7q-88 -4 -174 -24q-169 -512 -235 -672t-134.5 -278t-133.5 -178t-126 -60q-43 0 -161.5 116.5t-118.5 159.5zM930 168q16 -4 37 -4q149 0 378.5 152t229.5 286q0 119 -162 119q-100 0 -209 -39l-24 51q-64 -150 -250 -565z" />
    <glyph glyph-name="afii10059" unicode="&#x40a;" horiz-adv-x="1436" 
d="M-33 160v6q14 35 164 362q256 559 324 766l6 4q26 -5 76.5 -45.5t50.5 -60.5q0 -10 -178 -432h26q46 0 131 6t129 6q15 0 33 -29q134 267 213 465q34 82 49 82q27 0 66 -43t39 -69q0 -43 -187 -392q89 37 166 37q127 0 230.5 -110t103.5 -199q0 -149 -247 -313t-410 -164
q-13 0 -39.5 9t-87.5 87l-25 -47l-6 -2q-18 0 -67.5 46.5t-49.5 64.5q0 37 213 473q-185 -25 -287 -25q-29 0 -41 8q-85 -205 -262 -602l-10 -6q-21 4 -72 51t-51 66zM639 168q18 -4 37 -4q153 0 380.5 151t227.5 287q0 119 -162 119q-100 0 -209 -39l-24 51
q-63 -154 -250 -565z" />
    <glyph glyph-name="afii10060" unicode="&#x40b;" horiz-adv-x="951" 
d="M88 119v6q219 409 498 1044q-60 -8 -142 -22q-101 -17 -149 -17q-22 0 -52.5 52.5t-35.5 83.5l4 8q179 31 436 49q0 17 10 43q24 -6 52 -39q216 14 421 14q13 0 52 -44.5t45 -61.5l-4 -10l-471 -41l-215 -467q213 237 335 237q30 0 50 -51.5t20 -89.5l-6 -25l29 -67
q0 -8 -7 -23l-210 -449q-15 -32 -101 -245q-2 -6 -10 -6q-20 0 -66.5 37t-46.5 55q0 29 146 336l180 379h-6q-33 0 -121 -59.5t-188.5 -154.5t-146.5 -181q-6 -12 -171 -367l-10 -6q-18 2 -68.5 35t-50.5 47z" />
    <glyph glyph-name="afii10061" unicode="&#x40c;" horiz-adv-x="850" 
d="M-8 150l512 1193q17 0 75 -39.5t58 -52.5l-182 -422q224 177 399 347q189 192 203 192q17 0 54.5 -46.5t37.5 -66.5q0 -15 -207 -197t-450 -345q68 -12 129 -45t74.5 -61.5t13.5 -127.5q0 -89 -22.5 -193t-59.5 -205.5t-41.5 -106.5t-9.5 -5q-21 0 -81.5 47t-60.5 66
q0 8 39 106q47 129 57.5 169t20.5 98t10 98q0 70 -110 70q-45 0 -88 -15q-63 -143 -151 -365.5t-95 -222.5q-19 0 -72 56t-53 74zM742 1435q264 129 417 277q68 -46 68 -78q0 -29 -196 -131.5t-242 -102.5q-19 0 -47 35z" />
    <glyph glyph-name="afii10062" unicode="&#x40e;" horiz-adv-x="762" 
d="M68 215q0 35 12 35q5 0 31.5 -20t56.5 -45.5t31.5 -31t11.5 -49.5q5 -22 43 -22q54 0 125 105.5t258 598.5q-155 -222 -365 -317q-30 12 -81.5 79t-51.5 97q0 248 279 696l8 5q99 -60 117 -115q-133 -229 -179 -353.5t-59 -222.5q57 21 131 78t179.5 173t127.5 153
t97 223l6 4q33 -15 72.5 -49.5t39.5 -54.5q0 -24 -78 -203l-216 -502q-137 -322 -197.5 -399.5t-99.5 -77.5q-80 0 -189.5 71t-109.5 144zM539 1614q0 160 55 246l84 -57q-47 -85 -47 -201q0 -158 104 -158q81 0 198.5 110t150.5 197l98 -75q-40 -100 -154 -202t-202 -102
q-19 0 -121 40.5t-122.5 56.5t-32 53t-11.5 92z" />
    <glyph glyph-name="afii10145" unicode="&#x40f;" horiz-adv-x="803" 
d="M-115 -420q210 291 265 506q-29 23 -75 84.5t-46 89.5q0 100 77 308t371 773l8 5q24 -7 73 -53t49 -60q0 -2 -1 -4q-175 -292 -293 -568t-118 -391q176 66 339.5 292t364.5 720l6 4q24 -9 68.5 -47.5t45.5 -52.5q0 -41 -143 -348t-307.5 -473.5t-386.5 -270.5
q113 -43 113 -94q0 -50 -153 -273t-187 -223q-7 0 -38.5 27t-31.5 41v8z" />
    <glyph glyph-name="afii10017" unicode="&#x410;" horiz-adv-x="856" 
d="M-45 233q0 69 201 394q-31 31 -35 53l4 8q39 20 82 23q53 86 113 169.5t127 165.5t176.5 200t121.5 118q28 0 111.5 -88t83.5 -117q0 -27 -52 -181q-54 -163 -102 -340q-41 -151 -76 -312q-33 -151 -62 -314q-5 -28 -8 -31q-2 -1 -5 -1q-21 0 -91.5 40.5t-70.5 57.5
q0 62 145 532h-49q-144 0 -264 -10q-150 -280 -225 -502l-8 -6q-27 5 -72 62t-45 79zM369 713q29 4 67 4l207 -10q150 430 150 477q0 16 -13 16q-35 0 -194 -195t-217 -292z" />
    <glyph glyph-name="afii10018" unicode="&#x411;" horiz-adv-x="883" 
d="M-55 195q0 17 55 127q125 252 221 477l207 485q-35 48 -35 82q0 10 13 18l65 -4l6 15l8 4l39 -19q81 0 226 6q169 7 223 7q35 0 61 -88l-6 -9q-186 -28 -434 -32q-54 -135 -186 -406q76 72 262 72q123 0 177 -38t54 -124q0 -168 -169.5 -462t-315.5 -294q-65 0 -185.5 49
t-146.5 97l-43 -68q-26 13 -61 49t-35 56zM125 201q0 -32 82.5 -58t140.5 -26q104 0 259 284t157 416q-66 23 -123 23q-210 0 -363 -262t-153 -377z" />
    <glyph glyph-name="afii10019" unicode="&#x412;" horiz-adv-x="914" 
d="M-27 197q0 7 234 516q22 46 101.5 238t86.5 239q-67 71 -67 84q0 29 126 49t214 20q108 0 144.5 -9.5t112.5 -134t76 -169.5q0 -41 -108.5 -132.5t-183.5 -117.5q68 -28 133 -108.5t65 -147.5q0 -153 -243 -320t-416 -167q-32 0 -47.5 11t-77.5 85l-25 -47l-6 -2
q-18 0 -68.5 46.5t-50.5 66.5zM137 168q20 -4 37 -4q151 0 379.5 152.5t228.5 285.5q0 119 -161 119q-105 0 -209 -39l-25 51q-55 -136 -250 -565zM422 827q136 10 294 98t158 189q0 46 -41.5 74.5t-97.5 28.5q-82 0 -174 -37q-61 -187 -139 -353z" />
    <glyph glyph-name="afii10020" unicode="&#x413;" horiz-adv-x="680" 
d="M-29 166l256 549q146 314 238 559q-30 37 -39 72l6 8q58 8 203 8q165 0 251.5 -1.5t99.5 -6.5t32.5 -38t19.5 -61q0 -8 -12 -18q-17 0 -405 18l4 -14q0 -28 -240 -557l-291 -641q-25 6 -71 52t-52 71z" />
    <glyph glyph-name="afii10021" unicode="&#x414;" horiz-adv-x="961" 
d="M-182 -43q0 34 63 166q-9 20 -9 38q0 29 13 29q6 0 51 7q46 6 68 6q158 318 308.5 551t300 404t178.5 171q28 0 111 -88t83 -136q0 -8 -2 -13q-153 -418 -250 -887q80 0 88.5 -2.5t27.5 -43.5t19 -82q0 -62 -45 -149q-27 -54 -90 -190l-4 -2q-20 8 -65.5 36.5t-45.5 32.5
v5l99 202q13 23 13 36t-21 13q-54 0 -699 -8q-34 -83 -61 -170q-18 -57 -29 -57q-9 0 -55.5 55.5t-46.5 75.5zM178 203q66 -1 163 -1l224 1q123 521 281 960q-324 -275 -668 -960z" />
    <glyph glyph-name="afii10022" unicode="&#x415;" 
d="M-25 186l110 246l92 215l226 553q-45 63 -45 72l2 6q116 33 424 33q87 0 102.5 -4.5t54 -52t38.5 -62.5l-4 -8l-94 2q-160 0 -322 -29q-8 -33 -147 -360q158 8 307 8q12 0 38.5 -53t26.5 -72l-4 -8l-82 2q-142 0 -342 -25q-169 -366 -200 -471q79 8 174 8q147 0 162 -11
t40.5 -53t36.5 -77l-6 -6l-166 6q-138 0 -215 -16q-37 -9 -49 -9q-22 0 -90 70t-68 96z" />
    <glyph glyph-name="afii10024" unicode="&#x416;" horiz-adv-x="1131" 
d="M-27 184l2 9q145 189 406 471q-86 371 -86 659l8 6q32 -5 98.5 -45.5t73.5 -64.5q-3 -66 45 -582q33 67 328 715l6 6q27 -6 59.5 -38.5t38.5 -59.5l-254 -547q104 108 607 622l6 2q15 0 64.5 -46.5t49.5 -59.5v-8q-45 -64 -204 -217q-173 -167 -412 -408
q84 -387 174 -602l-6 -8q-22 5 -66 32.5t-64 47t-49.5 86t-76.5 206.5t-74 240l-129 -293q-97 -221 -100 -266l-6 -6q-21 4 -68 38.5t-47 51.5q0 20 174 403q-260 -304 -381 -471l-6 -2q-17 0 -64 55.5t-47 73.5z" />
    <glyph glyph-name="afii10025" unicode="&#x417;" horiz-adv-x="856" 
d="M-39 209l12 16q28 -10 79.5 -58t51.5 -69q0 -5 -2 -15t-2 -15q0 -21 70 -21q146 0 286 191.5t140 351.5q0 37 -12 65q-18 7 -37 7q-115 0 -246 -91q-12 4 -37 48t-31 65l5 6q224 103 350.5 204t176.5 189t50 113q0 115 -82 115q-116 0 -266 -299l-94 127q172 311 315 311
q46 0 91.5 -37t111 -125.5t65.5 -116.5l-2 -14q-14 -95 -129.5 -219.5t-251.5 -200.5q68 -17 119 -56.5t51 -86.5q0 -230 -160.5 -452t-365.5 -222q-61 0 -157.5 112.5t-98.5 176.5z" />
    <glyph glyph-name="afii10026" unicode="&#x418;" horiz-adv-x="930" 
d="M-27 176q0 17 222 496q231 499 260 608l8 6q25 -8 72 -46.5t47 -57.5q0 -24 -285 -670l545 496l129 305l8 4q35 -9 74.5 -45t46.5 -68l-266 -586q-136 -299 -218 -604l-8 -6q-30 6 -79.5 48.5t-49.5 70.5q0 12 217 532l-263 -222q-144 -122 -218 -224l-10 -2l-27 33
l-74 -166l-8 -4q-20 6 -71.5 45.5t-51.5 56.5z" />
    <glyph glyph-name="afii10027" unicode="&#x419;" horiz-adv-x="930" 
d="M-27 176q0 17 222 496q231 499 260 608l8 6q25 -8 72 -46.5t47 -57.5q0 -24 -285 -670l545 496l129 305l8 4q35 -9 74.5 -45t46.5 -68l-266 -586q-136 -299 -218 -604l-8 -6q-30 6 -79.5 48.5t-49.5 70.5q0 12 217 532l-263 -222q-144 -122 -218 -224l-10 -2l-27 33
l-74 -166l-8 -4q-20 6 -71.5 45.5t-51.5 56.5zM645 1614q0 160 55 246l84 -57q-47 -85 -47 -201q0 -158 104 -158q81 0 198.5 110t150.5 197l98 -75q-40 -100 -154 -202t-202 -102q-19 0 -121 40.5t-122.5 56.5t-32 53t-11.5 92z" />
    <glyph glyph-name="afii10028" unicode="&#x41a;" horiz-adv-x="850" 
d="M-8 150l512 1193q17 0 75 -39.5t58 -52.5l-182 -422q224 177 399 347q189 192 203 192q17 0 54.5 -46.5t37.5 -66.5q0 -15 -207 -197t-450 -345q68 -12 129 -45t74.5 -61.5t13.5 -127.5q0 -89 -22.5 -193t-59.5 -205.5t-41.5 -106.5t-9.5 -5q-21 0 -81.5 47t-60.5 66
q0 8 39 106q47 129 57.5 169t20.5 98t10 98q0 70 -110 70q-45 0 -88 -15q-63 -143 -151 -365.5t-95 -222.5q-19 0 -72 56t-53 74z" />
    <glyph glyph-name="afii10029" unicode="&#x41b;" horiz-adv-x="932" 
d="M-101 125q0 12 3 22h9q41 0 66.5 23t69.5 123l213 489l164 367q-67 -19 -74 -19q-8 0 -8 11q0 17 29 76q27 55 29 77l6 9q314 55 796 55h47v-2q0 -16 -24 -62l-41 -80l-115 -8l-268 -585q-140 -305 -223 -607l-9 -6q-29 9 -79 51t-50 68q0 52 199 508l246 563
q-185 -2 -289 -22q-2 -8 -71 -170l-283 -670q-74 -176 -104.5 -224.5t-69 -73t-103.5 -46.5h-10q-21 20 -38.5 62.5t-17.5 70.5z" />
    <glyph glyph-name="afii10030" unicode="&#x41c;" horiz-adv-x="1209" 
d="M-16 209q0 96 115 336t239.5 436.5t200 298.5t86.5 102q19 0 80 -80.5t61 -101.5q0 -10 -51 -164q-65 -199 -92 -334t-27 -186q79 164 311 487.5t302 323.5q21 0 49 -59t28 -80q0 -10 -4 -14q0 -5 11 -27q14 -27 14 -35q0 -7 -46 -134l-87 -245q-42 -118 -84 -271
l-82 -307q-40 -153 -42 -155t-5 -2q-25 0 -84.5 37t-59.5 57q0 69 115 427.5t168 475.5h-8q-421 -491 -572 -944q-3 -6 -8 -6q-19 0 -70 30t-51 40q0 183 54.5 501t109.5 449h-16q-51 -76 -99 -161q-39 -67 -96 -180q-27 -53 -52 -106q-24 -53 -46 -108q-22 -54 -42 -109
q-19 -55 -36 -111q-18 -55 -33 -111q-30 -114 -32 -118q-24 0 -71.5 61t-47.5 87z" />
    <glyph glyph-name="afii10031" unicode="&#x41d;" horiz-adv-x="848" 
d="M-37 176l217 479q-26 45 -26 64q0 20 65 26q159 334 185.5 406.5t39.5 128.5l9 6q18 -2 68 -45t50 -59q0 -18 -180 -430q71 9 242 12l24 -29q135 292 250 578l8 4q26 -3 76.5 -51.5t44.5 -61.5l-57 -127q-229 -513 -305 -703t-121 -360l-8 -6q-29 3 -79 48t-50 71
q0 56 217 518q-34 0 -303 -39q-143 -329 -236 -528l-8 -4q-19 2 -71 42t-52 60z" />
    <glyph glyph-name="afii10032" unicode="&#x41e;" horiz-adv-x="963" 
d="M90 381q0 323 208.5 634.5t407.5 311.5q26 0 160.5 -99t134.5 -122v-19q0 -207 -86.5 -486.5t-221 -443t-298.5 -163.5q-36 0 -100 65.5t-64 104.5q0 6 -67 61q-62 53 -68 74t-6 82zM246 313q0 -147 135 -147q174 0 320.5 328.5t146.5 556.5q0 143 -70 143
q-148 0 -340 -299.5t-192 -581.5z" />
    <glyph glyph-name="afii10033" unicode="&#x41f;" horiz-adv-x="932" 
d="M-16 184l436 965q-67 -19 -74 -19q-8 0 -8 11q0 17 29 76q26 53 28 77l6 9q314 55 797 55h47v-2q0 -16 -24 -62l-41 -80l-115 -8l-268 -585q-142 -310 -224 -607l-8 -6q-32 10 -80.5 51t-48.5 68q0 52 199 508l246 563q-185 -2 -289 -22q-62 -178 -477 -1098l-9 -4
q-33 9 -75 44.5t-47 65.5z" />
    <glyph glyph-name="afii10034" unicode="&#x420;" horiz-adv-x="801" 
d="M-37 156l438 1005q-57 76 -57 90q51 45 186 45q166 0 202 -23.5t107.5 -156.5t71.5 -186q0 -107 -71 -202.5t-187 -164.5t-235 -69q-22 0 -99 98q-84 -190 -213 -522l-8 -4q-28 5 -81.5 38t-53.5 52zM336 629q9 -2 33 -2q160 0 294 123.5t134 279.5q0 131 -170 131
q-40 0 -74 -6q-79 -206 -217 -526z" />
    <glyph glyph-name="afii10035" unicode="&#x421;" horiz-adv-x="846" 
d="M57 272v21q0 188 115.5 473t266.5 443.5t300 158.5q26 0 74 -30t110.5 -82.5t84.5 -82.5t22 -83q0 -86 -49 -185l-7 -2q-22 0 -78.5 39.5t-56.5 56.5l33 105q14 49 14 67q0 66 -84 66q-179 0 -381 -349.5t-202 -598.5q0 -148 96 -148q44 0 91.5 25.5t146.5 146.5
q48 0 135 -108q-123 -197 -297 -197q-74 0 -204 101t-130 163z" />
    <glyph glyph-name="afii10036" unicode="&#x422;" horiz-adv-x="719" 
d="M104 127q0 24 473 1047q-231 -44 -260 -44q-21 0 -54.5 53t-33.5 83l4 8q354 63 736 63q9 0 52.5 -48t43.5 -58l-4 -10l-318 -31q-333 -716 -499 -1186l-9 -4q-20 3 -75.5 55.5t-55.5 71.5z" />
    <glyph glyph-name="afii10037" unicode="&#x423;" horiz-adv-x="762" 
d="M68 215q0 35 12 35q5 0 31.5 -20t56.5 -45.5t31.5 -31t11.5 -49.5q5 -22 43 -22q54 0 125 105.5t258 598.5q-155 -222 -365 -317q-30 12 -81.5 79t-51.5 97q0 248 279 696l8 5q99 -60 117 -115q-133 -229 -179 -353.5t-59 -222.5q57 21 131 78t179.5 173t127.5 153
t97 223l6 4q33 -15 72.5 -49.5t39.5 -54.5q0 -24 -78 -203l-216 -502q-137 -322 -197.5 -399.5t-99.5 -77.5q-80 0 -189.5 71t-109.5 144z" />
    <glyph glyph-name="afii10038" unicode="&#x424;" horiz-adv-x="1080" 
d="M111 494q0 128 63 322.5t180 354.5t221 160q54 0 104 -43.5t69 -101.5q37 100 81 227l7 4q32 -9 76.5 -46.5t50.5 -65.5l-76 -201q34 12 69 12q100 0 162 -85.5t62 -201.5q0 -186 -230 -456.5t-329 -270.5q-37 0 -113 113q-31 -84 -113 -258l-10 -6q-28 4 -72.5 49.5
t-50.5 73.5l123 278q-71 -57 -117 -57q-157 0 -157 199zM213 471q0 -39 25 -39q65 0 192 151t162 232l47 109q63 146 63 153q0 45 -22 80t-62 35q-116 0 -260.5 -286t-144.5 -435zM565 279q0 -39 25 -39q100 0 282.5 266t182.5 379q0 114 -82 114q-54 0 -113 -57.5
t-135 -225.5l-117 -260q-43 -92 -43 -177z" />
    <glyph glyph-name="afii10039" unicode="&#x425;" horiz-adv-x="766" 
d="M-41 184q0 8 97 128t310 352q-86 371 -86 659q0 6 8 6q26 0 98.5 -48t73.5 -62l27 -426l368 381q58 59 62 59q15 0 65 -46.5t50 -60.5v-8q-297 -282 -512 -520q81 -376 174 -602l-6 -8q-29 4 -81 41.5t-68 62t-55 126t-75 265.5q-172 -199 -334 -426l-6 -2
q-17 0 -63.5 54.5t-46.5 74.5z" />
    <glyph glyph-name="afii10040" unicode="&#x426;" horiz-adv-x="881" 
d="M31 260q0 105 84 324.5t364 756.5l8 5q30 -12 73.5 -53.5t47.5 -69.5q-116 -205 -263.5 -531.5t-147.5 -421.5q95 36 198 134t203 239t155 274l148 365l6 4q28 -11 70.5 -47t42.5 -57q0 -33 -55 -150q-84 -170 -191.5 -435.5t-173.5 -494.5q164 -40 164 -79
q0 -42 -95 -165.5t-130 -123.5q-49 0 -88 94q22 18 108 190q-24 17 -68.5 64t-44.5 59q0 76 82 260q-155 -223 -364 -317q-32 9 -82.5 76t-50.5 100z" />
    <glyph glyph-name="afii10041" unicode="&#x427;" horiz-adv-x="707" 
d="M102 645q0 85 25 177t83 202l171 317l8 5q29 -12 75 -55t46 -68l-64 -115q-178 -320 -178 -453q116 43 273 211t170 191l92 225l6 4q28 -11 70.5 -47t42.5 -57q0 -24 -58 -150q-300 -648 -395 -1018q-22 12 -71.5 61.5t-49.5 65.5q0 71 252 645q-155 -223 -364 -317
q-31 10 -82.5 77.5t-51.5 98.5z" />
    <glyph glyph-name="afii10042" unicode="&#x428;" horiz-adv-x="1213" 
d="M4 260q0 105 89.5 334.5t359.5 746.5l8 5q26 -8 73.5 -53.5t47.5 -69.5q-8 -16 -39 -70q-92 -161 -232.5 -479.5t-140.5 -403.5q98 37 268 207q49 144 117 292.5t285 571.5l8 5q26 -8 73.5 -53.5t47.5 -69.5l-39 -70q-96 -172 -234.5 -483t-138.5 -400q99 36 202 133.5
t203.5 243t159.5 289.5l140 346l6 4q25 -7 69.5 -45.5t44.5 -58.5q0 -26 -57 -150q-94 -198 -211.5 -484.5t-185.5 -533.5q-18 6 -69.5 59.5t-51.5 67.5q0 74 82 260q-155 -222 -365 -317q-26 4 -78.5 76t-52.5 101v5q-96 -110 -256 -182q-27 4 -80 75.5t-53 100.5z" />
    <glyph glyph-name="afii10043" unicode="&#x429;" horiz-adv-x="1245" 
d="M4 260q0 105 89.5 334.5t359.5 746.5l8 5q26 -8 73.5 -53.5t47.5 -69.5q-8 -16 -39 -70q-92 -161 -232.5 -479.5t-140.5 -403.5q98 37 268 207q49 144 117 292.5t285 571.5l8 5q26 -8 73.5 -53.5t47.5 -69.5l-39 -70q-96 -172 -234.5 -483t-138.5 -400q99 36 202 133.5
t203.5 243t159.5 289.5l140 346l6 4q25 -7 69.5 -45.5t44.5 -58.5q0 -42 -55 -154q-80 -157 -195 -432.5t-176 -493.5q156 -43 156 -79q0 -42 -95 -165.5t-130 -123.5q-47 0 -88 94q18 7 112 197q-26 22 -65 63.5t-39 52.5q0 74 82 260q-155 -222 -365 -317q-26 4 -78.5 76
t-52.5 101v5q-98 -110 -256 -182q-27 4 -80 75.5t-53 100.5z" />
    <glyph glyph-name="afii10044" unicode="&#x42a;" horiz-adv-x="1104" 
d="M174 197q0 23 205 454l246 516q-218 -22 -336 -22q-28 0 -51 36.5t-23 65.5q0 9 12 19q50 -4 97 -4q42 0 348 20q6 8 16 8q9 0 21 -6l67 4h1q14 0 35 -34t26 -54l-7 -8l-38 -6l2 -8q-31 -90 -88 -201l-101 -197q121 51 211 51t137 -45l88 -116q66 -87 66 -146
q0 -152 -245 -319.5t-414 -167.5q-45 0 -74 35l-51 61l-25 -47l-6 -2q-20 0 -69.5 46.5t-49.5 66.5zM338 168q16 -4 37 -4q149 0 378.5 152t229.5 286q0 119 -162 119q-102 0 -209 -39l-24 51q-64 -150 -250 -565z" />
    <glyph glyph-name="afii10045" unicode="&#x42b;" horiz-adv-x="1338" 
d="M-25 195q0 7 38 91l407 882q54 116 58.5 119t10.5 3q27 0 66 -43t39 -69q0 -20 -29.5 -86.5t-156.5 -305.5q89 37 165 37q128 0 231 -109t103 -200q0 -149 -247 -313t-410 -164q-13 0 -39.5 9t-87.5 87l-25 -47l-6 -2q-17 0 -67 47t-50 64zM137 168q18 -4 37 -4
q153 0 380.5 151t227.5 287q0 119 -161 119q-100 0 -209 -39l-25 51q-63 -154 -250 -565zM883 166l258 559q131 285 229 569l6 4q33 -10 80 -48.5t47 -63.5q0 -19 -223 -531l-264 -606l-10 -6q-32 8 -72.5 49.5t-50.5 73.5z" />
    <glyph glyph-name="afii10046" unicode="&#x42c;" horiz-adv-x="924" 
d="M-25 195q0 7 38 91l407 882q54 116 58.5 119t10.5 3q27 0 66 -43t39 -69q0 -20 -29.5 -86.5t-156.5 -305.5q89 37 165 37q128 0 231 -109t103 -200q0 -149 -247 -313t-410 -164q-13 0 -39.5 9t-87.5 87l-25 -47l-6 -2q-17 0 -67 47t-50 64zM137 168q18 -4 37 -4
q153 0 380.5 151t227.5 287q0 119 -161 119q-100 0 -209 -39l-25 51q-63 -154 -250 -565z" />
    <glyph glyph-name="afii10047" unicode="&#x42d;" horiz-adv-x="877" 
d="M-23 250q0 100 64 139l94 -57l-24 -72q-17 -51 -17 -67q0 -39 25 -39q154 0 308 132.5t259 336.5q-213 -29 -324 -29q-36 0 -61 32.5t-25 69.5q0 11 13 19q46 -4 94 -4q152 0 346 6q64 155 64 287q0 99 -36.5 140.5t-133.5 41.5q-84 0 -217 -170l-72 59q-58 48 -58 60
q0 23 118 109.5t149 86.5q100 0 146.5 -15.5t147.5 -175t101 -218.5q0 -179 -121 -411t-293 -363.5t-374 -131.5q-34 0 -103.5 97.5t-69.5 136.5z" />
    <glyph glyph-name="afii10048" unicode="&#x42e;" horiz-adv-x="1356" 
d="M-29 160q13 27 219 491q-38 48 -38 88q0 9 12 19l74 -2q79 180 221 538l6 4q26 -5 76.5 -45.5t50.5 -60.5q0 -10 -180 -436h145q89 226 242 398.5t301 172.5q37 0 167 -98.5t130 -128.5q0 -209 -87 -494.5t-221 -448.5t-301 -163q-37 0 -100 66t-63 104q0 7 -66 61
q-69 57 -72.5 80.5t-3.5 75.5q0 129 35 258q-78 -4 -158 -4q-83 -200 -256 -586l-10 -6q-20 4 -71.5 51.5t-51.5 65.5zM639 313q0 -147 135 -147q175 0 321 326.5t146 558.5q0 143 -70 143q-99 0 -223 -141t-203 -310q35 -41 41 -75l-6 -9l-71 -8q-70 -183 -70 -338z" />
    <glyph glyph-name="afii10049" unicode="&#x42f;" horiz-adv-x="1000" 
d="M0 174l2 8q190 273 258 349.5t162 121.5q-137 105 -137 285q0 200 175.5 312t438.5 112q27 0 109 -111l16 43l6 4q36 -14 81.5 -51.5t45.5 -60.5q0 -14 -225 -533l-262 -604l-11 -6q-31 11 -70.5 50.5t-51.5 72.5l200 434q-62 -14 -112 -14q-42 0 -80 8q-43 -13 -96 -65
t-93 -110t-239 -372l-6 -2q-18 0 -64.5 55t-46.5 74zM463 920q0 -99 63 -164.5t162 -65.5q7 0 37 10l37 -45q135 298 229 549q-10 27 -61 27q-201 0 -334 -82.5t-133 -228.5z" />
    <glyph glyph-name="afii10065" unicode="&#x430;" horiz-adv-x="676" 
d="M-68 178q0 115 115.5 294t228.5 179q64 0 195 -88q67 137 127 289q-9 14 -25 14q-39 0 -97 -25q-44 -19 -117 -62q-21 -13 -31 -21l-7 -6q-17 4 -50.5 43t-39.5 63q4 17 112.5 76t188.5 59q25 0 78.5 -53t53.5 -74q0 -25 20 -63q21 -38 21 -62q0 -21 -144 -339t-182 -422
q-20 0 -72.5 45.5t-52.5 60.5q0 9 47 107q-49 -44 -133.5 -96t-126.5 -52q-18 0 -63.5 55.5t-45.5 77.5zM90 203q58 0 169 80.5t140 134.5l47 86q-45 45 -102 45q-143 0 -254 -346z" />
    <glyph glyph-name="afii10066" unicode="&#x431;" horiz-adv-x="715" 
d="M-8 203q0 201 170 502t309 301q47 0 141 -144q-4 195 -135 338q-40 8 -61 86l6 10q231 33 334 33q36 0 48.5 -4.5t31 -36.5t18.5 -61q0 -11 -12 -19q-46 2 -94 2q-58 0 -132 -4q64 -59 103 -161t39 -201q0 -279 -244 -577t-350 -298q-34 0 -103 97t-69 137zM109 145
q0 -39 24 -39q96 0 269.5 226t203.5 438q-57 96 -90 96q-117 0 -262 -287.5t-145 -433.5z" />
    <glyph glyph-name="afii10067" unicode="&#x432;" horiz-adv-x="817" 
d="M-25 127q0 10 9 29l148 326q55 120 101.5 239t79.5 225q-67 69 -67 84q0 16 14.5 23t74.5 16.5t134 9.5q174 0 279.5 -59t105.5 -170q0 -122 -67 -196t-234 -117q72 -31 135.5 -109t63.5 -145q0 -142 -156.5 -229t-345.5 -87q-13 0 -38 9.5t-87 86.5l-25 -47q-2 -1 -6 -2
q-19 0 -69 47.5t-50 65.5zM139 98q16 -4 37 -4q164 0 307.5 73t143.5 191q0 115 -277 121l-24 51q-81 -200 -187 -432zM360 625q365 0 365 223q0 92 -176 92q-24 0 -70 -4q-63 -193 -119 -311z" />
    <glyph glyph-name="afii10068" unicode="&#x433;" horiz-adv-x="545" 
d="M4 199q0 56 25.5 103.5t49 68t159.5 135.5q92 77 138 149.5t46 132.5q0 27 -53 27q-86 0 -138 -100q-69 42 -114 84q53 81 105 110t147 29q37 0 56.5 -13t67.5 -59t48 -67q0 -62 -19.5 -115.5t-55.5 -96.5t-167 -149q-110 -89 -142 -138.5t-32 -100.5q0 -94 55 -94
q58 0 121 98q21 33 29 33q22 0 61 -19t39 -45q0 -62 -96 -132.5t-158 -70.5q-34 0 -103 95.5t-69 134.5z" />
    <glyph glyph-name="afii10069" unicode="&#x434;" horiz-adv-x="715" 
d="M-8 203q0 199 169.5 501t309.5 302q88 0 162 -144q4 34 4 70q0 237 -256 330q-11 4 -11 12q0 2 1 4l24 78q4 12 13 12q59 0 212.5 -128.5t153.5 -360.5q0 -163 -98 -356.5t-264.5 -373.5t-247.5 -180q-34 0 -103 97t-69 137zM109 145q0 -39 24 -39q77 0 250 233t227 423
q-69 104 -94 104q-117 0 -262 -287.5t-145 -433.5z" />
    <glyph glyph-name="afii10070" unicode="&#x435;" horiz-adv-x="629" 
d="M-16 227q0 172 175.5 445t327.5 289q220 -181 220 -187q0 -138 -123 -279t-203 -141q-89 0 -178 111q-90 -189 -90 -268q0 -41 32 -41q41 0 95 37.5t79 74.5q51 -28 97 -104q-108 -129 -213 -129q-36 0 -127.5 80.5t-91.5 111.5zM229 508q0 -13 32 -36t52 -23
q71 0 168 132.5t97 202.5q0 43 -52 43q-74 0 -185.5 -152t-111.5 -167z" />
    <glyph glyph-name="afii10072" unicode="&#x436;" horiz-adv-x="1532" 
d="M4 252q0 28 29 90t51 72q27 -11 60.5 -45.5t41.5 -57.5q-67 -107 -67 -143q0 -37 45 -37q94 0 220 260t126 369q0 84 -27 84q-87 0 -184 -129q-33 12 -63.5 56t-30.5 67q0 19 71 80t140 61q23 0 122 -97t99 -145q0 -148 -62 -274q217 205 396 530q2 4 6 4q19 0 60.5 -33
t41.5 -65q0 -2 -37 -78q-132 -270 -239 -514l88 102q34 39 109 140l162 220q154 210 227 210q17 0 48 -26.5t83.5 -89t64.5 -86.5t12 -48q0 -29 -29 -90.5t-50 -71.5q-21 1 -61.5 41.5t-41.5 61.5q68 109 68 143q0 37 -45 37q-86 0 -217 -254.5t-131 -374.5q0 -86 24 -86
q21 0 80 57.5t90 98.5q34 -17 64 -59t30 -64q0 -19 -77.5 -92.5t-135.5 -73.5q-14 0 -51.5 40t-92 101t-54.5 101q0 68 6 110q-73 -93 -171 -207l-104 -122q-6 -7 -20 -7q-23 0 -61.5 42.5t-38.5 66.5q0 26 157 371l-259 -272q-109 -115 -173.5 -169.5t-89.5 -54.5
q-17 0 -48 26.5t-83.5 89t-65 87t-12.5 47.5z" />
    <glyph glyph-name="afii10073" unicode="&#x437;" horiz-adv-x="611" 
d="M-133 68q0 4 12 22l51 76q4 6 11 6q5 0 16 -10q74 -64 162 -64q93 0 150 48.5t57 121.5q0 92 -70 162q-7 0 -32 -9t-29 -9h-5q-16 0 -30.5 26.5t-14.5 40.5q0 20 17 25q119 38 187 71.5t114.5 89.5t46.5 103q0 82 -111 82q-68 0 -163 -33q-11 -4 -17 -4t-14 16l-27 84
q-4 12 -4 19t18.5 17.5t91.5 25t156 14.5q100 0 156.5 -52t56.5 -138q0 -95 -68.5 -187.5t-217.5 -148.5q112 -76 112 -195q0 -122 -100 -210.5t-262 -88.5q-77 0 -132.5 16t-86.5 44.5t-31 38.5z" />
    <glyph glyph-name="afii10074" unicode="&#x438;" horiz-adv-x="752" 
d="M-25 240q0 45 160 379.5t176 334.5q20 0 66.5 -27.5t46.5 -49.5l-97 -182q-50 -96 -93.5 -188t-76.5 -177.5t-48 -151.5q60 2 143 63t171 162.5t135 198.5l144 311l9 5q18 0 67 -35t49 -52l-51 -100q-83 -162 -192.5 -402.5t-120 -274.5t-10.5 -50q0 -10 -7 -10
q-28 0 -122 112l55 117q-211 -217 -305 -217q-25 0 -52.5 51t-27.5 88l4 19q0 7 -10 33q-13 33 -13 43z" />
    <glyph glyph-name="afii10075" unicode="&#x439;" horiz-adv-x="752" 
d="M-25 240q0 45 160 379.5t176 334.5q20 0 66.5 -27.5t46.5 -49.5l-97 -182q-50 -96 -93.5 -188t-76.5 -177.5t-48 -151.5q60 2 143 63t171 162.5t135 198.5l144 311l9 5q18 0 67 -35t49 -52l-51 -100q-83 -162 -192.5 -402.5t-120 -274.5t-10.5 -50q0 -10 -7 -10
q-28 0 -122 112l55 117q-211 -217 -305 -217q-25 0 -52.5 51t-27.5 88l4 19q0 7 -10 33q-13 33 -13 43zM443 1279q0 160 55 246l84 -57q-47 -85 -47 -201q0 -158 104 -158q81 0 198.5 110t150.5 197l98 -75q-40 -100 -154 -202t-202 -102q-19 0 -121 40.5t-122.5 56.5
t-32 53t-11.5 92z" />
    <glyph glyph-name="afii10076" unicode="&#x43a;" horiz-adv-x="664" 
d="M-67 154q-1 21 114.5 274t350.5 713l6 4q23 -5 65 -48t42 -63l-191 -358q104 96 223 186t156 90q13 0 43.5 -46.5t30.5 -61.5l-2 -10q-165 -45 -395 -248q97 -65 115 -79t31.5 -49t13.5 -89q0 -136 -95 -359l-6 -4q-17 4 -72 53t-55 62q0 17 43 133t43 172q0 94 -53 94
q-45 0 -89 -37.5t-61 -76.5l-151 -345q-21 4 -64.5 41t-42.5 52z" />
    <glyph glyph-name="afii10077" unicode="&#x43b;" horiz-adv-x="838" 
d="M-199 92q0 22 13 44t29 22q20 0 34 -25q33 0 61 19t65.5 75.5t155 270.5t185 311t126.5 139.5t116 42.5q2 0 32.5 -26t94.5 -74.5t77 -81.5t13 -64q0 -41 -96.5 -366t-143.5 -440l-6 -2q-13 0 -60.5 44.5t-47.5 57.5q50 153 136.5 438t86.5 320q0 61 -56 61
q-47 0 -108 -82.5t-172 -286.5l-134 -246q-70 -128 -127.5 -193.5t-99.5 -65.5q-104 0 -139 27.5t-35 80.5z" />
    <glyph glyph-name="afii10078" unicode="&#x43c;" horiz-adv-x="989" 
d="M-51 117q0 67 74.5 227.5t170.5 318.5t162 246t80 88q21 0 70 -63t49 -86q0 -13 -37 -125q-50 -153 -78 -301q102 172 238.5 353t187.5 181q23 0 48.5 -46t25.5 -72q0 -5 -2 -11q16 -35 16 -45q0 -11 -2 -16q-26 -67 -91.5 -254.5t-155.5 -550.5q-7 -14 -21 -14
q-26 0 -73.5 31t-47.5 53q0 49 71 273.5t107 322.5q-264 -323 -366 -631q-7 -14 -21 -14q-19 0 -61.5 25t-42.5 40q0 130 31 324t61 301q-195 -324 -272 -664l-11 -14q-32 0 -71 50.5t-39 72.5z" />
    <glyph glyph-name="afii10079" unicode="&#x43d;" horiz-adv-x="848" 
d="M-37 176q0 6 72 150l84 172q-27 46 -27 63q0 25 66 27q120 254 155 395l9 6q26 -8 73 -47t47 -59q0 -32 -112 -289q71 10 241 12l25 -28q22 45 180 438l8 4q34 -9 75 -46t46 -67q-266 -576 -352 -893l-8 -6q-32 6 -80.5 49t-48.5 70q0 32 155 360q-37 0 -303 -38
l-174 -371l-8 -4q-22 6 -72.5 45t-50.5 57z" />
    <glyph glyph-name="afii10080" unicode="&#x43e;" horiz-adv-x="695" 
d="M-20 203q0 201 170 502t309 301q62 0 121 -62t59 -125q0 -10 35 -51q37 -43 37 -72q0 -190 -231 -458.5t-328 -268.5q-34 0 -103 95t-69 139zM97 145q0 -39 24 -39q101 0 283 265t182 381q0 45 -23.5 79.5t-58.5 34.5q-116 0 -261.5 -287t-145.5 -434z" />
    <glyph glyph-name="afii10081" unicode="&#x43f;" horiz-adv-x="764" 
d="M-100 129q1 0 10 17l193 393q77 159 85 177q29 63 51 120l37 104q22 -3 117 -104l-53 -123q244 237 352 237q23 0 44.5 -39.5t21.5 -70.5l-6 -25q0 -14 18 -43q21 -32 21 -43l-347 -717l-6 -2q-17 0 -71 34.5t-54 49.5q0 18 168 338q173 329 174 365q-39 -2 -89.5 -28
t-120.5 -83t-141 -135.5t-108 -145.5l-169 -360l-9 -4q-18 0 -68 38t-50 50z" />
    <glyph glyph-name="afii10082" unicode="&#x440;" horiz-adv-x="741" 
d="M-268 -246q0 15 452 957q49 100 84 221q4 10 11 10q18 0 61 -51.5t43 -71.5l-12 -31q175 166 229 166q33 0 70 -67l51 -70q33 -45 33 -80q0 -178 -197 -453.5t-358 -275.5q-71 0 -144 101l-134 -310q-69 -159 -71 -161.5t-8 -2.5q-20 0 -65 49.5t-45 69.5zM82 160
q13 -35 47 -35q123 0 312.5 261.5t189.5 395.5q0 33 -21 33q-37 0 -181.5 -107.5t-176.5 -176.5z" />
    <glyph glyph-name="afii10083" unicode="&#x441;" horiz-adv-x="635" 
d="M0 244q0 189 160 462t317 273q18 0 58.5 -39t95.5 -105.5t55 -105.5q0 -29 -32 -95.5t-48 -66.5q-20 0 -61 41t-41 62q67 110 67 133q0 47 -45 47q-109 0 -250 -246t-141 -383q0 -84 45 -84q68 0 189 154q16 0 55 -51.5t39 -71.5q0 -10 -47.5 -61.5t-89 -78t-76.5 -26.5
q-42 0 -146 100.5t-104 141.5z" />
    <glyph glyph-name="afii10084" unicode="&#x442;" horiz-adv-x="1130" 
d="M-88 164l250 529q75 163 89.5 203t23.5 57.5t14 17.5q28 0 108 -109l-55 -117q218 216 320 216q15 0 30 -23t34 -74.5t22.5 -70t3.5 -56.5q209 209 313 209q23 0 51.5 -47.5t28.5 -71.5l-8 -24q0 -5 11 -27q17 -32 17 -41q0 -2 -34 -73l-102 -211q-112 -230 -127 -263
q-44 -99 -63 -164q-4 -14 -6.5 -16t-5.5 -2q-21 0 -68.5 37t-47.5 55q0 30 145 330q176 362 176 369q-69 -7 -175.5 -95.5t-200.5 -214.5t-183 -366q-17 -46 -43 -88q-20 0 -72.5 33t-52.5 47q0 37 162 352q162 314 162 336q0 8 -2 14q-83 -2 -239.5 -155.5t-213.5 -276.5
l-131 -288q-10 -23 -18 -29q-20 0 -66.5 39t-46.5 59z" />
    <glyph glyph-name="afii10085" unicode="&#x443;" horiz-adv-x="745" 
d="M-63 -154q0 21 8 21q28 0 131 -72q9 -61 37 -61q54 0 98 103l176 405q-185 -189 -270 -189q-13 0 -26 10t-26.5 31t-21.5 42l-49 145q0 83 313 675q15 0 64 -34.5t49 -49.5l-207 -407q-39 -76 -67 -147t-28 -101q0 -9 3 -14q93 3 223.5 127.5t204.5 275.5l99 208
q47 98 49 99.5t8 1.5q17 0 61.5 -35.5t44.5 -55.5q0 -1 -91.5 -189.5t-155.5 -338.5l-232 -565q-15 -32 -49 -58.5t-64 -26.5q-71 0 -176.5 68.5t-105.5 131.5z" />
    <glyph glyph-name="afii10086" unicode="&#x444;" horiz-adv-x="1104" 
d="M16 178q0 257 161.5 547.5t303.5 290.5q51 0 98.5 -39.5t73.5 -106.5l72 183l6 4q40 -12 79 -45.5t48 -67.5l-65 -158q37 13 69 13q228 0 228 -174q0 -116 -101.5 -298.5t-227 -306.5t-196.5 -124q-38 0 -112 112q-95 -251 -220 -557l-10 -6q-31 8 -72.5 50.5t-50.5 72.5
l191 467q-61 -49 -135 -49q-140 0 -140 192zM119 156q0 -39 43 -39q163 0 304.5 313t141.5 332q0 42 -22 78.5t-62 36.5q-115 0 -260 -288t-145 -433zM510 72q0 -39 25 -39q117 0 270 219t153 346q0 86 -79 86q-110 0 -239.5 -240t-129.5 -372z" />
    <glyph glyph-name="afii10087" unicode="&#x445;" horiz-adv-x="631" 
d="M-129 188q0 14 43 48q72 57 281 256q-41 151 -41 311q0 119 6 143l4 4q21 0 72 -43t51 -63l-8 -105q0 -71 16 -159l369 358q27 -35 75 -113q-61 -67 -415 -399q34 -218 151 -422l-6 -6q-101 53 -140.5 113t-97.5 227l-276 -266q-11 0 -47.5 51.5t-36.5 64.5z" />
    <glyph glyph-name="afii10088" unicode="&#x446;" horiz-adv-x="752" 
d="M-25 240q0 37 158 375.5t178 338.5q24 0 68.5 -28t44.5 -49q0 -10 -156 -312q-157 -303 -159 -387q56 2 134 56.5t166 153.5t126 173t167 352l9 5q30 -7 69.5 -33.5t46.5 -53.5q-184 -360 -346 -729q158 -41 158 -77q0 -43 -94.5 -167t-130.5 -124q-39 0 -88 94
q42 57 102 174q-57 49 -104 104l55 117q-213 -217 -305 -217q-28 0 -54 52.5t-26 86.5l4 19q0 18 -10 39q-13 27 -13 37z" />
    <glyph glyph-name="afii10089" unicode="&#x447;" horiz-adv-x="756" 
d="M53 432q0 47 23.5 151.5t60.5 190t146 270.5l8 5q24 -7 62 -39.5t55 -67.5q-62 -100 -125.5 -264t-63.5 -234q115 43 280.5 220t215.5 323q25 -8 66.5 -44t41.5 -58q0 -15 -155 -373q-168 -388 -187 -446l170 92l41 -121l-252 -129q-18 9 -68 60t-50 67q0 54 98 262
l131 278q-155 -224 -365 -317q-29 8 -81 77t-52 97z" />
    <glyph glyph-name="afii10090" unicode="&#x448;" horiz-adv-x="1186" 
d="M-8 209q0 58 132 347t193 382l3 4q3 5 10 12q23 0 67.5 -28t44.5 -49q0 -7 -156 -310q-157 -303 -159 -389q75 6 324 189q67 162 170 374.5t118 212.5q24 0 68.5 -28t44.5 -49q0 -10 -156 -312q-157 -303 -159 -387q58 2 136 58t170.5 159.5t148.5 222.5l138 295l9 5
q30 -7 67 -33t49 -54q-313 -609 -374 -827l-7 -10q-38 10 -122 112l55 117q-213 -217 -305 -217q-40 0 -69 68t-32 127q-221 -195 -309 -195q-42 0 -71 70t-29 133z" />
    <glyph glyph-name="afii10091" unicode="&#x449;" horiz-adv-x="1186" 
d="M0 209q0 63 159 404t179 341q24 0 68.5 -28t44.5 -49q0 -10 -156 -312q-158 -305 -160 -387q75 6 324 189q60 144 166.5 365.5t122.5 221.5q24 0 68 -28t44 -49q0 -12 -155 -312q-158 -305 -160 -387q42 2 95 32t123.5 94.5t132.5 144t116 195.5l127 269l8 5
q31 -7 68.5 -34t48.5 -53q-227 -431 -346 -731q155 -41 155 -77q0 -41 -94.5 -165t-130.5 -124q-47 0 -88 94q16 8 102 176q-39 24 -102 102l55 117q-213 -217 -305 -217q-39 0 -68 66.5t-32 128.5q-221 -195 -310 -195q-42 0 -71 71.5t-29 131.5z" />
    <glyph glyph-name="afii10092" unicode="&#x44a;" horiz-adv-x="803" 
d="M16 160q0 32 150 342l186 385l-215 -23q-25 -3 -49.5 33t-24.5 70q0 10 13 18q48 -4 96 -4q51 0 166 14q107 13 164 13q49 0 49 -43q0 -40 -64 -156l-86 -156q113 47 197 47q176 0 176 -194q0 -197 -150.5 -351.5t-344.5 -154.5q-37 0 -115 96l-25 -47l-6 -2
q-18 0 -67.5 47.5t-49.5 65.5zM178 131q18 -4 37 -4q197 0 291 101.5t94 211.5q0 154 -92 154q-48 0 -100 -39l-25 51q-106 -258 -205 -475z" />
    <glyph glyph-name="afii10093" unicode="&#x44b;" horiz-adv-x="1139" 
d="M-57 160q0 36 174 395l215 444q34 -7 77.5 -38.5t43.5 -53.5q0 -45 -125 -254q111 47 196 47q176 0 176 -194q0 -198 -151 -352t-344 -154q-38 0 -66 35l-49 61l-24 -47l-7 -2q-18 0 -67 47t-49 66zM104 131q18 -4 37 -4q167 0 276 84t109 229q0 60 -24 107t-68 47
q-48 0 -100 -39l-25 51q-106 -258 -205 -475zM700 127q0 23 156.5 367t237.5 507l8 5q25 -7 62.5 -44.5t37.5 -62.5q0 -6 -176 -383q-182 -391 -201 -489l-6 -2q-26 0 -72.5 39.5t-46.5 62.5z" />
    <glyph glyph-name="afii10094" unicode="&#x44c;" horiz-adv-x="778" 
d="M-8 160q0 36 174 395l215 444q36 -8 78.5 -39t42.5 -53q0 -45 -125 -254q111 47 196 47q177 0 177 -194q0 -197 -151.5 -351.5t-344.5 -154.5q-38 0 -66 35l-49 61l-24 -47l-6 -2q-19 0 -68 47t-49 66zM154 131q18 -4 36 -4q167 0 276 84t109 229q0 60 -24 107t-68 47
q-48 0 -100 -39l-25 51q-115 -281 -204 -475z" />
    <glyph glyph-name="afii10095" unicode="&#x44d;" horiz-adv-x="676" 
d="M-41 203v26q0 52 41 76l92 -57q-16 -80 -16 -103q0 -39 24 -39q98 0 303 297q-78 -8 -129 -8q-23 0 -40 1.5t-38.5 43t-21.5 58.5q0 8 12 18q46 -4 97 -4q36 0 196 8q86 152 86 232q0 43 -21 78.5t-59 35.5q-55 0 -118 -65l-125 94q117 111 196 111q54 0 153 -122
t99 -182q0 -99 -82 -249l4 -17l-6 -8l-12 -2q-77 -133 -230.5 -295t-232.5 -162q-33 0 -102.5 97.5t-69.5 136.5z" />
    <glyph glyph-name="afii10096" unicode="&#x44e;" horiz-adv-x="1096" 
d="M-43 121q0 14 156 371q-31 50 -31 75q0 9 12 19l58 -2q121 272 213 460l8 5q21 -4 61.5 -43t40.5 -58q-28 -56 -166 -364h211q203 422 373 422q63 0 121.5 -60.5t58.5 -126.5q0 -6 37 -51q35 -42 35 -72q0 -190 -229.5 -458.5t-329.5 -268.5q-34 0 -103 97t-69 137
q0 118 57 266q-106 -6 -217 -6l-98 -213q-57 -125 -74 -223l-6 -2q-22 0 -70.5 38.5t-48.5 57.5zM530 145q0 -39 25 -39q100 0 282.5 266.5t182.5 379.5q0 41 -20 77.5t-60 36.5q-125 0 -289 -342l13 -28l-9 -9l-22 -4q-103 -220 -103 -338z" />
    <glyph glyph-name="afii10097" unicode="&#x44f;" horiz-adv-x="828" 
d="M-57 127l2 8q102 147 129 178t68 57t87 36q-61 65 -61 106q0 152 126 329t261 177q49 0 95.5 -44.5t68.5 -105.5q58 121 67 121q15 0 53.5 -44.5t43.5 -63.5l-424 -940l-8 -4q-20 2 -66.5 38t-46.5 54q0 24 143 325q-40 6 -100 6q-47 0 -95 -37.5t-98 -116.5l-129 -206
l-6 -2q-17 0 -63.5 55t-46.5 74zM315 494q0 -31 62 -31q31 0 76 8q49 9 77 12l152 320q-22 92 -70 92q-111 0 -204 -139.5t-93 -261.5z" />
    <glyph glyph-name="afii10071" unicode="&#x451;" horiz-adv-x="707" 
d="M37 227q0 172 175.5 445t327.5 289q220 -181 220 -187q0 -138 -123 -279t-203 -141q-89 0 -178 111q-90 -189 -90 -268q0 -41 32 -41q41 0 95 37.5t79 74.5q51 -28 97 -104q-108 -129 -213 -129q-36 0 -127.5 80.5t-91.5 111.5zM282 508q0 -13 32 -36t52 -23
q71 0 168 132.5t97 202.5q0 43 -52 43q-74 0 -185.5 -152t-111.5 -167zM551 1138q0 23 29 102.5t37 79.5q9 0 64 -43t55 -51q-34 -57 -84 -170q-20 5 -60.5 37.5t-40.5 44.5zM760 1083q0 35 49 149l6 4q15 0 63 -41.5t44 -48.5l-72 -145q-12 4 -51 35t-39 47z" />
    <glyph glyph-name="afii10099" unicode="&#x452;" horiz-adv-x="744" 
d="M-96 119v6q248 472 430 893l-27 -2h-3q-28 0 -52.5 36t-24.5 66q0 8 13 19q62 -4 79 -4h3l63 2q65 155 88 231q18 -5 61.5 -39.5t65.5 -69.5l-53 -114q56 2 57 2q15 0 37.5 -35.5t24.5 -52.5l-7 -8q-96 -13 -163 -19l-144 -313q213 237 336 237q29 0 49.5 -53t20.5 -88
q0 -7 -6 -25q28 -56 28 -67q0 -17 -152.5 -355t-260 -521t-156.5 -183q-79 0 -189 71.5t-110 143.5q0 35 14 35q7 0 58.5 -41.5t57.5 -49t13 -38.5q5 -22 13 -30.5t30 -8.5q62 0 260.5 394t307.5 667h-7q-57 0 -232.5 -147t-231.5 -267l-162 -348l-10 -6q-25 7 -72 37.5
t-47 44.5z" />
    <glyph glyph-name="afii10100" unicode="&#x453;" horiz-adv-x="545" 
d="M4 199q0 56 25.5 103.5t49 68t159.5 135.5q92 77 138 149.5t46 132.5q0 27 -53 27q-86 0 -138 -100q-69 42 -114 84q53 81 105 110t147 29q37 0 56.5 -13t67.5 -59t48 -67q0 -62 -19.5 -115.5t-55.5 -96.5t-167 -149q-110 -89 -142 -138.5t-32 -100.5q0 -94 55 -94
q58 0 121 98q21 33 29 33q22 0 61 -19t39 -45q0 -62 -96 -132.5t-158 -70.5q-34 0 -103 95.5t-69 134.5zM299 1148q264 129 417 277q68 -46 68 -78q0 -29 -196 -131.5t-242 -102.5q-19 0 -47 35z" />
    <glyph glyph-name="afii10101" unicode="&#x454;" horiz-adv-x="670" 
d="M0 244q0 103 51 235q-8 20 -8 31q0 8 12 18l15 -2q89 203 197 328t210 125q41 0 125 -102t84 -148q0 -29 -29 -90.5t-51 -71.5q-19 2 -60.5 42.5t-41.5 60.5q67 110 67 133q0 47 -45 47q-118 0 -293 -324l187 11h1q14 0 36 -34.5t24 -53.5l-6 -9q-183 -25 -297 -32
q-43 -106 -43 -187q0 -84 45 -84q35 0 92 50.5t97 103.5q21 -2 57.5 -51t36.5 -72l-2 -8q-125 -158 -211 -158q-41 0 -145.5 101.5t-104.5 140.5z" />
    <glyph glyph-name="afii10102" unicode="&#x455;" horiz-adv-x="592" 
d="M-57 205q0 38 24 104t38 66t65.5 -37t51.5 -51l-40 -85q-18 -38 -18 -46l8 -2q85 0 194 124t109 209q0 21 -24 21q-7 0 -33 -5q-25 -5 -33 -5q-24 0 -89 81t-65 100q0 21 38.5 90.5t133 135.5t191.5 66q36 0 104 -65t68 -99q0 -21 -14 -21q-11 0 -34.5 22.5t-28 26
t-25.5 3.5q-78 0 -182.5 -63t-104.5 -132q0 -18 23 -18l69 8q32 0 89 -78t57 -113q0 -130 -156 -289t-291 -159q-16 0 -43 45t-30 65q-10 12 -29.5 39t-21 35t-1.5 27z" />
    <glyph glyph-name="afii10103" unicode="&#x456;" horiz-adv-x="338" 
d="M-57 127q0 34 365 809l8 4q20 -3 63.5 -47.5t36.5 -58.5l-164 -353q-169 -359 -184 -454l-6 -2q-27 0 -73 39.5t-46 62.5zM394 1139q0 19 26.5 90t34.5 71q14 0 69 -46t50 -56l-37 -78q-16 -33 -23 -45t-12 -18t-8 -6q-10 0 -55 39t-45 49z" />
    <glyph glyph-name="afii10104" unicode="&#x457;" horiz-adv-x="410" 
d="M-35 127q0 34 364 809l8 4q21 -3 64.5 -47.5t36.5 -58.5l-164 -353q-169 -359 -184 -454l-7 -2q-27 0 -72.5 39.5t-45.5 62.5zM297 1150q0 23 29 102.5t37 79.5q9 0 64 -43t55 -51q-34 -57 -84 -170q-20 5 -60.5 37.5t-40.5 44.5zM506 1095q0 35 49 149l6 4
q15 0 63 -41.5t44 -48.5l-72 -145q-12 4 -51 35t-39 47z" />
    <glyph glyph-name="afii10105" unicode="&#x458;" horiz-adv-x="326" 
d="M-373 -295q0 19 19 19q22 -23 32 -23q142 0 431 805l100 283q54 152 55.5 154.5t5.5 2.5q20 0 62.5 -39t42.5 -57q0 -12 -136.5 -408.5t-253.5 -599t-214 -202.5q-42 0 -93 19.5t-51 45.5zM346 1171q0 14 55 158q14 0 68.5 -45.5t54.5 -54.5q0 -2 -27 -55.5t-38.5 -73
t-13.5 -19.5q-4 0 -51.5 37.5t-47.5 52.5z" />
    <glyph glyph-name="afii10106" unicode="&#x459;" horiz-adv-x="1129" 
d="M-180 66q0 18 18 18q25 -23 33 -23q55 0 83.5 24.5t90 168.5t151 395t123.5 365q167 -19 402 -19q15 0 39 -75t24 -105q0 -27 -94 -205h101l26 -1q20 -1 33 -1h39q26 0 78.5 -51.5t52.5 -75.5q0 -22 20 -61q21 -41 21 -64q0 -52 -140 -219.5t-339 -167.5q-34 0 -103 97
t-69 137q0 125 69 307q-41 47 -41 65q0 21 78 27q33 73 133 279l-235 10q-174 -517 -274.5 -704t-176.5 -187q-43 0 -93 19.5t-50 46.5zM526 145q0 -39 25 -39q251 0 403 361q-14 22 -57 22q-18 0 -274 -16q-97 -212 -97 -328z" />
    <glyph glyph-name="afii10107" unicode="&#x45a;" horiz-adv-x="1157" 
d="M-37 127q0 21 152 360q-54 56 -54 80q0 17 103 25q61 136 203 436l8 4q27 -7 63.5 -43.5t36.5 -62.5l-149 -324q93 4 231 6q30 64 116 233t93 169q15 0 40 -75t25 -106q0 -25 -108 -221h199q25 0 78 -52t53 -74q0 -23 20 -62q21 -41 21 -64q0 -53 -141 -220t-339 -167
q-33 0 -102.5 97.5t-69.5 136.5q0 105 60 270l-240 -8l-102 -213q-53 -111 -72 -225l-6 -2q-27 0 -73 39t-46 63zM559 145q0 -39 25 -39q251 0 403 361q-26 22 -59 22q-15 0 -271 -10q-98 -214 -98 -334z" />
    <glyph glyph-name="afii10108" unicode="&#x45b;" horiz-adv-x="807" 
d="M-68 125q26 60 68 137l74 135q53 96 278 598h-24q-32 0 -56 34.5t-24 68.5q0 8 12 18q62 -4 79 -4h3l64 2q90 186 90 242l6 10q31 -4 121 -125l-56 -119l58 2q15 0 37 -34t24 -54l-6 -8q-66 -9 -164 -20l-135 -291q213 237 336 237q29 0 49 -47.5t20 -93.5l-6 -25l29 -67
q0 -10 -6 -23q-73 -149 -207 -444l-105 -252q-1 -4 -10 -4q-22 0 -67 36.5t-45 57.5q0 22 145 334l176 379q-31 0 -94.5 -40.5t-148 -112.5t-147.5 -150.5t-80 -117.5t-159 -341l-10 -6q-15 2 -67 37t-52 51z" />
    <glyph glyph-name="afii10109" unicode="&#x45c;" horiz-adv-x="664" 
d="M-67 154q-1 21 114.5 274t350.5 713l6 4q23 -5 65 -48t42 -63l-191 -358q104 96 223 186t156 90q13 0 43.5 -46.5t30.5 -61.5l-2 -10q-165 -45 -395 -248q97 -65 115 -79t31.5 -49t13.5 -89q0 -136 -95 -359l-6 -4q-17 4 -72 53t-55 62q0 17 43 133t43 172q0 94 -53 94
q-45 0 -89 -37.5t-61 -76.5l-151 -345q-21 4 -64.5 41t-42.5 52zM589 1091q264 129 417 277q68 -46 68 -78q0 -29 -196 -131.5t-242 -102.5q-19 0 -47 35z" />
    <glyph glyph-name="afii10110" unicode="&#x45e;" horiz-adv-x="746" 
d="M-63 -154q0 21 8 21q28 0 131 -72q9 -61 37 -61q54 0 98 103l176 405q-185 -189 -270 -189q-13 0 -26 10t-26.5 31t-21.5 42l-49 145q0 83 313 675q15 0 64 -34.5t49 -49.5l-207 -407q-39 -76 -67 -147t-28 -101q0 -9 3 -14q93 3 223.5 127.5t204.5 275.5l99 208
q47 98 49 99.5t8 1.5q17 0 61.5 -35.5t44.5 -55.5q0 -1 -91.5 -189.5t-155.5 -338.5l-232 -565q-15 -32 -49 -58.5t-64 -26.5q-71 0 -176.5 68.5t-105.5 131.5zM410 1233q0 160 55 246l84 -57q-47 -85 -47 -201q0 -158 104 -158q81 0 198.5 110t150.5 197l98 -75
q-40 -100 -154 -202t-202 -102q-19 0 -121 40.5t-122.5 56.5t-32 53t-11.5 92z" />
    <glyph glyph-name="afii10193" unicode="&#x45f;" horiz-adv-x="742" 
d="M-139 -393q47 61 108 204t74 193l16 6q-23 13 -45 59.5t-22 75.5l4 19q0 15 -10 37q-13 29 -13 39q0 36 139 335t187 375l10 4q30 -3 72.5 -28.5t42.5 -48.5l-158 -316q-158 -316 -160 -383q48 1 109.5 39t137.5 113.5t127.5 148t81.5 136.5l138 298l9 5q22 -2 69 -35
t47 -52q0 -21 -97.5 -183.5t-153 -243t-177 -188.5t-200.5 -158t-125 -52q34 -13 75 -40.5t41 -45.5q0 -50 -106.5 -212t-151.5 -177q-14 3 -41.5 29.5t-27.5 40.5v6z" />
    <glyph glyph-name="afii10050" unicode="&#x490;" horiz-adv-x="690" 
d="M-29 166l256 549q146 314 238 559q-30 37 -39 72l6 8q80 12 236 12q124 0 288 -8q49 75 134 248q159 -41 159 -80q0 -45 -95 -167t-132 -122l-401 18l4 -14q0 -28 -240 -557l-291 -641q-25 6 -71 52t-52 71z" />
    <glyph glyph-name="afii10098" unicode="&#x491;" horiz-adv-x="545" 
d="M4 199q0 56 25.5 103.5t49 68t159.5 135.5q92 77 138 149.5t46 132.5q0 27 -53 27q-86 0 -138 -100q-69 42 -114 84q53 81 105 110t147 29q46 0 102 -51q71 123 119 221q147 -39 147 -74q0 -84 -196 -227v-8q0 -62 -19.5 -115.5t-55.5 -96.5t-167 -149
q-110 -89 -142 -138.5t-32 -100.5q0 -94 55 -94q58 0 121 98q21 33 29 33q22 0 61 -19t39 -45q0 -62 -96 -132.5t-158 -70.5q-34 0 -103 95.5t-69 134.5z" />
    <glyph glyph-name="uni2000" unicode="&#x2000;" horiz-adv-x="930" 
 />
    <glyph glyph-name="uni2001" unicode="&#x2001;" horiz-adv-x="1860" 
 />
    <glyph glyph-name="uni2002" unicode="&#x2002;" horiz-adv-x="930" 
 />
    <glyph glyph-name="uni2003" unicode="&#x2003;" horiz-adv-x="1860" 
 />
    <glyph glyph-name="uni2004" unicode="&#x2004;" horiz-adv-x="620" 
 />
    <glyph glyph-name="uni2005" unicode="&#x2005;" horiz-adv-x="465" 
 />
    <glyph glyph-name="uni2006" unicode="&#x2006;" horiz-adv-x="310" 
 />
    <glyph glyph-name="uni2007" unicode="&#x2007;" horiz-adv-x="310" 
 />
    <glyph glyph-name="uni2008" unicode="&#x2008;" horiz-adv-x="232" 
 />
    <glyph glyph-name="uni2009" unicode="&#x2009;" horiz-adv-x="372" 
 />
    <glyph glyph-name="uni200A" unicode="&#x200a;" horiz-adv-x="103" 
 />
    <glyph glyph-name="uni2010" unicode="&#x2010;" horiz-adv-x="592" 
d="M84 510q0 9 12 18l97 -4l268 13q15 0 38 -39.5t23 -48.5l-6 -9q-224 -32 -332 -32q-38 0 -50 5.5t-31 39.5t-19 57z" />
    <glyph glyph-name="uni2011" unicode="&#x2011;" horiz-adv-x="592" 
d="M84 510q0 9 12 18l97 -4l268 13q15 0 38 -39.5t23 -48.5l-6 -9q-224 -32 -332 -32q-38 0 -50 5.5t-31 39.5t-19 57z" />
    <glyph glyph-name="figuredash" unicode="&#x2012;" horiz-adv-x="592" 
d="M84 510q0 9 12 18l97 -4l268 13q15 0 38 -39.5t23 -48.5l-6 -9q-224 -32 -332 -32q-38 0 -50 5.5t-31 39.5t-19 57z" />
    <glyph glyph-name="endash" unicode="&#x2013;" horiz-adv-x="1016" 
d="M147 528q86 -2 340 -2l342 4q22 0 43 -38l31 -56q-52 -4 -239 -4h-445q-31 0 -72 96z" />
    <glyph glyph-name="emdash" unicode="&#x2014;" horiz-adv-x="1186" 
d="M84 510q0 9 12 18q56 -4 160 -4q172 0 436.5 9.5t374.5 9.5q10 0 34.5 -36.5t24.5 -51.5l-6 -9q-439 -38 -889 -38h-73q-28 4 -51 37.5t-23 64.5z" />
    <glyph glyph-name="quoteleft" unicode="&#x2018;" horiz-adv-x="422" 
d="M307 983q0 54 156 297.5t186 243.5q26 0 72 -113q-216 -311 -260 -530q-154 83 -154 102z" />
    <glyph glyph-name="quoteright" unicode="&#x2019;" horiz-adv-x="410" 
d="M281 971q215 306 260 530q141 -74 141 -102q0 -54 -150 -296.5t-178 -242.5q-27 0 -73 111z" />
    <glyph glyph-name="quotesinglbase" unicode="&#x201a;" horiz-adv-x="291" 
d="M-258 -264q69 95 133.5 213t134.5 303q3 6 10 6q24 0 80 -34.5t56 -57.5q0 -53 -155.5 -277.5t-186.5 -224.5q-15 0 -43.5 28.5t-28.5 43.5z" />
    <glyph glyph-name="quotedblleft" unicode="&#x201c;" 
d="M307 983q0 54 156 297.5t186 243.5q26 0 72 -113q-216 -311 -260 -530q-154 83 -154 102zM627 963q0 53 150 295.5t177 242.5q28 0 74 -110q-215 -306 -260 -531q-141 74 -141 103z" />
    <glyph glyph-name="quotedblright" unicode="&#x201d;" 
d="M281 971q215 306 260 530q141 -74 141 -102q0 -54 -150 -296.5t-178 -242.5q-27 0 -73 111zM588 950q216 311 260 531q153 -83 153 -103q0 -54 -156 -297t-186 -243q-26 0 -71 112z" />
    <glyph glyph-name="quotedblbase" unicode="&#x201e;" 
d="M-168 -221q215 306 260 530q141 -73 141 -102q0 -54 -150 -296.5t-177 -242.5q-28 0 -74 111zM139 -242q217 311 260 531q154 -83 154 -103q0 -54 -156 -297t-186 -243q-26 0 -72 112z" />
    <glyph glyph-name="ellipsis" unicode="&#x2026;" horiz-adv-x="1067" 
d="M-59 117q0 10 18 52l38 82q18 40 23 42t17 2q33 0 91 -18t58 -39q0 -30 -48 -101t-77 -71q-24 0 -72 19.5t-48 31.5zM305 86q0 12 34 89.5t39 82t21 4.5q33 0 91.5 -18t58.5 -39q0 -30 -48 -101t-77 -71q-27 0 -73 19.5t-46 33.5zM668 53q0 13 33.5 88.5t39 82.5t21.5 7
q31 0 90 -17.5t59 -39.5q0 -33 -49.5 -103.5t-75.5 -70.5q-20 0 -69 20.5t-49 32.5z" />
    <glyph glyph-name="uni202F" unicode="&#x202f;" horiz-adv-x="372" 
 />
    <glyph glyph-name="guilsinglleft" unicode="&#x2039;" horiz-adv-x="502" 
d="M90 555q246 160 404 360l84 -96q-206 -175 -383 -289q57 -180 63 -458l-49 49q-21 181 -72 311q-36 85 -47 123z" />
    <glyph glyph-name="guilsinglright" unicode="&#x203a;" horiz-adv-x="502" 
d="M-88 178q199 169 385 289q-60 191 -64 459l48 -49q20 -181 71 -312l31 -71l16 -52q-242 -156 -403 -360z" />
    <glyph glyph-name="uni205F" unicode="&#x205f;" horiz-adv-x="465" 
 />
    <glyph glyph-name="Euro" unicode="&#x20ac;" horiz-adv-x="1004" 
d="M96 655h183q28 82 47 123l-99 -2l-57 82h190q114 238 251 369t272 131q28 0 85 -38t113.5 -87t75.5 -76.5t19 -93.5q0 -48 -37 -125l-6 -2q-20 0 -78 40.5t-58 59.5l19 49q18 47 18 78q0 64 -88 64q-187 0 -393 -369h307l47 -72l-395 -6q-32 -64 -55 -125h329l48 -69
l-408 -8q-61 -179 -61 -302q0 -147 94 -147q25 0 51 9t50 25t46 35.5t38 37t32.5 41.5t19.5 26q17 -1 70 -52.5t53 -66.5q0 -61 -107 -123.5t-177 -62.5q-71 0 -202.5 101.5t-131.5 162.5q0 136 51 313l-98 -2z" />
    <glyph glyph-name="trademark" unicode="&#x2122;" horiz-adv-x="1073" 
d="M422 1389v65h362v-65l-143 -3v-458h-72v461h-147zM698 928l205 520h101v-371l155 363h90v-512h-73v393l-164 -393h-82v405l-156 -405h-76z" />
    <glyph glyph-name="uniE000" unicode="&#xe000;" horiz-adv-x="950" 
d="M0 0v950h950v-950h-950z" />
    </font>
</defs>
</svg>
